{"asset":{"generator":"SOLIDWORKSGLTF","version":"2.0","extras":{"siteFinish":"matte-v1","siteTone":"tone-v1"}},"extensionsUsed":["KHR_lights_punctual","Solidworks_custom_properties"],"scene":0,"scenes":[{"name":"Default - Stato di visualizzazione-1","nodes":[0,1]}],"nodes":[{"matrix":[-0.807062,-0.11234,0.579681,0,0.292915,0.77625,0.558244,0,-0.512691,0.620335,-0.593576,0,-0.838621,1.19827,-1.03321,1],"camera":0,"name":"current"},{"children":[2,3,4],"name":"Assembly"},{"matrix":[1,0,0,0,0,1,0,0,0,0,1,0,0.0785,0.003,-1.04083e-17,1],"mesh":0,"name":"Sink-1"},{"mesh":1,"name":"Holder-1"},{"matrix":[0.082194,0.0383277,0.995879,0,-0.422618,0.906308,-2.79756e-16,0,-0.902573,-0.420877,0.0906911,0,0.151448,-0.00418814,1.73472e-17,1],"mesh":2,"name":"Incese_stick-1"}],"cameras":[{"type":"orthographic","orthographic":{"xmag":1,"ymag":1,"zfar":100,"znear":0.01}}],"meshes":[{"primitives":[{"attributes":{"POSITION":1,"NORMAL":2,"TEXCOORD_0":3},"indices":0,"mode":4,"material":1}]},{"primitives":[{"attributes":{"POSITION":5,"NORMAL":6,"TEXCOORD_0":7},"indices":4,"mode":4,"material":2}]},{"primitives":[{"attributes":{"POSITION":9,"NORMAL":10,"TEXCOORD_0":11},"indices":8,"mode":4,"material":3},{"attributes":{"POSITION":13,"NORMAL":14,"TEXCOORD_0":15},"indices":12,"mode":4,"material":4}]}],"accessors":[{"bufferView":3,"byteOffset":0,"componentType":5123,"count":6180,"type":"SCALAR"},{"bufferView":0,"byteOffset":0,"componentType":5126,"count":6180,"type":"VEC3","min":[-0.0444499999,-1.05167611e-17,-0.00595000014],"max":[0.0444499999,0.00499999989,0.00595000014]},{"bufferView":1,"byteOffset":0,"componentType":5126,"count":6180,"type":"VEC3"},{"bufferView":2,"byteOffset":0,"componentType":5126,"count":6180,"type":"VEC2"},{"bufferView":7,"byteOffset":0,"componentType":5123,"count":3852,"type":"SCALAR"},{"bufferView":4,"byteOffset":0,"componentType":5126,"count":3852,"type":"VEC3","min":[0.000501372386,-2.01858738e-17,-0.024715554],"max":[0.150000006,0.0627594143,0.024715554]},{"bufferView":5,"byteOffset":0,"componentType":5126,"count":3852,"type":"VEC3"},{"bufferView":6,"byteOffset":0,"componentType":5126,"count":3852,"type":"VEC2"},{"bufferView":11,"byteOffset":0,"componentType":5123,"count":216,"type":"SCALAR"},{"bufferView":8,"byteOffset":0,"componentType":5126,"count":216,"type":"VEC3","min":[-0.000560000015,0.0391671062,-0.000560000015],"max":[0.000560000015,0.0776671022,0.000560000015]},{"bufferView":9,"byteOffset":0,"componentType":5126,"count":216,"type":"VEC3"},{"bufferView":10,"byteOffset":0,"componentType":5126,"count":216,"type":"VEC2"},{"bufferView":11,"byteOffset":432,"componentType":5123,"count":3654,"type":"SCALAR"},{"bufferView":8,"byteOffset":2592,"componentType":5126,"count":3654,"type":"VEC3","min":[-0.000944233616,0.0776671022,-0.000944999978],"max":[0.000944233616,0.199467108,0.000944999978]},{"bufferView":9,"byteOffset":2592,"componentType":5126,"count":3654,"type":"VEC3"},{"bufferView":10,"byteOffset":1728,"componentType":5126,"count":3654,"type":"VEC2"}],"materials":[{"pbrMetallicRoughness":{"baseColorFactor":[0.287157,0.287157,0.287157,1],"metallicFactor":0.0,"roughnessFactor":0.9}},{"name":"color-3","pbrMetallicRoughness":{"baseColorFactor":[0.8008,0.8008,0.8008,1],"metallicFactor":0.0,"roughnessFactor":0.9}},{"name":"color","pbrMetallicRoughness":{"baseColorFactor":[0.144709,0.144709,0.144709,1],"metallicFactor":0.0,"roughnessFactor":0.9}},{"name":"color-1","pbrMetallicRoughness":{"baseColorFactor":[0.434128,0.0,0.0,1],"metallicFactor":0.0,"roughnessFactor":0.9}},{"name":"color-2","pbrMetallicRoughness":{"baseColorFactor":[0.112873,0.112873,0.112873,1],"metallicFactor":0.0,"roughnessFactor":0.9}}],"bufferViews":[{"buffer":0,"byteOffset":0,"byteLength":74160,"byteStride":12,"target":34962},{"buffer":0,"byteOffset":74160,"byteLength":74160,"byteStride":12,"target":34962},{"buffer":0,"byteOffset":148320,"byteLength":49440,"byteStride":8,"target":34962},{"buffer":0,"byteOffset":197760,"byteLength":12360,"target":34963},{"buffer":1,"byteOffset":0,"byteLength":46224,"byteStride":12,"target":34962},{"buffer":1,"byteOffset":46224,"byteLength":46224,"byteStride":12,"target":34962},{"buffer":1,"byteOffset":92448,"byteLength":30816,"byteStride":8,"target":34962},{"buffer":1,"byteOffset":123264,"byteLength":7704,"target":34963},{"buffer":2,"byteOffset":0,"byteLength":46440,"byteStride":12,"target":34962},{"buffer":2,"byteOffset":46440,"byteLength":46440,"byteStride":12,"target":34962},{"buffer":2,"byteOffset":92880,"byteLength":30960,"byteStride":8,"target":34962},{"buffer":2,"byteOffset":123840,"byteLength":7740,"target":34963}],"buffers":[{"byteLength":210120,"uri":"Sink-1.bin"},{"byteLength":130968,"uri":"Holder-1.bin"},{"byteLength":131580,"uri":"Incese_stick-1.bin"}]}