{"asset":{"generator":"SOLIDWORKSGLTF","version":"2.0","extras":{"siteFinish":"matte-v1","siteTone":"tone-v1"}},"extensionsUsed":["KHR_lights_punctual","Solidworks_custom_properties"],"scene":0,"scenes":[{"name":"Default - Stato di visualizzazione-1","nodes":[0,1]}],"nodes":[{"matrix":[0.800942,-0.0271958,-0.598124,0,-0.194435,0.933013,-0.302789,0,0.566292,0.358812,0.742002,0,13.7155,9.16508,18.6235,1],"camera":0,"name":"current"},{"children":[2,6,7,19,23,52,53,54,55,56],"name":"Complessivo_letto_1"},{"children":[3,4,5],"matrix":[1,0,0,0,0,1,0,0,0,0,1,0,0.661,0.154,-1.11022e-16,1],"name":"Longherone-1"},{"matrix":[1.41414e-16,1,-1.249e-16,0,3.35344e-20,-1.249e-16,-1,0,-1,1.4177e-16,-1.07019e-19,0,0,0.105,0.97,1],"mesh":0,"name":"Trave_190-1"},{"matrix":[1.41414e-16,1,-1.249e-16,0,3.35344e-20,-1.249e-16,-1,0,-1,1.4177e-16,-1.07019e-19,0,0,0.021,0.97,1],"mesh":1,"name":"Trave_190-2"},{"matrix":[1.41414e-16,1,-1.249e-16,0,3.35344e-20,-1.249e-16,-1,0,-1,1.4177e-16,-1.07019e-19,0,0,0.063,0.97,1],"mesh":2,"name":"Trave_190-3"},{"matrix":[1,0,0,0,0,1,0,0,0,0,1,0,-7.51293e-17,-0.173,-9.02056e-17,1],"mesh":3,"name":"Rete-1"},{"children":[8,9,10,11,12,13,14,15,16,17,18],"matrix":[1,0,0,0,0,1,0,0,0,0,1,0,5.46642e-17,2.10002e-17,0.991,1],"name":"Pediera-1"},{"matrix":[-1.66533e-16,0.661806,-0.749675,0,1,2.35922e-16,-1.11022e-16,0,-1.11022e-16,-0.749675,-0.661806,0,0.6,0.175,1.11022e-16,1],"mesh":4,"name":"Spina-6"},{"matrix":[-2.78174e-16,0.425135,-0.90513,0,1,1.1458e-16,-2.53513e-16,0,-4.06779e-18,-0.90513,-0.425135,0,0.6,0.259,2.22045e-16,1],"mesh":5,"name":"Spina-4"},{"matrix":[-1.38778e-16,0.589045,-0.8081,0,1,-1.00614e-16,-3.33067e-16,0,-1.94289e-16,-0.8081,-0.589045,0,-0.67,0.175,2.22045e-16,1],"mesh":6,"name":"Spina-3"},{"matrix":[-1.38778e-16,0.589045,-0.8081,0,1,1.11022e-16,-1.66533e-16,0,2.77556e-17,-0.8081,-0.589045,0,0.6,0.217,0,1],"mesh":7,"name":"Spina-5"},{"matrix":[0,2.77556e-17,1,0,2.17685e-17,1,-2.77556e-17,0,-1,2.17685e-17,0,0,-0.661,1.41495e-19,2.22045e-16,1],"mesh":8,"name":"Trave_50-1"},{"matrix":[-1.31671e-16,1.4988e-15,-1,0,-1.46647e-17,1,1.4988e-15,0,1,1.46647e-17,-1.31671e-16,0,0.661,-1.70003e-16,-2.22045e-16,1],"mesh":9,"name":"Trave_50-2"},{"matrix":[-1.33078e-16,0.336289,-0.941759,0,1,-1.24036e-16,-1.85599e-16,0,-1.79227e-16,-0.941759,-0.336289,0,-0.67,0.259,2.22045e-16,1],"mesh":10,"name":"Spina-1"},{"matrix":[-3.05311e-16,0.481354,-0.876527,0,1,2.47198e-17,-1.94289e-16,0,-6.93889e-17,-0.876527,-0.481354,0,-0.67,0.217,2.22045e-16,1],"mesh":11,"name":"Spina-2"},{"matrix":[9.33133e-17,-3.09886e-17,1,0,-1,-1.38778e-17,9.33133e-17,0,1.38778e-17,-1,-3.09886e-17,0,0.64,0.175,1.11022e-16,1],"mesh":12,"name":"Trave_120-2"},{"matrix":[9.33133e-17,-3.09886e-17,1,0,-1,-1.38778e-17,9.33133e-17,0,1.38778e-17,-1,-3.09886e-17,0,0.64,0.217,1.11022e-16,1],"mesh":13,"name":"Trave_120-3"},{"matrix":[9.33133e-17,-5.55112e-17,1,0,-1,-1.38778e-17,9.33133e-17,0,1.38778e-17,-1,-5.55112e-17,0,0.64,0.259,1.11022e-16,1],"mesh":14,"name":"Trave_120-1"},{"children":[20,21,22],"matrix":[1,0,0,0,0,1,0,0,0,0,1,0,5.92666e-18,-0.1685,0,1],"name":"Gruppo_materasso-1"},{"matrix":[1,0,0,0,0,1,0,0,0,0,1,0,0.308784,0.6855,-0.776049,1],"mesh":15,"name":"Cuscino-2"},{"matrix":[1,0,0,0,0,1,0,0,0,0,1,0,-5.24013e-17,0.4905,0,1],"mesh":16,"name":"Materasso-1"},{"matrix":[0.994378,0,-0.105892,0,0,1,0,0,0.105892,0,0.994378,0,-0.27192,0.6855,-0.757939,1],"mesh":17,"name":"Cuscino-1"},{"children":[24,25,26,27,28,29,30,31,32,33,34,35,36,37,38,39,40,41,42,43,44,45,46,47,48,49,50,51],"matrix":[1,0,0,0,0,1,0,0,0,0,1,0,-1.15141e-16,3.6646e-17,-0.991,1],"name":"Testiera-1"},{"matrix":[9.33133e-17,-3.09886e-17,1,0,-1,-1.38778e-17,9.33133e-17,0,1.38778e-17,-1,-3.09886e-17,0,0.64,0.175,-2.22045e-16,1],"mesh":18,"name":"Trave_120-3"},{"matrix":[2.77556e-17,-0.048516,-0.998822,0,1,8.10983e-17,0,0,1.21431e-16,-0.998822,0.048516,0,-0.67,0.259,0,1],"mesh":19,"name":"Spina-2"},{"matrix":[-1,-4.66367e-33,-8.32667e-17,0,-2.31112e-33,1,-7.46511e-19,0,1.85111e-17,-2.22512e-17,-1,0,-0.661,0,0,1],"mesh":20,"name":"Trave_80-1"},{"matrix":[9.33133e-17,-3.09886e-17,1,0,-1,-1.38778e-17,9.33133e-17,0,1.38778e-17,-1,-3.09886e-17,0,0.64,0.259,-2.22045e-16,1],"mesh":21,"name":"Trave_120-2"},{"matrix":[-4.46276e-17,-0.206268,-0.978495,0,1,-2.66449e-17,-3.99916e-17,0,-1.78229e-17,-0.978495,0.206268,0,-0.67,0.659,0,1],"mesh":22,"name":"Spina-1"},{"matrix":[9.33133e-17,-3.09886e-17,1,0,-1,-1.38778e-17,9.33133e-17,0,1.38778e-17,-1,-3.09886e-17,0,0.64,0.217,-2.22045e-16,1],"mesh":23,"name":"Trave_120-1"},{"matrix":[1,0,0,0,0,1,0,0,0,0,1,0,0.661,-3.6646e-17,-3.33067e-16,1],"mesh":24,"name":"Trave_80-2"},{"matrix":[9.33133e-17,-3.09886e-17,1,0,-1,-1.38778e-17,9.33133e-17,0,1.38778e-17,-1,-3.09886e-17,0,0.64,0.659,-1.11022e-16,1],"mesh":25,"name":"Trave_120_forata-4"},{"matrix":[1,-2.46941e-17,4.85723e-17,0,-2.46941e-17,-1,-1.35379e-17,0,4.85723e-17,1.35379e-17,-1,0,0.583235,0.638,-1.11022e-16,1],"mesh":26,"name":"Trave_60-1"},{"matrix":[-1.66533e-16,-0.048516,-0.998822,0,1,4.59702e-17,-1.94289e-16,0,9.97466e-17,-0.998822,0.048516,0,0.6,0.659,-2.22045e-16,1],"mesh":27,"name":"Spina-4"},{"matrix":[0,0.0790612,-0.99687,0,1,1.21431e-16,0,0,1.31839e-16,-0.99687,-0.0790612,0,-0.67,0.175,0,1],"mesh":28,"name":"Spina-3"},{"matrix":[-2.22045e-16,0.0790612,-0.99687,0,1,1.00614e-16,-1.66533e-16,0,1.59595e-16,-0.99687,-0.0790612,0,0.6,0.259,-3.33067e-16,1],"mesh":29,"name":"Spina-5"},{"matrix":[-2.77556e-16,0.171637,-0.98516,0,1,9.02056e-17,-1.11022e-16,0,-2.77556e-17,-0.98516,-0.171637,0,0.6,0.175,-2.22045e-16,1],"mesh":30,"name":"Spina-6"},{"matrix":[1,-2.46941e-17,4.85723e-17,0,-2.46941e-17,-1,-1.35379e-17,0,4.85723e-17,1.35379e-17,-1,0,-0.586765,0.638,0,1],"mesh":31,"name":"Trave_60-16"},{"matrix":[1,-2.46941e-17,4.85723e-17,0,-2.46941e-17,-1,-1.35379e-17,0,4.85723e-17,1.35379e-17,-1,0,-0.0407647,0.638,-1.11022e-16,1],"mesh":32,"name":"Trave_60-9"},{"matrix":[1,-2.46941e-17,4.85723e-17,0,-2.46941e-17,-1,-1.35379e-17,0,4.85723e-17,1.35379e-17,-1,0,-0.196765,0.638,0,1],"mesh":33,"name":"Trave_60-11"},{"matrix":[1,-2.46941e-17,4.85723e-17,0,-2.46941e-17,-1,-1.35379e-17,0,4.85723e-17,1.35379e-17,-1,0,-0.508765,0.638,0,1],"mesh":34,"name":"Trave_60-15"},{"matrix":[1,-2.46941e-17,4.85723e-17,0,-2.46941e-17,-1,-1.35379e-17,0,4.85723e-17,1.35379e-17,-1,0,0.0372353,0.638,-1.11022e-16,1],"mesh":35,"name":"Trave_60-8"},{"matrix":[1,-2.46941e-17,4.85723e-17,0,-2.46941e-17,-1,-1.35379e-17,0,4.85723e-17,1.35379e-17,-1,0,-0.430765,0.638,0,1],"mesh":36,"name":"Trave_60-14"},{"matrix":[1,-2.46941e-17,4.85723e-17,0,-2.46941e-17,-1,-1.35379e-17,0,4.85723e-17,1.35379e-17,-1,0,-0.118765,0.638,-1.11022e-16,1],"mesh":37,"name":"Trave_60-10"},{"matrix":[1,-2.46941e-17,4.85723e-17,0,-2.46941e-17,-1,-1.35379e-17,0,4.85723e-17,1.35379e-17,-1,0,-0.274765,0.638,0,1],"mesh":38,"name":"Trave_60-12"},{"matrix":[1,-2.46941e-17,4.85723e-17,0,-2.46941e-17,-1,-1.35379e-17,0,4.85723e-17,1.35379e-17,-1,0,-0.352765,0.638,0,1],"mesh":39,"name":"Trave_60-13"},{"matrix":[1,-2.46941e-17,4.85723e-17,0,-2.46941e-17,-1,-1.35379e-17,0,4.85723e-17,1.35379e-17,-1,0,0.349235,0.638,-1.11022e-16,1],"mesh":40,"name":"Trave_60-4"},{"matrix":[1,-2.46941e-17,4.85723e-17,0,-2.46941e-17,-1,-1.35379e-17,0,4.85723e-17,1.35379e-17,-1,0,0.271235,0.638,-1.11022e-16,1],"mesh":41,"name":"Trave_60-5"},{"matrix":[1,-2.46941e-17,4.85723e-17,0,-2.46941e-17,-1,-1.35379e-17,0,4.85723e-17,1.35379e-17,-1,0,0.505235,0.638,-1.11022e-16,1],"mesh":42,"name":"Trave_60-2"},{"matrix":[1,-2.46941e-17,4.85723e-17,0,-2.46941e-17,-1,-1.35379e-17,0,4.85723e-17,1.35379e-17,-1,0,0.193235,0.638,-1.11022e-16,1],"mesh":43,"name":"Trave_60-6"},{"matrix":[1,-2.46941e-17,4.85723e-17,0,-2.46941e-17,-1,-1.35379e-17,0,4.85723e-17,1.35379e-17,-1,0,0.115235,0.638,-1.11022e-16,1],"mesh":44,"name":"Trave_60-7"},{"matrix":[1,-2.46941e-17,4.85723e-17,0,-2.46941e-17,-1,-1.35379e-17,0,4.85723e-17,1.35379e-17,-1,0,0.427235,0.638,-1.11022e-16,1],"mesh":45,"name":"Trave_60-3"},{"matrix":[7.32201e-17,-1.11022e-16,-1,0,5.69015e-17,1,-2.77556e-16,0,1,1.02813e-17,6.87631e-17,0,0.64,0.154,0.97,1],"mesh":46,"name":"Staffa-8"},{"matrix":[1.03038e-15,2.1591e-16,1,0,1.11022e-16,1,-2.08136e-16,0,-1,1.66533e-16,1.03532e-15,0,-0.64,0.154,-0.97,1],"mesh":47,"name":"Staffa-10"},{"matrix":[-1,4.86387e-18,1.16362e-15,0,-5.54852e-18,1,-2.498e-16,0,-1.18272e-15,-1.94289e-16,-1,0,0.64,0.154,-0.97,1],"mesh":48,"name":"Staffa-9"},{"matrix":[1,0,0,0,0,1,0,0,0,0,1,0,-0.64,0.154,0.97,1],"mesh":49,"name":"Staffa-2"},{"children":[57,58,59],"matrix":[1,0,0,0,0,1,0,0,0,0,1,0,-0.661,0.154,5.41234e-16,1],"name":"Longherone-2"},{"matrix":[1.41414e-16,1,-1.249e-16,0,3.35344e-20,-1.249e-16,-1,0,-1,1.4177e-16,-1.07019e-19,0,0,0.105,0.97,1],"mesh":50,"name":"Trave_190-1"},{"matrix":[1.41414e-16,1,-1.249e-16,0,3.35344e-20,-1.249e-16,-1,0,-1,1.4177e-16,-1.07019e-19,0,0,0.021,0.97,1],"mesh":51,"name":"Trave_190-2"},{"matrix":[1.41414e-16,1,-1.249e-16,0,3.35344e-20,-1.249e-16,-1,0,-1,1.4177e-16,-1.07019e-19,0,0,0.063,0.97,1],"mesh":52,"name":"Trave_190-3"}],"cameras":[{"type":"orthographic","orthographic":{"xmag":1,"ymag":1,"zfar":100,"znear":0.01}}],"meshes":[{"primitives":[{"attributes":{"POSITION":1,"NORMAL":2,"TEXCOORD_0":3},"indices":0,"mode":4,"material":1}]},{"primitives":[{"attributes":{"POSITION":5,"NORMAL":6,"TEXCOORD_0":7},"indices":4,"mode":4,"material":1}]},{"primitives":[{"attributes":{"POSITION":9,"NORMAL":10,"TEXCOORD_0":11},"indices":8,"mode":4,"material":1}]},{"primitives":[{"attributes":{"POSITION":13,"NORMAL":14,"TEXCOORD_0":15},"indices":12,"mode":4,"material":2},{"attributes":{"POSITION":17,"NORMAL":18,"TEXCOORD_0":19},"indices":16,"mode":4,"material":3}]},{"primitives":[{"attributes":{"POSITION":21,"NORMAL":22,"TEXCOORD_0":23},"indices":20,"mode":4,"material":4}]},{"primitives":[{"attributes":{"POSITION":25,"NORMAL":26,"TEXCOORD_0":27},"indices":24,"mode":4,"material":4}]},{"primitives":[{"attributes":{"POSITION":29,"NORMAL":30,"TEXCOORD_0":31},"indices":28,"mode":4,"material":4}]},{"primitives":[{"attributes":{"POSITION":33,"NORMAL":34,"TEXCOORD_0":35},"indices":32,"mode":4,"material":4}]},{"primitives":[{"attributes":{"POSITION":37,"NORMAL":38,"TEXCOORD_0":39},"indices":36,"mode":4,"material":5}]},{"primitives":[{"attributes":{"POSITION":41,"NORMAL":42,"TEXCOORD_0":43},"indices":40,"mode":4,"material":5}]},{"primitives":[{"attributes":{"POSITION":45,"NORMAL":46,"TEXCOORD_0":47},"indices":44,"mode":4,"material":4}]},{"primitives":[{"attributes":{"POSITION":49,"NORMAL":50,"TEXCOORD_0":51},"indices":48,"mode":4,"material":4}]},{"primitives":[{"attributes":{"POSITION":53,"NORMAL":54,"TEXCOORD_0":55},"indices":52,"mode":4,"material":6}]},{"primitives":[{"attributes":{"POSITION":57,"NORMAL":58,"TEXCOORD_0":59},"indices":56,"mode":4,"material":6}]},{"primitives":[{"attributes":{"POSITION":61,"NORMAL":62,"TEXCOORD_0":63},"indices":60,"mode":4,"material":6}]},{"primitives":[{"attributes":{"POSITION":65,"NORMAL":66,"TEXCOORD_0":67},"indices":64,"mode":4,"material":7}]},{"primitives":[{"attributes":{"POSITION":69,"NORMAL":70,"TEXCOORD_0":71},"indices":68,"mode":4,"material":8}]},{"primitives":[{"attributes":{"POSITION":73,"NORMAL":74,"TEXCOORD_0":75},"indices":72,"mode":4,"material":7}]},{"primitives":[{"attributes":{"POSITION":77,"NORMAL":78,"TEXCOORD_0":79},"indices":76,"mode":4,"material":6}]},{"primitives":[{"attributes":{"POSITION":81,"NORMAL":82,"TEXCOORD_0":83},"indices":80,"mode":4,"material":4}]},{"primitives":[{"attributes":{"POSITION":85,"NORMAL":86,"TEXCOORD_0":87},"indices":84,"mode":4,"material":9}]},{"primitives":[{"attributes":{"POSITION":89,"NORMAL":90,"TEXCOORD_0":91},"indices":88,"mode":4,"material":6}]},{"primitives":[{"attributes":{"POSITION":93,"NORMAL":94,"TEXCOORD_0":95},"indices":92,"mode":4,"material":4}]},{"primitives":[{"attributes":{"POSITION":97,"NORMAL":98,"TEXCOORD_0":99},"indices":96,"mode":4,"material":6}]},{"primitives":[{"attributes":{"POSITION":101,"NORMAL":102,"TEXCOORD_0":103},"indices":100,"mode":4,"material":9}]},{"primitives":[{"attributes":{"POSITION":105,"NORMAL":106,"TEXCOORD_0":107},"indices":104,"mode":4,"material":10}]},{"primitives":[{"attributes":{"POSITION":109,"NORMAL":110,"TEXCOORD_0":111},"indices":108,"mode":4,"material":11}]},{"primitives":[{"attributes":{"POSITION":113,"NORMAL":114,"TEXCOORD_0":115},"indices":112,"mode":4,"material":4}]},{"primitives":[{"attributes":{"POSITION":117,"NORMAL":118,"TEXCOORD_0":119},"indices":116,"mode":4,"material":4}]},{"primitives":[{"attributes":{"POSITION":121,"NORMAL":122,"TEXCOORD_0":123},"indices":120,"mode":4,"material":4}]},{"primitives":[{"attributes":{"POSITION":125,"NORMAL":126,"TEXCOORD_0":127},"indices":124,"mode":4,"material":4}]},{"primitives":[{"attributes":{"POSITION":129,"NORMAL":130,"TEXCOORD_0":131},"indices":128,"mode":4,"material":11}]},{"primitives":[{"attributes":{"POSITION":133,"NORMAL":134,"TEXCOORD_0":135},"indices":132,"mode":4,"material":11}]},{"primitives":[{"attributes":{"POSITION":137,"NORMAL":138,"TEXCOORD_0":139},"indices":136,"mode":4,"material":11}]},{"primitives":[{"attributes":{"POSITION":141,"NORMAL":142,"TEXCOORD_0":143},"indices":140,"mode":4,"material":11}]},{"primitives":[{"attributes":{"POSITION":145,"NORMAL":146,"TEXCOORD_0":147},"indices":144,"mode":4,"material":11}]},{"primitives":[{"attributes":{"POSITION":149,"NORMAL":150,"TEXCOORD_0":151},"indices":148,"mode":4,"material":11}]},{"primitives":[{"attributes":{"POSITION":153,"NORMAL":154,"TEXCOORD_0":155},"indices":152,"mode":4,"material":11}]},{"primitives":[{"attributes":{"POSITION":157,"NORMAL":158,"TEXCOORD_0":159},"indices":156,"mode":4,"material":11}]},{"primitives":[{"attributes":{"POSITION":161,"NORMAL":162,"TEXCOORD_0":163},"indices":160,"mode":4,"material":11}]},{"primitives":[{"attributes":{"POSITION":165,"NORMAL":166,"TEXCOORD_0":167},"indices":164,"mode":4,"material":11}]},{"primitives":[{"attributes":{"POSITION":169,"NORMAL":170,"TEXCOORD_0":171},"indices":168,"mode":4,"material":11}]},{"primitives":[{"attributes":{"POSITION":173,"NORMAL":174,"TEXCOORD_0":175},"indices":172,"mode":4,"material":11}]},{"primitives":[{"attributes":{"POSITION":177,"NORMAL":178,"TEXCOORD_0":179},"indices":176,"mode":4,"material":11}]},{"primitives":[{"attributes":{"POSITION":181,"NORMAL":182,"TEXCOORD_0":183},"indices":180,"mode":4,"material":11}]},{"primitives":[{"attributes":{"POSITION":185,"NORMAL":186,"TEXCOORD_0":187},"indices":184,"mode":4,"material":11}]},{"primitives":[{"attributes":{"POSITION":189,"NORMAL":190,"TEXCOORD_0":191},"indices":188,"mode":4,"material":12}]},{"primitives":[{"attributes":{"POSITION":193,"NORMAL":194,"TEXCOORD_0":195},"indices":192,"mode":4,"material":12}]},{"primitives":[{"attributes":{"POSITION":197,"NORMAL":198,"TEXCOORD_0":199},"indices":196,"mode":4,"material":12}]},{"primitives":[{"attributes":{"POSITION":201,"NORMAL":202,"TEXCOORD_0":203},"indices":200,"mode":4,"material":12}]},{"primitives":[{"attributes":{"POSITION":205,"NORMAL":206,"TEXCOORD_0":207},"indices":204,"mode":4,"material":1}]},{"primitives":[{"attributes":{"POSITION":209,"NORMAL":210,"TEXCOORD_0":211},"indices":208,"mode":4,"material":1}]},{"primitives":[{"attributes":{"POSITION":213,"NORMAL":214,"TEXCOORD_0":215},"indices":212,"mode":4,"material":1}]}],"accessors":[{"bufferView":3,"byteOffset":0,"componentType":5123,"count":324,"type":"SCALAR"},{"bufferView":0,"byteOffset":0,"componentType":5126,"count":324,"type":"VEC3","min":[-0.0209999997,0.0,-0.0209999997],"max":[0.0209999997,1.94000006,0.0209999997]},{"bufferView":1,"byteOffset":0,"componentType":5126,"count":324,"type":"VEC3"},{"bufferView":2,"byteOffset":0,"componentType":5126,"count":324,"type":"VEC2"},{"bufferView":7,"byteOffset":0,"componentType":5123,"count":324,"type":"SCALAR"},{"bufferView":4,"byteOffset":0,"componentType":5126,"count":324,"type":"VEC3","min":[-0.0209999997,0.0,-0.0209999997],"max":[0.0209999997,1.94000006,0.0209999997]},{"bufferView":5,"byteOffset":0,"componentType":5126,"count":324,"type":"VEC3"},{"bufferView":6,"byteOffset":0,"componentType":5126,"count":324,"type":"VEC2"},{"bufferView":11,"byteOffset":0,"componentType":5123,"count":324,"type":"SCALAR"},{"bufferView":8,"byteOffset":0,"componentType":5126,"count":324,"type":"VEC3","min":[-0.0209999997,0.0,-0.0209999997],"max":[0.0209999997,1.94000006,0.0209999997]},{"bufferView":9,"byteOffset":0,"componentType":5126,"count":324,"type":"VEC3"},{"bufferView":10,"byteOffset":0,"componentType":5126,"count":324,"type":"VEC2"},{"bufferView":15,"byteOffset":0,"componentType":5123,"count":3564,"type":"SCALAR"},{"bufferView":12,"byteOffset":0,"componentType":5126,"count":3564,"type":"VEC3","min":[-0.582499981,0.349234819,-0.862500012],"max":[0.582499981,0.370409697,0.862500012]},{"bufferView":13,"byteOffset":0,"componentType":5126,"count":3564,"type":"VEC3"},{"bufferView":14,"byteOffset":0,"componentType":5126,"count":3564,"type":"VEC2"},{"bufferView":15,"byteOffset":7128,"componentType":5123,"count":1512,"type":"SCALAR"},{"bufferView":12,"byteOffset":42768,"componentType":5126,"count":1512,"type":"VEC3","min":[-0.597500026,0.319999993,-0.945500016],"max":[0.597500026,0.375,0.945500016]},{"bufferView":13,"byteOffset":42768,"componentType":5126,"count":1512,"type":"VEC3"},{"bufferView":14,"byteOffset":28512,"componentType":5126,"count":1512,"type":"VEC2"},{"bufferView":19,"byteOffset":0,"componentType":5123,"count":1152,"type":"SCALAR"},{"bufferView":16,"byteOffset":0,"componentType":5126,"count":1152,"type":"VEC3","min":[-0.00499999989,0.0,-0.00499999989],"max":[0.00499999989,0.0700000003,0.00499999989]},{"bufferView":17,"byteOffset":0,"componentType":5126,"count":1152,"type":"VEC3"},{"bufferView":18,"byteOffset":0,"componentType":5126,"count":1152,"type":"VEC2"},{"bufferView":23,"byteOffset":0,"componentType":5123,"count":1152,"type":"SCALAR"},{"bufferView":20,"byteOffset":0,"componentType":5126,"count":1152,"type":"VEC3","min":[-0.00499999989,0.0,-0.00499999989],"max":[0.00499999989,0.0700000003,0.00499999989]},{"bufferView":21,"byteOffset":0,"componentType":5126,"count":1152,"type":"VEC3"},{"bufferView":22,"byteOffset":0,"componentType":5126,"count":1152,"type":"VEC2"},{"bufferView":27,"byteOffset":0,"componentType":5123,"count":1152,"type":"SCALAR"},{"bufferView":24,"byteOffset":0,"componentType":5126,"count":1152,"type":"VEC3","min":[-0.00499999989,0.0,-0.00499999989],"max":[0.00499999989,0.0700000003,0.00499999989]},{"bufferView":25,"byteOffset":0,"componentType":5126,"count":1152,"type":"VEC3"},{"bufferView":26,"byteOffset":0,"componentType":5126,"count":1152,"type":"VEC2"},{"bufferView":31,"byteOffset":0,"componentType":5123,"count":1152,"type":"SCALAR"},{"bufferView":28,"byteOffset":0,"componentType":5126,"count":1152,"type":"VEC3","min":[-0.00499999989,0.0,-0.00499999989],"max":[0.00499999989,0.0700000003,0.00499999989]},{"bufferView":29,"byteOffset":0,"componentType":5126,"count":1152,"type":"VEC3"},{"bufferView":30,"byteOffset":0,"componentType":5126,"count":1152,"type":"VEC2"},{"bufferView":35,"byteOffset":0,"componentType":5123,"count":1302,"type":"SCALAR"},{"bufferView":32,"byteOffset":0,"componentType":5126,"count":1302,"type":"VEC3","min":[-0.0209999997,0.0,-0.0209999997],"max":[0.0209999997,0.280000001,0.0209999997]},{"bufferView":33,"byteOffset":0,"componentType":5126,"count":1302,"type":"VEC3"},{"bufferView":34,"byteOffset":0,"componentType":5126,"count":1302,"type":"VEC2"},{"bufferView":39,"byteOffset":0,"componentType":5123,"count":1302,"type":"SCALAR"},{"bufferView":36,"byteOffset":0,"componentType":5126,"count":1302,"type":"VEC3","min":[-0.0209999997,0.0,-0.0209999997],"max":[0.0209999997,0.280000001,0.0209999997]},{"bufferView":37,"byteOffset":0,"componentType":5126,"count":1302,"type":"VEC3"},{"bufferView":38,"byteOffset":0,"componentType":5126,"count":1302,"type":"VEC2"},{"bufferView":43,"byteOffset":0,"componentType":5123,"count":1152,"type":"SCALAR"},{"bufferView":40,"byteOffset":0,"componentType":5126,"count":1152,"type":"VEC3","min":[-0.00499999989,0.0,-0.00499999989],"max":[0.00499999989,0.0700000003,0.00499999989]},{"bufferView":41,"byteOffset":0,"componentType":5126,"count":1152,"type":"VEC3"},{"bufferView":42,"byteOffset":0,"componentType":5126,"count":1152,"type":"VEC2"},{"bufferView":47,"byteOffset":0,"componentType":5123,"count":1152,"type":"SCALAR"},{"bufferView":44,"byteOffset":0,"componentType":5126,"count":1152,"type":"VEC3","min":[-0.00499999989,0.0,-0.00499999989],"max":[0.00499999989,0.0700000003,0.00499999989]},{"bufferView":45,"byteOffset":0,"componentType":5126,"count":1152,"type":"VEC3"},{"bufferView":46,"byteOffset":0,"componentType":5126,"count":1152,"type":"VEC2"},{"bufferView":51,"byteOffset":0,"componentType":5123,"count":912,"type":"SCALAR"},{"bufferView":48,"byteOffset":0,"componentType":5126,"count":912,"type":"VEC3","min":[-0.0209999997,0.0,-0.0209999997],"max":[0.0209999997,1.27999997,0.0209999997]},{"bufferView":49,"byteOffset":0,"componentType":5126,"count":912,"type":"VEC3"},{"bufferView":50,"byteOffset":0,"componentType":5126,"count":912,"type":"VEC2"},{"bufferView":55,"byteOffset":0,"componentType":5123,"count":912,"type":"SCALAR"},{"bufferView":52,"byteOffset":0,"componentType":5126,"count":912,"type":"VEC3","min":[-0.0209999997,0.0,-0.0209999997],"max":[0.0209999997,1.27999997,0.0209999997]},{"bufferView":53,"byteOffset":0,"componentType":5126,"count":912,"type":"VEC3"},{"bufferView":54,"byteOffset":0,"componentType":5126,"count":912,"type":"VEC2"},{"bufferView":59,"byteOffset":0,"componentType":5123,"count":912,"type":"SCALAR"},{"bufferView":56,"byteOffset":0,"componentType":5126,"count":912,"type":"VEC3","min":[-0.0209999997,0.0,-0.0209999997],"max":[0.0209999997,1.27999997,0.0209999997]},{"bufferView":57,"byteOffset":0,"componentType":5126,"count":912,"type":"VEC3"},{"bufferView":58,"byteOffset":0,"componentType":5126,"count":912,"type":"VEC2"},{"bufferView":63,"byteOffset":0,"componentType":5123,"count":12132,"type":"SCALAR"},{"bufferView":60,"byteOffset":0,"componentType":5126,"count":12132,"type":"VEC3","min":[-0.275000006,-0.075000003,-0.173951462],"max":[0.275000006,0.075000003,0.173951462]},{"bufferView":61,"byteOffset":0,"componentType":5126,"count":12132,"type":"VEC3"},{"bufferView":62,"byteOffset":0,"componentType":5126,"count":12132,"type":"VEC2"},{"bufferView":67,"byteOffset":0,"componentType":5123,"count":3204,"type":"SCALAR"},{"bufferView":64,"byteOffset":0,"componentType":5126,"count":3204,"type":"VEC3","min":[-0.597500026,-0.119999997,-0.942499995],"max":[0.597500026,0.119999997,0.942499995]},{"bufferView":65,"byteOffset":0,"componentType":5126,"count":3204,"type":"VEC3"},{"bufferView":66,"byteOffset":0,"componentType":5126,"count":3204,"type":"VEC2"},{"bufferView":71,"byteOffset":0,"componentType":5123,"count":12132,"type":"SCALAR"},{"bufferView":68,"byteOffset":0,"componentType":5126,"count":12132,"type":"VEC3","min":[-0.275000006,-0.075000003,-0.173951462],"max":[0.275000006,0.075000003,0.173951462]},{"bufferView":69,"byteOffset":0,"componentType":5126,"count":12132,"type":"VEC3"},{"bufferView":70,"byteOffset":0,"componentType":5126,"count":12132,"type":"VEC2"},{"bufferView":75,"byteOffset":0,"componentType":5123,"count":912,"type":"SCALAR"},{"bufferView":72,"byteOffset":0,"componentType":5126,"count":912,"type":"VEC3","min":[-0.0209999997,0.0,-0.0209999997],"max":[0.0209999997,1.27999997,0.0209999997]},{"bufferView":73,"byteOffset":0,"componentType":5126,"count":912,"type":"VEC3"},{"bufferView":74,"byteOffset":0,"componentType":5126,"count":912,"type":"VEC2"},{"bufferView":79,"byteOffset":0,"componentType":5123,"count":1152,"type":"SCALAR"},{"bufferView":76,"byteOffset":0,"componentType":5126,"count":1152,"type":"VEC3","min":[-0.00499999989,0.0,-0.00499999989],"max":[0.00499999989,0.0700000003,0.00499999989]},{"bufferView":77,"byteOffset":0,"componentType":5126,"count":1152,"type":"VEC3"},{"bufferView":78,"byteOffset":0,"componentType":5126,"count":1152,"type":"VEC2"},{"bufferView":83,"byteOffset":0,"componentType":5123,"count":1254,"type":"SCALAR"},{"bufferView":80,"byteOffset":0,"componentType":5126,"count":1254,"type":"VEC3","min":[-0.0209999997,0.0,-0.0209999997],"max":[0.0209999997,0.680000007,0.0209999997]},{"bufferView":81,"byteOffset":0,"componentType":5126,"count":1254,"type":"VEC3"},{"bufferView":82,"byteOffset":0,"componentType":5126,"count":1254,"type":"VEC2"},{"bufferView":87,"byteOffset":0,"componentType":5123,"count":912,"type":"SCALAR"},{"bufferView":84,"byteOffset":0,"componentType":5126,"count":912,"type":"VEC3","min":[-0.0209999997,0.0,-0.0209999997],"max":[0.0209999997,1.27999997,0.0209999997]},{"bufferView":85,"byteOffset":0,"componentType":5126,"count":912,"type":"VEC3"},{"bufferView":86,"byteOffset":0,"componentType":5126,"count":912,"type":"VEC2"},{"bufferView":91,"byteOffset":0,"componentType":5123,"count":1152,"type":"SCALAR"},{"bufferView":88,"byteOffset":0,"componentType":5126,"count":1152,"type":"VEC3","min":[-0.00499999989,0.0,-0.00499999989],"max":[0.00499999989,0.0700000003,0.00499999989]},{"bufferView":89,"byteOffset":0,"componentType":5126,"count":1152,"type":"VEC3"},{"bufferView":90,"byteOffset":0,"componentType":5126,"count":1152,"type":"VEC2"},{"bufferView":95,"byteOffset":0,"componentType":5123,"count":912,"type":"SCALAR"},{"bufferView":92,"byteOffset":0,"componentType":5126,"count":912,"type":"VEC3","min":[-0.0209999997,0.0,-0.0209999997],"max":[0.0209999997,1.27999997,0.0209999997]},{"bufferView":93,"byteOffset":0,"componentType":5126,"count":912,"type":"VEC3"},{"bufferView":94,"byteOffset":0,"componentType":5126,"count":912,"type":"VEC2"},{"bufferView":99,"byteOffset":0,"componentType":5123,"count":1254,"type":"SCALAR"},{"bufferView":96,"byteOffset":0,"componentType":5126,"count":1254,"type":"VEC3","min":[-0.0209999997,0.0,-0.0209999997],"max":[0.0209999997,0.680000007,0.0209999997]},{"bufferView":97,"byteOffset":0,"componentType":5126,"count":1254,"type":"VEC3"},{"bufferView":98,"byteOffset":0,"componentType":5126,"count":1254,"type":"VEC2"},{"bufferView":103,"byteOffset":0,"componentType":5123,"count":5898,"type":"SCALAR"},{"bufferView":100,"byteOffset":0,"componentType":5126,"count":5898,"type":"VEC3","min":[-0.0209999997,0.0,-0.0209999997],"max":[0.0209999997,1.27999997,0.0209999997]},{"bufferView":101,"byteOffset":0,"componentType":5126,"count":5898,"type":"VEC3"},{"bufferView":102,"byteOffset":0,"componentType":5126,"count":5898,"type":"VEC2"},{"bufferView":107,"byteOffset":0,"componentType":5123,"count":954,"type":"SCALAR"},{"bufferView":104,"byteOffset":0,"componentType":5126,"count":954,"type":"VEC3","min":[-0.0209999997,-0.0199999996,-0.0209999997],"max":[0.0209999997,0.35800001,0.0209999997]},{"bufferView":105,"byteOffset":0,"componentType":5126,"count":954,"type":"VEC3"},{"bufferView":106,"byteOffset":0,"componentType":5126,"count":954,"type":"VEC2"},{"bufferView":111,"byteOffset":0,"componentType":5123,"count":1152,"type":"SCALAR"},{"bufferView":108,"byteOffset":0,"componentType":5126,"count":1152,"type":"VEC3","min":[-0.00499999989,0.0,-0.00499999989],"max":[0.00499999989,0.0700000003,0.00499999989]},{"bufferView":109,"byteOffset":0,"componentType":5126,"count":1152,"type":"VEC3"},{"bufferView":110,"byteOffset":0,"componentType":5126,"count":1152,"type":"VEC2"},{"bufferView":115,"byteOffset":0,"componentType":5123,"count":1152,"type":"SCALAR"},{"bufferView":112,"byteOffset":0,"componentType":5126,"count":1152,"type":"VEC3","min":[-0.00499999989,0.0,-0.00499999989],"max":[0.00499999989,0.0700000003,0.00499999989]},{"bufferView":113,"byteOffset":0,"componentType":5126,"count":1152,"type":"VEC3"},{"bufferView":114,"byteOffset":0,"componentType":5126,"count":1152,"type":"VEC2"},{"bufferView":119,"byteOffset":0,"componentType":5123,"count":1152,"type":"SCALAR"},{"bufferView":116,"byteOffset":0,"componentType":5126,"count":1152,"type":"VEC3","min":[-0.00499999989,0.0,-0.00499999989],"max":[0.00499999989,0.0700000003,0.00499999989]},{"bufferView":117,"byteOffset":0,"componentType":5126,"count":1152,"type":"VEC3"},{"bufferView":118,"byteOffset":0,"componentType":5126,"count":1152,"type":"VEC2"},{"bufferView":123,"byteOffset":0,"componentType":5123,"count":1152,"type":"SCALAR"},{"bufferView":120,"byteOffset":0,"componentType":5126,"count":1152,"type":"VEC3","min":[-0.00499999989,0.0,-0.00499999989],"max":[0.00499999989,0.0700000003,0.00499999989]},{"bufferView":121,"byteOffset":0,"componentType":5126,"count":1152,"type":"VEC3"},{"bufferView":122,"byteOffset":0,"componentType":5126,"count":1152,"type":"VEC2"},{"bufferView":127,"byteOffset":0,"componentType":5123,"count":954,"type":"SCALAR"},{"bufferView":124,"byteOffset":0,"componentType":5126,"count":954,"type":"VEC3","min":[-0.0209999997,-0.0199999996,-0.0209999997],"max":[0.0209999997,0.35800001,0.0209999997]},{"bufferView":125,"byteOffset":0,"componentType":5126,"count":954,"type":"VEC3"},{"bufferView":126,"byteOffset":0,"componentType":5126,"count":954,"type":"VEC2"},{"bufferView":131,"byteOffset":0,"componentType":5123,"count":954,"type":"SCALAR"},{"bufferView":128,"byteOffset":0,"componentType":5126,"count":954,"type":"VEC3","min":[-0.0209999997,-0.0199999996,-0.0209999997],"max":[0.0209999997,0.35800001,0.0209999997]},{"bufferView":129,"byteOffset":0,"componentType":5126,"count":954,"type":"VEC3"},{"bufferView":130,"byteOffset":0,"componentType":5126,"count":954,"type":"VEC2"},{"bufferView":135,"byteOffset":0,"componentType":5123,"count":954,"type":"SCALAR"},{"bufferView":132,"byteOffset":0,"componentType":5126,"count":954,"type":"VEC3","min":[-0.0209999997,-0.0199999996,-0.0209999997],"max":[0.0209999997,0.35800001,0.0209999997]},{"bufferView":133,"byteOffset":0,"componentType":5126,"count":954,"type":"VEC3"},{"bufferView":134,"byteOffset":0,"componentType":5126,"count":954,"type":"VEC2"},{"bufferView":139,"byteOffset":0,"componentType":5123,"count":954,"type":"SCALAR"},{"bufferView":136,"byteOffset":0,"componentType":5126,"count":954,"type":"VEC3","min":[-0.0209999997,-0.0199999996,-0.0209999997],"max":[0.0209999997,0.35800001,0.0209999997]},{"bufferView":137,"byteOffset":0,"componentType":5126,"count":954,"type":"VEC3"},{"bufferView":138,"byteOffset":0,"componentType":5126,"count":954,"type":"VEC2"},{"bufferView":143,"byteOffset":0,"componentType":5123,"count":954,"type":"SCALAR"},{"bufferView":140,"byteOffset":0,"componentType":5126,"count":954,"type":"VEC3","min":[-0.0209999997,-0.0199999996,-0.0209999997],"max":[0.0209999997,0.35800001,0.0209999997]},{"bufferView":141,"byteOffset":0,"componentType":5126,"count":954,"type":"VEC3"},{"bufferView":142,"byteOffset":0,"componentType":5126,"count":954,"type":"VEC2"},{"bufferView":147,"byteOffset":0,"componentType":5123,"count":954,"type":"SCALAR"},{"bufferView":144,"byteOffset":0,"componentType":5126,"count":954,"type":"VEC3","min":[-0.0209999997,-0.0199999996,-0.0209999997],"max":[0.0209999997,0.35800001,0.0209999997]},{"bufferView":145,"byteOffset":0,"componentType":5126,"count":954,"type":"VEC3"},{"bufferView":146,"byteOffset":0,"componentType":5126,"count":954,"type":"VEC2"},{"bufferView":151,"byteOffset":0,"componentType":5123,"count":954,"type":"SCALAR"},{"bufferView":148,"byteOffset":0,"componentType":5126,"count":954,"type":"VEC3","min":[-0.0209999997,-0.0199999996,-0.0209999997],"max":[0.0209999997,0.35800001,0.0209999997]},{"bufferView":149,"byteOffset":0,"componentType":5126,"count":954,"type":"VEC3"},{"bufferView":150,"byteOffset":0,"componentType":5126,"count":954,"type":"VEC2"},{"bufferView":155,"byteOffset":0,"componentType":5123,"count":954,"type":"SCALAR"},{"bufferView":152,"byteOffset":0,"componentType":5126,"count":954,"type":"VEC3","min":[-0.0209999997,-0.0199999996,-0.0209999997],"max":[0.0209999997,0.35800001,0.0209999997]},{"bufferView":153,"byteOffset":0,"componentType":5126,"count":954,"type":"VEC3"},{"bufferView":154,"byteOffset":0,"componentType":5126,"count":954,"type":"VEC2"},{"bufferView":159,"byteOffset":0,"componentType":5123,"count":954,"type":"SCALAR"},{"bufferView":156,"byteOffset":0,"componentType":5126,"count":954,"type":"VEC3","min":[-0.0209999997,-0.0199999996,-0.0209999997],"max":[0.0209999997,0.35800001,0.0209999997]},{"bufferView":157,"byteOffset":0,"componentType":5126,"count":954,"type":"VEC3"},{"bufferView":158,"byteOffset":0,"componentType":5126,"count":954,"type":"VEC2"},{"bufferView":163,"byteOffset":0,"componentType":5123,"count":954,"type":"SCALAR"},{"bufferView":160,"byteOffset":0,"componentType":5126,"count":954,"type":"VEC3","min":[-0.0209999997,-0.0199999996,-0.0209999997],"max":[0.0209999997,0.35800001,0.0209999997]},{"bufferView":161,"byteOffset":0,"componentType":5126,"count":954,"type":"VEC3"},{"bufferView":162,"byteOffset":0,"componentType":5126,"count":954,"type":"VEC2"},{"bufferView":167,"byteOffset":0,"componentType":5123,"count":954,"type":"SCALAR"},{"bufferView":164,"byteOffset":0,"componentType":5126,"count":954,"type":"VEC3","min":[-0.0209999997,-0.0199999996,-0.0209999997],"max":[0.0209999997,0.35800001,0.0209999997]},{"bufferView":165,"byteOffset":0,"componentType":5126,"count":954,"type":"VEC3"},{"bufferView":166,"byteOffset":0,"componentType":5126,"count":954,"type":"VEC2"},{"bufferView":171,"byteOffset":0,"componentType":5123,"count":954,"type":"SCALAR"},{"bufferView":168,"byteOffset":0,"componentType":5126,"count":954,"type":"VEC3","min":[-0.0209999997,-0.0199999996,-0.0209999997],"max":[0.0209999997,0.35800001,0.0209999997]},{"bufferView":169,"byteOffset":0,"componentType":5126,"count":954,"type":"VEC3"},{"bufferView":170,"byteOffset":0,"componentType":5126,"count":954,"type":"VEC2"},{"bufferView":175,"byteOffset":0,"componentType":5123,"count":954,"type":"SCALAR"},{"bufferView":172,"byteOffset":0,"componentType":5126,"count":954,"type":"VEC3","min":[-0.0209999997,-0.0199999996,-0.0209999997],"max":[0.0209999997,0.35800001,0.0209999997]},{"bufferView":173,"byteOffset":0,"componentType":5126,"count":954,"type":"VEC3"},{"bufferView":174,"byteOffset":0,"componentType":5126,"count":954,"type":"VEC2"},{"bufferView":179,"byteOffset":0,"componentType":5123,"count":954,"type":"SCALAR"},{"bufferView":176,"byteOffset":0,"componentType":5126,"count":954,"type":"VEC3","min":[-0.0209999997,-0.0199999996,-0.0209999997],"max":[0.0209999997,0.35800001,0.0209999997]},{"bufferView":177,"byteOffset":0,"componentType":5126,"count":954,"type":"VEC3"},{"bufferView":178,"byteOffset":0,"componentType":5126,"count":954,"type":"VEC2"},{"bufferView":183,"byteOffset":0,"componentType":5123,"count":954,"type":"SCALAR"},{"bufferView":180,"byteOffset":0,"componentType":5126,"count":954,"type":"VEC3","min":[-0.0209999997,-0.0199999996,-0.0209999997],"max":[0.0209999997,0.35800001,0.0209999997]},{"bufferView":181,"byteOffset":0,"componentType":5126,"count":954,"type":"VEC3"},{"bufferView":182,"byteOffset":0,"componentType":5126,"count":954,"type":"VEC2"},{"bufferView":187,"byteOffset":0,"componentType":5123,"count":5676,"type":"SCALAR"},{"bufferView":184,"byteOffset":0,"componentType":5126,"count":5676,"type":"VEC3","min":[-6.00000316e-09,-1.73472348e-18,-0.197957456],"max":[0.197957456,0.0419999994,3.30872245e-24]},{"bufferView":185,"byteOffset":0,"componentType":5126,"count":5676,"type":"VEC3"},{"bufferView":186,"byteOffset":0,"componentType":5126,"count":5676,"type":"VEC2"},{"bufferView":191,"byteOffset":0,"componentType":5123,"count":5676,"type":"SCALAR"},{"bufferView":188,"byteOffset":0,"componentType":5126,"count":5676,"type":"VEC3","min":[-6.00000316e-09,-1.73472348e-18,-0.197957456],"max":[0.197957456,0.0419999994,3.30872245e-24]},{"bufferView":189,"byteOffset":0,"componentType":5126,"count":5676,"type":"VEC3"},{"bufferView":190,"byteOffset":0,"componentType":5126,"count":5676,"type":"VEC2"},{"bufferView":195,"byteOffset":0,"componentType":5123,"count":5676,"type":"SCALAR"},{"bufferView":192,"byteOffset":0,"componentType":5126,"count":5676,"type":"VEC3","min":[-6.00000316e-09,-1.73472348e-18,-0.197957456],"max":[0.197957456,0.0419999994,3.30872245e-24]},{"bufferView":193,"byteOffset":0,"componentType":5126,"count":5676,"type":"VEC3"},{"bufferView":194,"byteOffset":0,"componentType":5126,"count":5676,"type":"VEC2"},{"bufferView":199,"byteOffset":0,"componentType":5123,"count":5676,"type":"SCALAR"},{"bufferView":196,"byteOffset":0,"componentType":5126,"count":5676,"type":"VEC3","min":[-6.00000316e-09,-1.73472348e-18,-0.197957456],"max":[0.197957456,0.0419999994,3.30872245e-24]},{"bufferView":197,"byteOffset":0,"componentType":5126,"count":5676,"type":"VEC3"},{"bufferView":198,"byteOffset":0,"componentType":5126,"count":5676,"type":"VEC2"},{"bufferView":203,"byteOffset":0,"componentType":5123,"count":324,"type":"SCALAR"},{"bufferView":200,"byteOffset":0,"componentType":5126,"count":324,"type":"VEC3","min":[-0.0209999997,0.0,-0.0209999997],"max":[0.0209999997,1.94000006,0.0209999997]},{"bufferView":201,"byteOffset":0,"componentType":5126,"count":324,"type":"VEC3"},{"bufferView":202,"byteOffset":0,"componentType":5126,"count":324,"type":"VEC2"},{"bufferView":207,"byteOffset":0,"componentType":5123,"count":324,"type":"SCALAR"},{"bufferView":204,"byteOffset":0,"componentType":5126,"count":324,"type":"VEC3","min":[-0.0209999997,0.0,-0.0209999997],"max":[0.0209999997,1.94000006,0.0209999997]},{"bufferView":205,"byteOffset":0,"componentType":5126,"count":324,"type":"VEC3"},{"bufferView":206,"byteOffset":0,"componentType":5126,"count":324,"type":"VEC2"},{"bufferView":211,"byteOffset":0,"componentType":5123,"count":324,"type":"SCALAR"},{"bufferView":208,"byteOffset":0,"componentType":5126,"count":324,"type":"VEC3","min":[-0.0209999997,0.0,-0.0209999997],"max":[0.0209999997,1.94000006,0.0209999997]},{"bufferView":209,"byteOffset":0,"componentType":5126,"count":324,"type":"VEC3"},{"bufferView":210,"byteOffset":0,"componentType":5126,"count":324,"type":"VEC2"}],"materials":[{"pbrMetallicRoughness":{"baseColorFactor":[0.151467,0.151467,0.151467,1],"metallicFactor":0.0,"roughnessFactor":0.9}},{"name":"color","pbrMetallicRoughness":{"baseColorFactor":[0.392169,0.322963,0.244529,1],"metallicFactor":0.0,"roughnessFactor":0.9}},{"name":"color-10","pbrMetallicRoughness":{"baseColorFactor":[0.343809,0.253934,0.142659,1],"metallicFactor":0.0,"roughnessFactor":0.9}},{"name":"color-11","pbrMetallicRoughness":{"baseColorFactor":[0.152661,0.152661,0.152661,1],"metallicFactor":0.0,"roughnessFactor":0.9}},{"name":"color-8","pbrMetallicRoughness":{"baseColorFactor":[0.4224,0.4224,0.318042,1],"metallicFactor":0.0,"roughnessFactor":0.9}},{"name":"color-5","pbrMetallicRoughness":{"baseColorFactor":[0.392169,0.322963,0.244529,1],"metallicFactor":0.0,"roughnessFactor":0.9}},{"name":"color-7","pbrMetallicRoughness":{"baseColorFactor":[0.392169,0.322963,0.244529,1],"metallicFactor":0.0,"roughnessFactor":0.9}},{"name":"color-6","pbrMetallicRoughness":{"baseColorFactor":[0.135868,0.135868,0.135868,1],"metallicFactor":0.0,"roughnessFactor":0.9}},{"name":"color-2","pbrMetallicRoughness":{"baseColorFactor":[0.278467,0.278467,0.278467,1],"metallicFactor":0.0,"roughnessFactor":0.9}},{"name":"color-3","pbrMetallicRoughness":{"baseColorFactor":[0.392169,0.322963,0.244529,1],"metallicFactor":0.0,"roughnessFactor":0.9}},{"name":"color-1","pbrMetallicRoughness":{"baseColorFactor":[0.392169,0.322963,0.244529,1],"metallicFactor":0.0,"roughnessFactor":0.9}},{"name":"color-4","pbrMetallicRoughness":{"baseColorFactor":[0.392169,0.322963,0.244529,1],"metallicFactor":0.0,"roughnessFactor":0.9}},{"name":"color-9","pbrMetallicRoughness":{"baseColorFactor":[0.119075,0.119075,0.119075,1],"metallicFactor":0.0,"roughnessFactor":0.9}}],"bufferViews":[{"buffer":0,"byteOffset":0,"byteLength":3888,"byteStride":12,"target":34962},{"buffer":0,"byteOffset":3888,"byteLength":3888,"byteStride":12,"target":34962},{"buffer":0,"byteOffset":7776,"byteLength":2592,"byteStride":8,"target":34962},{"buffer":0,"byteOffset":10368,"byteLength":648,"target":34963},{"buffer":1,"byteOffset":0,"byteLength":3888,"byteStride":12,"target":34962},{"buffer":1,"byteOffset":3888,"byteLength":3888,"byteStride":12,"target":34962},{"buffer":1,"byteOffset":7776,"byteLength":2592,"byteStride":8,"target":34962},{"buffer":1,"byteOffset":10368,"byteLength":648,"target":34963},{"buffer":2,"byteOffset":0,"byteLength":3888,"byteStride":12,"target":34962},{"buffer":2,"byteOffset":3888,"byteLength":3888,"byteStride":12,"target":34962},{"buffer":2,"byteOffset":7776,"byteLength":2592,"byteStride":8,"target":34962},{"buffer":2,"byteOffset":10368,"byteLength":648,"target":34963},{"buffer":3,"byteOffset":0,"byteLength":60912,"byteStride":12,"target":34962},{"buffer":3,"byteOffset":60912,"byteLength":60912,"byteStride":12,"target":34962},{"buffer":3,"byteOffset":121824,"byteLength":40608,"byteStride":8,"target":34962},{"buffer":3,"byteOffset":162432,"byteLength":10152,"target":34963},{"buffer":4,"byteOffset":0,"byteLength":13824,"byteStride":12,"target":34962},{"buffer":4,"byteOffset":13824,"byteLength":13824,"byteStride":12,"target":34962},{"buffer":4,"byteOffset":27648,"byteLength":9216,"byteStride":8,"target":34962},{"buffer":4,"byteOffset":36864,"byteLength":2304,"target":34963},{"buffer":5,"byteOffset":0,"byteLength":13824,"byteStride":12,"target":34962},{"buffer":5,"byteOffset":13824,"byteLength":13824,"byteStride":12,"target":34962},{"buffer":5,"byteOffset":27648,"byteLength":9216,"byteStride":8,"target":34962},{"buffer":5,"byteOffset":36864,"byteLength":2304,"target":34963},{"buffer":6,"byteOffset":0,"byteLength":13824,"byteStride":12,"target":34962},{"buffer":6,"byteOffset":13824,"byteLength":13824,"byteStride":12,"target":34962},{"buffer":6,"byteOffset":27648,"byteLength":9216,"byteStride":8,"target":34962},{"buffer":6,"byteOffset":36864,"byteLength":2304,"target":34963},{"buffer":7,"byteOffset":0,"byteLength":13824,"byteStride":12,"target":34962},{"buffer":7,"byteOffset":13824,"byteLength":13824,"byteStride":12,"target":34962},{"buffer":7,"byteOffset":27648,"byteLength":9216,"byteStride":8,"target":34962},{"buffer":7,"byteOffset":36864,"byteLength":2304,"target":34963},{"buffer":8,"byteOffset":0,"byteLength":15624,"byteStride":12,"target":34962},{"buffer":8,"byteOffset":15624,"byteLength":15624,"byteStride":12,"target":34962},{"buffer":8,"byteOffset":31248,"byteLength":10416,"byteStride":8,"target":34962},{"buffer":8,"byteOffset":41664,"byteLength":2604,"target":34963},{"buffer":9,"byteOffset":0,"byteLength":15624,"byteStride":12,"target":34962},{"buffer":9,"byteOffset":15624,"byteLength":15624,"byteStride":12,"target":34962},{"buffer":9,"byteOffset":31248,"byteLength":10416,"byteStride":8,"target":34962},{"buffer":9,"byteOffset":41664,"byteLength":2604,"target":34963},{"buffer":10,"byteOffset":0,"byteLength":13824,"byteStride":12,"target":34962},{"buffer":10,"byteOffset":13824,"byteLength":13824,"byteStride":12,"target":34962},{"buffer":10,"byteOffset":27648,"byteLength":9216,"byteStride":8,"target":34962},{"buffer":10,"byteOffset":36864,"byteLength":2304,"target":34963},{"buffer":11,"byteOffset":0,"byteLength":13824,"byteStride":12,"target":34962},{"buffer":11,"byteOffset":13824,"byteLength":13824,"byteStride":12,"target":34962},{"buffer":11,"byteOffset":27648,"byteLength":9216,"byteStride":8,"target":34962},{"buffer":11,"byteOffset":36864,"byteLength":2304,"target":34963},{"buffer":12,"byteOffset":0,"byteLength":10944,"byteStride":12,"target":34962},{"buffer":12,"byteOffset":10944,"byteLength":10944,"byteStride":12,"target":34962},{"buffer":12,"byteOffset":21888,"byteLength":7296,"byteStride":8,"target":34962},{"buffer":12,"byteOffset":29184,"byteLength":1824,"target":34963},{"buffer":13,"byteOffset":0,"byteLength":10944,"byteStride":12,"target":34962},{"buffer":13,"byteOffset":10944,"byteLength":10944,"byteStride":12,"target":34962},{"buffer":13,"byteOffset":21888,"byteLength":7296,"byteStride":8,"target":34962},{"buffer":13,"byteOffset":29184,"byteLength":1824,"target":34963},{"buffer":14,"byteOffset":0,"byteLength":10944,"byteStride":12,"target":34962},{"buffer":14,"byteOffset":10944,"byteLength":10944,"byteStride":12,"target":34962},{"buffer":14,"byteOffset":21888,"byteLength":7296,"byteStride":8,"target":34962},{"buffer":14,"byteOffset":29184,"byteLength":1824,"target":34963},{"buffer":15,"byteOffset":0,"byteLength":145584,"byteStride":12,"target":34962},{"buffer":15,"byteOffset":145584,"byteLength":145584,"byteStride":12,"target":34962},{"buffer":15,"byteOffset":291168,"byteLength":97056,"byteStride":8,"target":34962},{"buffer":15,"byteOffset":388224,"byteLength":24264,"target":34963},{"buffer":16,"byteOffset":0,"byteLength":38448,"byteStride":12,"target":34962},{"buffer":16,"byteOffset":38448,"byteLength":38448,"byteStride":12,"target":34962},{"buffer":16,"byteOffset":76896,"byteLength":25632,"byteStride":8,"target":34962},{"buffer":16,"byteOffset":102528,"byteLength":6408,"target":34963},{"buffer":17,"byteOffset":0,"byteLength":145584,"byteStride":12,"target":34962},{"buffer":17,"byteOffset":145584,"byteLength":145584,"byteStride":12,"target":34962},{"buffer":17,"byteOffset":291168,"byteLength":97056,"byteStride":8,"target":34962},{"buffer":17,"byteOffset":388224,"byteLength":24264,"target":34963},{"buffer":18,"byteOffset":0,"byteLength":10944,"byteStride":12,"target":34962},{"buffer":18,"byteOffset":10944,"byteLength":10944,"byteStride":12,"target":34962},{"buffer":18,"byteOffset":21888,"byteLength":7296,"byteStride":8,"target":34962},{"buffer":18,"byteOffset":29184,"byteLength":1824,"target":34963},{"buffer":19,"byteOffset":0,"byteLength":13824,"byteStride":12,"target":34962},{"buffer":19,"byteOffset":13824,"byteLength":13824,"byteStride":12,"target":34962},{"buffer":19,"byteOffset":27648,"byteLength":9216,"byteStride":8,"target":34962},{"buffer":19,"byteOffset":36864,"byteLength":2304,"target":34963},{"buffer":20,"byteOffset":0,"byteLength":15048,"byteStride":12,"target":34962},{"buffer":20,"byteOffset":15048,"byteLength":15048,"byteStride":12,"target":34962},{"buffer":20,"byteOffset":30096,"byteLength":10032,"byteStride":8,"target":34962},{"buffer":20,"byteOffset":40128,"byteLength":2508,"target":34963},{"buffer":21,"byteOffset":0,"byteLength":10944,"byteStride":12,"target":34962},{"buffer":21,"byteOffset":10944,"byteLength":10944,"byteStride":12,"target":34962},{"buffer":21,"byteOffset":21888,"byteLength":7296,"byteStride":8,"target":34962},{"buffer":21,"byteOffset":29184,"byteLength":1824,"target":34963},{"buffer":22,"byteOffset":0,"byteLength":13824,"byteStride":12,"target":34962},{"buffer":22,"byteOffset":13824,"byteLength":13824,"byteStride":12,"target":34962},{"buffer":22,"byteOffset":27648,"byteLength":9216,"byteStride":8,"target":34962},{"buffer":22,"byteOffset":36864,"byteLength":2304,"target":34963},{"buffer":23,"byteOffset":0,"byteLength":10944,"byteStride":12,"target":34962},{"buffer":23,"byteOffset":10944,"byteLength":10944,"byteStride":12,"target":34962},{"buffer":23,"byteOffset":21888,"byteLength":7296,"byteStride":8,"target":34962},{"buffer":23,"byteOffset":29184,"byteLength":1824,"target":34963},{"buffer":24,"byteOffset":0,"byteLength":15048,"byteStride":12,"target":34962},{"buffer":24,"byteOffset":15048,"byteLength":15048,"byteStride":12,"target":34962},{"buffer":24,"byteOffset":30096,"byteLength":10032,"byteStride":8,"target":34962},{"buffer":24,"byteOffset":40128,"byteLength":2508,"target":34963},{"buffer":25,"byteOffset":0,"byteLength":70776,"byteStride":12,"target":34962},{"buffer":25,"byteOffset":70776,"byteLength":70776,"byteStride":12,"target":34962},{"buffer":25,"byteOffset":141552,"byteLength":47184,"byteStride":8,"target":34962},{"buffer":25,"byteOffset":188736,"byteLength":11796,"target":34963},{"buffer":26,"byteOffset":0,"byteLength":11448,"byteStride":12,"target":34962},{"buffer":26,"byteOffset":11448,"byteLength":11448,"byteStride":12,"target":34962},{"buffer":26,"byteOffset":22896,"byteLength":7632,"byteStride":8,"target":34962},{"buffer":26,"byteOffset":30528,"byteLength":1908,"target":34963},{"buffer":27,"byteOffset":0,"byteLength":13824,"byteStride":12,"target":34962},{"buffer":27,"byteOffset":13824,"byteLength":13824,"byteStride":12,"target":34962},{"buffer":27,"byteOffset":27648,"byteLength":9216,"byteStride":8,"target":34962},{"buffer":27,"byteOffset":36864,"byteLength":2304,"target":34963},{"buffer":28,"byteOffset":0,"byteLength":13824,"byteStride":12,"target":34962},{"buffer":28,"byteOffset":13824,"byteLength":13824,"byteStride":12,"target":34962},{"buffer":28,"byteOffset":27648,"byteLength":9216,"byteStride":8,"target":34962},{"buffer":28,"byteOffset":36864,"byteLength":2304,"target":34963},{"buffer":29,"byteOffset":0,"byteLength":13824,"byteStride":12,"target":34962},{"buffer":29,"byteOffset":13824,"byteLength":13824,"byteStride":12,"target":34962},{"buffer":29,"byteOffset":27648,"byteLength":9216,"byteStride":8,"target":34962},{"buffer":29,"byteOffset":36864,"byteLength":2304,"target":34963},{"buffer":30,"byteOffset":0,"byteLength":13824,"byteStride":12,"target":34962},{"buffer":30,"byteOffset":13824,"byteLength":13824,"byteStride":12,"target":34962},{"buffer":30,"byteOffset":27648,"byteLength":9216,"byteStride":8,"target":34962},{"buffer":30,"byteOffset":36864,"byteLength":2304,"target":34963},{"buffer":31,"byteOffset":0,"byteLength":11448,"byteStride":12,"target":34962},{"buffer":31,"byteOffset":11448,"byteLength":11448,"byteStride":12,"target":34962},{"buffer":31,"byteOffset":22896,"byteLength":7632,"byteStride":8,"target":34962},{"buffer":31,"byteOffset":30528,"byteLength":1908,"target":34963},{"buffer":32,"byteOffset":0,"byteLength":11448,"byteStride":12,"target":34962},{"buffer":32,"byteOffset":11448,"byteLength":11448,"byteStride":12,"target":34962},{"buffer":32,"byteOffset":22896,"byteLength":7632,"byteStride":8,"target":34962},{"buffer":32,"byteOffset":30528,"byteLength":1908,"target":34963},{"buffer":33,"byteOffset":0,"byteLength":11448,"byteStride":12,"target":34962},{"buffer":33,"byteOffset":11448,"byteLength":11448,"byteStride":12,"target":34962},{"buffer":33,"byteOffset":22896,"byteLength":7632,"byteStride":8,"target":34962},{"buffer":33,"byteOffset":30528,"byteLength":1908,"target":34963},{"buffer":34,"byteOffset":0,"byteLength":11448,"byteStride":12,"target":34962},{"buffer":34,"byteOffset":11448,"byteLength":11448,"byteStride":12,"target":34962},{"buffer":34,"byteOffset":22896,"byteLength":7632,"byteStride":8,"target":34962},{"buffer":34,"byteOffset":30528,"byteLength":1908,"target":34963},{"buffer":35,"byteOffset":0,"byteLength":11448,"byteStride":12,"target":34962},{"buffer":35,"byteOffset":11448,"byteLength":11448,"byteStride":12,"target":34962},{"buffer":35,"byteOffset":22896,"byteLength":7632,"byteStride":8,"target":34962},{"buffer":35,"byteOffset":30528,"byteLength":1908,"target":34963},{"buffer":36,"byteOffset":0,"byteLength":11448,"byteStride":12,"target":34962},{"buffer":36,"byteOffset":11448,"byteLength":11448,"byteStride":12,"target":34962},{"buffer":36,"byteOffset":22896,"byteLength":7632,"byteStride":8,"target":34962},{"buffer":36,"byteOffset":30528,"byteLength":1908,"target":34963},{"buffer":37,"byteOffset":0,"byteLength":11448,"byteStride":12,"target":34962},{"buffer":37,"byteOffset":11448,"byteLength":11448,"byteStride":12,"target":34962},{"buffer":37,"byteOffset":22896,"byteLength":7632,"byteStride":8,"target":34962},{"buffer":37,"byteOffset":30528,"byteLength":1908,"target":34963},{"buffer":38,"byteOffset":0,"byteLength":11448,"byteStride":12,"target":34962},{"buffer":38,"byteOffset":11448,"byteLength":11448,"byteStride":12,"target":34962},{"buffer":38,"byteOffset":22896,"byteLength":7632,"byteStride":8,"target":34962},{"buffer":38,"byteOffset":30528,"byteLength":1908,"target":34963},{"buffer":39,"byteOffset":0,"byteLength":11448,"byteStride":12,"target":34962},{"buffer":39,"byteOffset":11448,"byteLength":11448,"byteStride":12,"target":34962},{"buffer":39,"byteOffset":22896,"byteLength":7632,"byteStride":8,"target":34962},{"buffer":39,"byteOffset":30528,"byteLength":1908,"target":34963},{"buffer":40,"byteOffset":0,"byteLength":11448,"byteStride":12,"target":34962},{"buffer":40,"byteOffset":11448,"byteLength":11448,"byteStride":12,"target":34962},{"buffer":40,"byteOffset":22896,"byteLength":7632,"byteStride":8,"target":34962},{"buffer":40,"byteOffset":30528,"byteLength":1908,"target":34963},{"buffer":41,"byteOffset":0,"byteLength":11448,"byteStride":12,"target":34962},{"buffer":41,"byteOffset":11448,"byteLength":11448,"byteStride":12,"target":34962},{"buffer":41,"byteOffset":22896,"byteLength":7632,"byteStride":8,"target":34962},{"buffer":41,"byteOffset":30528,"byteLength":1908,"target":34963},{"buffer":42,"byteOffset":0,"byteLength":11448,"byteStride":12,"target":34962},{"buffer":42,"byteOffset":11448,"byteLength":11448,"byteStride":12,"target":34962},{"buffer":42,"byteOffset":22896,"byteLength":7632,"byteStride":8,"target":34962},{"buffer":42,"byteOffset":30528,"byteLength":1908,"target":34963},{"buffer":43,"byteOffset":0,"byteLength":11448,"byteStride":12,"target":34962},{"buffer":43,"byteOffset":11448,"byteLength":11448,"byteStride":12,"target":34962},{"buffer":43,"byteOffset":22896,"byteLength":7632,"byteStride":8,"target":34962},{"buffer":43,"byteOffset":30528,"byteLength":1908,"target":34963},{"buffer":44,"byteOffset":0,"byteLength":11448,"byteStride":12,"target":34962},{"buffer":44,"byteOffset":11448,"byteLength":11448,"byteStride":12,"target":34962},{"buffer":44,"byteOffset":22896,"byteLength":7632,"byteStride":8,"target":34962},{"buffer":44,"byteOffset":30528,"byteLength":1908,"target":34963},{"buffer":45,"byteOffset":0,"byteLength":11448,"byteStride":12,"target":34962},{"buffer":45,"byteOffset":11448,"byteLength":11448,"byteStride":12,"target":34962},{"buffer":45,"byteOffset":22896,"byteLength":7632,"byteStride":8,"target":34962},{"buffer":45,"byteOffset":30528,"byteLength":1908,"target":34963},{"buffer":46,"byteOffset":0,"byteLength":68112,"byteStride":12,"target":34962},{"buffer":46,"byteOffset":68112,"byteLength":68112,"byteStride":12,"target":34962},{"buffer":46,"byteOffset":136224,"byteLength":45408,"byteStride":8,"target":34962},{"buffer":46,"byteOffset":181632,"byteLength":11352,"target":34963},{"buffer":47,"byteOffset":0,"byteLength":68112,"byteStride":12,"target":34962},{"buffer":47,"byteOffset":68112,"byteLength":68112,"byteStride":12,"target":34962},{"buffer":47,"byteOffset":136224,"byteLength":45408,"byteStride":8,"target":34962},{"buffer":47,"byteOffset":181632,"byteLength":11352,"target":34963},{"buffer":48,"byteOffset":0,"byteLength":68112,"byteStride":12,"target":34962},{"buffer":48,"byteOffset":68112,"byteLength":68112,"byteStride":12,"target":34962},{"buffer":48,"byteOffset":136224,"byteLength":45408,"byteStride":8,"target":34962},{"buffer":48,"byteOffset":181632,"byteLength":11352,"target":34963},{"buffer":49,"byteOffset":0,"byteLength":68112,"byteStride":12,"target":34962},{"buffer":49,"byteOffset":68112,"byteLength":68112,"byteStride":12,"target":34962},{"buffer":49,"byteOffset":136224,"byteLength":45408,"byteStride":8,"target":34962},{"buffer":49,"byteOffset":181632,"byteLength":11352,"target":34963},{"buffer":50,"byteOffset":0,"byteLength":3888,"byteStride":12,"target":34962},{"buffer":50,"byteOffset":3888,"byteLength":3888,"byteStride":12,"target":34962},{"buffer":50,"byteOffset":7776,"byteLength":2592,"byteStride":8,"target":34962},{"buffer":50,"byteOffset":10368,"byteLength":648,"target":34963},{"buffer":51,"byteOffset":0,"byteLength":3888,"byteStride":12,"target":34962},{"buffer":51,"byteOffset":3888,"byteLength":3888,"byteStride":12,"target":34962},{"buffer":51,"byteOffset":7776,"byteLength":2592,"byteStride":8,"target":34962},{"buffer":51,"byteOffset":10368,"byteLength":648,"target":34963},{"buffer":52,"byteOffset":0,"byteLength":3888,"byteStride":12,"target":34962},{"buffer":52,"byteOffset":3888,"byteLength":3888,"byteStride":12,"target":34962},{"buffer":52,"byteOffset":7776,"byteLength":2592,"byteStride":8,"target":34962},{"buffer":52,"byteOffset":10368,"byteLength":648,"target":34963}],"buffers":[{"byteLength":11016,"uri":"Trave_190-1.bin"},{"byteLength":11016,"uri":"Trave_190-2.bin"},{"byteLength":11016,"uri":"Trave_190-3.bin"},{"byteLength":172584,"uri":"Rete-1.bin"},{"byteLength":39168,"uri":"Spina-6.bin"},{"byteLength":39168,"uri":"Spina-4.bin"},{"byteLength":39168,"uri":"Spina-3.bin"},{"byteLength":39168,"uri":"Spina-5.bin"},{"byteLength":44268,"uri":"Trave_50-1.bin"},{"byteLength":44268,"uri":"Trave_50-2.bin"},{"byteLength":39168,"uri":"Spina-1.bin"},{"byteLength":39168,"uri":"Spina-2.bin"},{"byteLength":31008,"uri":"Trave_120-2.bin"},{"byteLength":31008,"uri":"Trave_120-3.bin"},{"byteLength":31008,"uri":"Trave_120-1.bin"},{"byteLength":412488,"uri":"Cuscino-2.bin"},{"byteLength":108936,"uri":"Materasso-1.bin"},{"byteLength":412488,"uri":"Cuscino-1.bin"},{"byteLength":31008,"uri":"Trave_120-3-1.bin"},{"byteLength":39168,"uri":"Spina-2-1.bin"},{"byteLength":42636,"uri":"Trave_80-1.bin"},{"byteLength":31008,"uri":"Trave_120-2-1.bin"},{"byteLength":39168,"uri":"Spina-1-1.bin"},{"byteLength":31008,"uri":"Trave_120-1-1.bin"},{"byteLength":42636,"uri":"Trave_80-2.bin"},{"byteLength":200532,"uri":"Trave_120_forata-4.bin"},{"byteLength":32436,"uri":"Trave_60-1.bin"},{"byteLength":39168,"uri":"Spina-4-1.bin"},{"byteLength":39168,"uri":"Spina-3-1.bin"},{"byteLength":39168,"uri":"Spina-5-1.bin"},{"byteLength":39168,"uri":"Spina-6-1.bin"},{"byteLength":32436,"uri":"Trave_60-16.bin"},{"byteLength":32436,"uri":"Trave_60-9.bin"},{"byteLength":32436,"uri":"Trave_60-11.bin"},{"byteLength":32436,"uri":"Trave_60-15.bin"},{"byteLength":32436,"uri":"Trave_60-8.bin"},{"byteLength":32436,"uri":"Trave_60-14.bin"},{"byteLength":32436,"uri":"Trave_60-10.bin"},{"byteLength":32436,"uri":"Trave_60-12.bin"},{"byteLength":32436,"uri":"Trave_60-13.bin"},{"byteLength":32436,"uri":"Trave_60-4.bin"},{"byteLength":32436,"uri":"Trave_60-5.bin"},{"byteLength":32436,"uri":"Trave_60-2.bin"},{"byteLength":32436,"uri":"Trave_60-6.bin"},{"byteLength":32436,"uri":"Trave_60-7.bin"},{"byteLength":32436,"uri":"Trave_60-3.bin"},{"byteLength":192984,"uri":"Staffa-8.bin"},{"byteLength":192984,"uri":"Staffa-10.bin"},{"byteLength":192984,"uri":"Staffa-9.bin"},{"byteLength":192984,"uri":"Staffa-2.bin"},{"byteLength":11016,"uri":"Trave_190-1-1.bin"},{"byteLength":11016,"uri":"Trave_190-2-1.bin"},{"byteLength":11016,"uri":"Trave_190-3-1.bin"}]}