{"asset":{"generator":"SOLIDWORKSGLTF","version":"2.0","extras":{"siteFinish":"matte-v1","siteTone":"tone-v1"}},"extensionsUsed":["KHR_lights_punctual","Solidworks_custom_properties"],"scene":0,"scenes":[{"name":"Default - <Default>_Stato di visualizzazione 1","nodes":[0,1]}],"nodes":[{"matrix":[0.677707,0.038115,0.734343,0,0.0732564,0.990188,-0.119001,0,-0.731674,0.134443,0.668266,0,-1.56123,0.373438,1.41212,1],"camera":0,"name":"current"},{"mesh":0,"name":"Mole Antonelliana.SLDPRT"}],"cameras":[{"type":"orthographic","orthographic":{"xmag":1,"ymag":1,"zfar":100,"znear":0.01}}],"meshes":[{"primitives":[{"attributes":{"POSITION":1,"NORMAL":2,"TEXCOORD_0":3},"indices":0,"mode":4,"material":1}]}],"accessors":[{"bufferView":3,"byteOffset":0,"componentType":5123,"count":46740,"type":"SCALAR"},{"bufferView":0,"byteOffset":0,"componentType":5126,"count":46740,"type":"VEC3","min":[-0.0370000005,0.0,-0.0295441765],"max":[0.0370000005,0.198823497,0.0365441777]},{"bufferView":1,"byteOffset":0,"componentType":5126,"count":46740,"type":"VEC3"},{"bufferView":2,"byteOffset":0,"componentType":5126,"count":46740,"type":"VEC2"}],"materials":[{"pbrMetallicRoughness":{"baseColorFactor":[0.336883,0.336883,0.336883,1],"metallicFactor":0.0,"roughnessFactor":0.9}},{"name":"color","pbrMetallicRoughness":{"baseColorFactor":[0.558989,0.558989,0.558989,1],"metallicFactor":0.0,"roughnessFactor":0.9}}],"bufferViews":[{"buffer":0,"byteOffset":0,"byteLength":560880,"byteStride":12,"target":34962},{"buffer":0,"byteOffset":560880,"byteLength":560880,"byteStride":12,"target":34962},{"buffer":0,"byteOffset":1121760,"byteLength":373920,"byteStride":8,"target":34962},{"buffer":0,"byteOffset":1495680,"byteLength":93480,"target":34963}],"buffers":[{"byteLength":1589160,"uri":"Mole_Antonelliana.SLDPRT.bin"}]}