{"asset":{"generator":"SOLIDWORKSGLTF","version":"2.0","extras":{"siteFinish":"matte-v1","siteTone":"tone-v1"}},"extensionsUsed":["KHR_lights_punctual","Solidworks_custom_properties"],"scene":0,"scenes":[{"name":"Default - Stato di visualizzazione-1","nodes":[0,1]}],"nodes":[{"matrix":[0.988181,0.0146752,0.152591,0,0.0380463,0.940783,-0.336867,0,-0.148498,0.338691,0.929105,0,-0.578155,1.28652,3.35555,1],"camera":0,"name":"current"},{"children":[2,3,4,5,6,7,8,9,10,11,12,13,14,15,16],"name":"CV joint1"},{"matrix":[1,-8.32667e-17,-5.55112e-17,0,-5.55112e-17,-6.95521e-15,-1,0,8.32667e-17,1,-6.95521e-15,0,5.4956e-19,-0.03,2.09489e-16,1],"mesh":0,"name":"Ball1-4"},{"matrix":[1,-6.4407e-18,9.98667e-17,0,-5.55112e-17,-0.866025,0.5,0,8.32667e-17,-0.5,-0.866025,0,5.4956e-19,0.015,0.0259808,1],"mesh":1,"name":"Ball1-6"},{"matrix":[1,6.4407e-18,-9.98667e-17,0,-5.55112e-17,0.866025,-0.5,0,8.32667e-17,0.5,0.866025,0,5.4956e-19,-0.015,-0.0259808,1],"mesh":2,"name":"Ball1-3"},{"matrix":[1,-8.97074e-17,4.43555e-17,0,-5.55112e-17,-0.866025,-0.5,0,8.32667e-17,0.5,-0.866025,0,5.4956e-19,-0.015,0.0259808,1],"mesh":3,"name":"Ball1-5"},{"matrix":[1,8.97074e-17,-4.43555e-17,0,-5.55112e-17,0.866025,0.5,0,8.32667e-17,-0.5,0.866025,0,5.4956e-19,0.015,-0.0259808,1],"mesh":4,"name":"Ball1-2"},{"matrix":[1,0,0,0,0,1,0,0,0,0,1,0,-0.0192,-4.1196e-19,6.09898e-25,1],"mesh":5,"name":"Input_shaft1-1"},{"matrix":[3.17655e-23,-2.03637e-22,1,0,-1.11022e-16,1,2.03637e-22,0,-1,-1.11022e-16,3.17655e-23,0,0.0124082,3.03577e-18,-3.94155e-25,1],"mesh":6,"name":"circlip for shafts normal_din-3"},{"mesh":7,"name":"Output_shaft1-1"},{"matrix":[1,8.32667e-17,5.55112e-17,0,-5.55112e-17,-2.77556e-17,1,0,8.32667e-17,-1,-2.77556e-17,0,5.4956e-19,0.03,0,1],"mesh":8,"name":"Ball1-1"},{"mesh":9,"name":"Corsa interna1-1"},{"matrix":[1,0,0,0,0,0.976152,0.217087,0,0,-0.217087,0.976152,0,0.00171573,-1.19632e-18,-2.29967e-18,1],"mesh":10,"name":"Ring1-1"},{"matrix":[1,0,0,0,0,-3.46945e-18,1,0,0,-1,-3.46945e-18,0,-0.00128427,7.72292e-21,0,1],"mesh":11,"name":"Gasket-1"},{"mesh":12,"name":"Ball_cage1-1"},{"matrix":[-3.17655e-23,2.03637e-22,-1,0,-1.65092e-58,1,2.03637e-22,0,1,9.60677e-47,-3.17655e-23,0,-0.013,0,4.12952e-25,1],"mesh":13,"name":"circlip for shafts normal_din-2"},{"matrix":[1,0,0,0,0,1,0,0,0,0,1,0,0.0787557,0,0,1],"mesh":14,"name":"Ring2-1"}],"cameras":[{"type":"orthographic","orthographic":{"xmag":1,"ymag":1,"zfar":100,"znear":0.01}}],"meshes":[{"primitives":[{"attributes":{"POSITION":1,"NORMAL":2,"TEXCOORD_0":3},"indices":0,"mode":4,"material":1}]},{"primitives":[{"attributes":{"POSITION":5,"NORMAL":6,"TEXCOORD_0":7},"indices":4,"mode":4,"material":1}]},{"primitives":[{"attributes":{"POSITION":9,"NORMAL":10,"TEXCOORD_0":11},"indices":8,"mode":4,"material":1}]},{"primitives":[{"attributes":{"POSITION":13,"NORMAL":14,"TEXCOORD_0":15},"indices":12,"mode":4,"material":1}]},{"primitives":[{"attributes":{"POSITION":17,"NORMAL":18,"TEXCOORD_0":19},"indices":16,"mode":4,"material":1}]},{"primitives":[{"attributes":{"POSITION":21,"NORMAL":22,"TEXCOORD_0":23},"indices":20,"mode":4,"material":2}]},{"primitives":[{"attributes":{"POSITION":25,"NORMAL":26,"TEXCOORD_0":27},"indices":24,"mode":4,"material":3}]},{"primitives":[{"attributes":{"POSITION":29,"NORMAL":30,"TEXCOORD_0":31},"indices":28,"mode":4,"material":4},{"attributes":{"POSITION":33,"NORMAL":34,"TEXCOORD_0":35},"indices":32,"mode":4,"material":4}]},{"primitives":[{"attributes":{"POSITION":37,"NORMAL":38,"TEXCOORD_0":39},"indices":36,"mode":4,"material":1}]},{"primitives":[{"attributes":{"POSITION":41,"NORMAL":42,"TEXCOORD_0":43},"indices":40,"mode":4,"material":5}]},{"primitives":[{"attributes":{"POSITION":45,"NORMAL":46,"TEXCOORD_0":47},"indices":44,"mode":4,"material":6}]},{"primitives":[{"attributes":{"POSITION":49,"NORMAL":50,"TEXCOORD_0":51},"indices":48,"mode":4,"material":7},{"attributes":{"POSITION":53,"NORMAL":54,"TEXCOORD_0":55},"indices":52,"mode":4,"material":7}]},{"primitives":[{"attributes":{"POSITION":57,"NORMAL":58,"TEXCOORD_0":59},"indices":56,"mode":4,"material":8}]},{"primitives":[{"attributes":{"POSITION":61,"NORMAL":62,"TEXCOORD_0":63},"indices":60,"mode":4,"material":3}]},{"primitives":[{"attributes":{"POSITION":65,"NORMAL":66,"TEXCOORD_0":67},"indices":64,"mode":4,"material":9}]}],"accessors":[{"bufferView":3,"byteOffset":0,"componentType":5123,"count":13464,"type":"SCALAR"},{"bufferView":0,"byteOffset":0,"componentType":5126,"count":13464,"type":"VEC3","min":[-0.00899999961,-0.00899999961,-0.00899999961],"max":[0.00899999961,0.00899999961,0.00899999961]},{"bufferView":1,"byteOffset":0,"componentType":5126,"count":13464,"type":"VEC3"},{"bufferView":2,"byteOffset":0,"componentType":5126,"count":13464,"type":"VEC2"},{"bufferView":7,"byteOffset":0,"componentType":5123,"count":13464,"type":"SCALAR"},{"bufferView":4,"byteOffset":0,"componentType":5126,"count":13464,"type":"VEC3","min":[-0.00899999961,-0.00899999961,-0.00899999961],"max":[0.00899999961,0.00899999961,0.00899999961]},{"bufferView":5,"byteOffset":0,"componentType":5126,"count":13464,"type":"VEC3"},{"bufferView":6,"byteOffset":0,"componentType":5126,"count":13464,"type":"VEC2"},{"bufferView":11,"byteOffset":0,"componentType":5123,"count":13464,"type":"SCALAR"},{"bufferView":8,"byteOffset":0,"componentType":5126,"count":13464,"type":"VEC3","min":[-0.00899999961,-0.00899999961,-0.00899999961],"max":[0.00899999961,0.00899999961,0.00899999961]},{"bufferView":9,"byteOffset":0,"componentType":5126,"count":13464,"type":"VEC3"},{"bufferView":10,"byteOffset":0,"componentType":5126,"count":13464,"type":"VEC2"},{"bufferView":15,"byteOffset":0,"componentType":5123,"count":13464,"type":"SCALAR"},{"bufferView":12,"byteOffset":0,"componentType":5126,"count":13464,"type":"VEC3","min":[-0.00899999961,-0.00899999961,-0.00899999961],"max":[0.00899999961,0.00899999961,0.00899999961]},{"bufferView":13,"byteOffset":0,"componentType":5126,"count":13464,"type":"VEC3"},{"bufferView":14,"byteOffset":0,"componentType":5126,"count":13464,"type":"VEC2"},{"bufferView":19,"byteOffset":0,"componentType":5123,"count":13464,"type":"SCALAR"},{"bufferView":16,"byteOffset":0,"componentType":5126,"count":13464,"type":"VEC3","min":[-0.00899999961,-0.00899999961,-0.00899999961],"max":[0.00899999961,0.00899999961,0.00899999961]},{"bufferView":17,"byteOffset":0,"componentType":5126,"count":13464,"type":"VEC3"},{"bufferView":18,"byteOffset":0,"componentType":5126,"count":13464,"type":"VEC2"},{"bufferView":23,"byteOffset":0,"componentType":5123,"count":19032,"type":"SCALAR"},{"bufferView":20,"byteOffset":0,"componentType":5126,"count":19032,"type":"VEC3","min":[-4.28626382e-19,-0.0154999997,-0.0154999997],"max":[0.180000007,0.0154999997,0.0154999997]},{"bufferView":21,"byteOffset":0,"componentType":5126,"count":19032,"type":"VEC3"},{"bufferView":22,"byteOffset":0,"componentType":5126,"count":19032,"type":"VEC2"},{"bufferView":27,"byteOffset":0,"componentType":5123,"count":2028,"type":"SCALAR"},{"bufferView":24,"byteOffset":0,"componentType":5126,"count":2028,"type":"VEC3","min":[-0.0147394231,-0.0169473458,-0.00120000006],"max":[0.0147394231,0.0155499997,1.17549435e-38]},{"bufferView":25,"byteOffset":0,"componentType":5126,"count":2028,"type":"VEC3"},{"bufferView":26,"byteOffset":0,"componentType":5126,"count":2028,"type":"VEC2"},{"bufferView":31,"byteOffset":0,"componentType":5123,"count":64998,"type":"SCALAR"},{"bufferView":28,"byteOffset":0,"componentType":5126,"count":64998,"type":"VEC3","min":[-0.197068885,-0.0450000018,-0.0450000018],"max":[0.0167157296,0.0450000018,0.0450000018]},{"bufferView":29,"byteOffset":0,"componentType":5126,"count":64998,"type":"VEC3"},{"bufferView":30,"byteOffset":0,"componentType":5126,"count":64998,"type":"VEC2"},{"bufferView":31,"byteOffset":129996,"componentType":5123,"count":27882,"type":"SCALAR"},{"bufferView":28,"byteOffset":779976,"componentType":5126,"count":27882,"type":"VEC3","min":[-0.196990922,-0.0274498276,-0.0274498276],"max":[0.0167157296,0.0450000018,0.0450000018]},{"bufferView":29,"byteOffset":779976,"componentType":5126,"count":27882,"type":"VEC3"},{"bufferView":30,"byteOffset":519984,"componentType":5126,"count":27882,"type":"VEC2"},{"bufferView":35,"byteOffset":0,"componentType":5123,"count":13464,"type":"SCALAR"},{"bufferView":32,"byteOffset":0,"componentType":5126,"count":13464,"type":"VEC3","min":[-0.00899999961,-0.00899999961,-0.00899999961],"max":[0.00899999961,0.00899999961,0.00899999961]},{"bufferView":33,"byteOffset":0,"componentType":5126,"count":13464,"type":"VEC3"},{"bufferView":34,"byteOffset":0,"componentType":5126,"count":13464,"type":"VEC2"},{"bufferView":39,"byteOffset":0,"componentType":5123,"count":17436,"type":"SCALAR"},{"bufferView":36,"byteOffset":0,"componentType":5126,"count":17436,"type":"VEC3","min":[-0.0130000003,-0.0274260417,-0.0287433024],"max":[0.0130000003,0.0274260417,0.0287433024]},{"bufferView":37,"byteOffset":0,"componentType":5126,"count":17436,"type":"VEC3"},{"bufferView":38,"byteOffset":0,"componentType":5126,"count":17436,"type":"VEC2"},{"bufferView":43,"byteOffset":0,"componentType":5123,"count":3588,"type":"SCALAR"},{"bufferView":40,"byteOffset":0,"componentType":5126,"count":3588,"type":"VEC3","min":[-6.07153217e-18,-0.0480000004,-0.0479987115],"max":[0.00499999989,0.0468553044,0.0479987115]},{"bufferView":41,"byteOffset":0,"componentType":5126,"count":3588,"type":"VEC3"},{"bufferView":42,"byteOffset":0,"componentType":5126,"count":3588,"type":"VEC2"},{"bufferView":47,"byteOffset":0,"componentType":5123,"count":64998,"type":"SCALAR"},{"bufferView":44,"byteOffset":0,"componentType":5126,"count":64998,"type":"VEC3","min":[0.0,-0.0533598326,-0.0533832759],"max":[0.0879999995,0.0533832759,0.0533598326]},{"bufferView":45,"byteOffset":0,"componentType":5126,"count":64998,"type":"VEC3"},{"bufferView":46,"byteOffset":0,"componentType":5126,"count":64998,"type":"VEC2"},{"bufferView":47,"byteOffset":129996,"componentType":5123,"count":7068,"type":"SCALAR"},{"bufferView":44,"byteOffset":779976,"componentType":5126,"count":7068,"type":"VEC3","min":[0.0,-0.0469758511,-0.0533832759],"max":[0.0879999995,0.0533832759,0.0469758511]},{"bufferView":45,"byteOffset":779976,"componentType":5126,"count":7068,"type":"VEC3"},{"bufferView":46,"byteOffset":519984,"componentType":5126,"count":7068,"type":"VEC2"},{"bufferView":51,"byteOffset":0,"componentType":5123,"count":15462,"type":"SCALAR"},{"bufferView":48,"byteOffset":0,"componentType":5126,"count":15462,"type":"VEC3","min":[-0.0149999997,-0.0306798723,-0.0319925919],"max":[0.0149999997,0.0307083055,0.0319925919]},{"bufferView":49,"byteOffset":0,"componentType":5126,"count":15462,"type":"VEC3"},{"bufferView":50,"byteOffset":0,"componentType":5126,"count":15462,"type":"VEC2"},{"bufferView":55,"byteOffset":0,"componentType":5123,"count":2028,"type":"SCALAR"},{"bufferView":52,"byteOffset":0,"componentType":5126,"count":2028,"type":"VEC3","min":[-0.0141600138,-0.0163472481,-0.00120000006],"max":[0.0141600138,0.0149499997,4.33680869e-19]},{"bufferView":53,"byteOffset":0,"componentType":5126,"count":2028,"type":"VEC3"},{"bufferView":54,"byteOffset":0,"componentType":5126,"count":2028,"type":"VEC2"},{"bufferView":59,"byteOffset":0,"componentType":5123,"count":2268,"type":"SCALAR"},{"bufferView":56,"byteOffset":0,"componentType":5126,"count":2268,"type":"VEC3","min":[0.0,-0.0185000002,-0.0185000002],"max":[0.00499999989,0.0185000002,0.0185000002]},{"bufferView":57,"byteOffset":0,"componentType":5126,"count":2268,"type":"VEC3"},{"bufferView":58,"byteOffset":0,"componentType":5126,"count":2268,"type":"VEC2"}],"materials":[{"pbrMetallicRoughness":{"baseColorFactor":[0.287711,0.287711,0.287711,1],"metallicFactor":0.0,"roughnessFactor":0.9}},{"name":"color-3","pbrMetallicRoughness":{"baseColorFactor":[0.576576,0.0,0.0,1],"metallicFactor":0.0,"roughnessFactor":0.9}},{"name":"color-1","pbrMetallicRoughness":{"baseColorFactor":[0.301364,0.301364,0.600372,1],"metallicFactor":0.0,"roughnessFactor":0.9}},{"name":"satin finish stainless steel","pbrMetallicRoughness":{"baseColorFactor":[0.8008,0.759976,0.728571,1],"metallicFactor":0.0,"roughnessFactor":0.9}},{"name":"chromium plate","pbrMetallicRoughness":{"baseColorFactor":[0.425631,0.44391,0.451743,1],"metallicFactor":0.0,"roughnessFactor":0.9}},{"name":"color-2","pbrMetallicRoughness":{"baseColorFactor":[0.515146,0.515146,0.0,1],"metallicFactor":0.0,"roughnessFactor":0.9}},{"name":"chromium plate-1","pbrMetallicRoughness":{"baseColorFactor":[0.378812,0.39508,0.402051,1],"metallicFactor":0.0,"roughnessFactor":0.9}},{"name":"glossy rubber","pbrMetallicRoughness":{"baseColorFactor":[0.171842,0.171842,0.171842,1],"metallicFactor":0.0,"roughnessFactor":0.9}},{"name":"color","pbrMetallicRoughness":{"baseColorFactor":[0.0,0.539971,0.0,1],"metallicFactor":0.0,"roughnessFactor":0.9}},{"name":"chromium plate-2","pbrMetallicRoughness":{"baseColorFactor":[0.331992,0.34625,0.35236,1],"metallicFactor":0.0,"roughnessFactor":0.9}}],"textures":[{"sampler":0,"source":0,"name":"n_satinwood_n.dds"}],"images":[{"uri":"n_satinwood_n.png"}],"samplers":[{"magFilter":9729,"minFilter":9729,"wrapS":10497,"wrapT":10497,"name":"DefaultSampler"}],"bufferViews":[{"buffer":0,"byteOffset":0,"byteLength":161568,"byteStride":12,"target":34962},{"buffer":0,"byteOffset":161568,"byteLength":161568,"byteStride":12,"target":34962},{"buffer":0,"byteOffset":323136,"byteLength":107712,"byteStride":8,"target":34962},{"buffer":0,"byteOffset":430848,"byteLength":26928,"target":34963},{"buffer":1,"byteOffset":0,"byteLength":161568,"byteStride":12,"target":34962},{"buffer":1,"byteOffset":161568,"byteLength":161568,"byteStride":12,"target":34962},{"buffer":1,"byteOffset":323136,"byteLength":107712,"byteStride":8,"target":34962},{"buffer":1,"byteOffset":430848,"byteLength":26928,"target":34963},{"buffer":2,"byteOffset":0,"byteLength":161568,"byteStride":12,"target":34962},{"buffer":2,"byteOffset":161568,"byteLength":161568,"byteStride":12,"target":34962},{"buffer":2,"byteOffset":323136,"byteLength":107712,"byteStride":8,"target":34962},{"buffer":2,"byteOffset":430848,"byteLength":26928,"target":34963},{"buffer":3,"byteOffset":0,"byteLength":161568,"byteStride":12,"target":34962},{"buffer":3,"byteOffset":161568,"byteLength":161568,"byteStride":12,"target":34962},{"buffer":3,"byteOffset":323136,"byteLength":107712,"byteStride":8,"target":34962},{"buffer":3,"byteOffset":430848,"byteLength":26928,"target":34963},{"buffer":4,"byteOffset":0,"byteLength":161568,"byteStride":12,"target":34962},{"buffer":4,"byteOffset":161568,"byteLength":161568,"byteStride":12,"target":34962},{"buffer":4,"byteOffset":323136,"byteLength":107712,"byteStride":8,"target":34962},{"buffer":4,"byteOffset":430848,"byteLength":26928,"target":34963},{"buffer":5,"byteOffset":0,"byteLength":228384,"byteStride":12,"target":34962},{"buffer":5,"byteOffset":228384,"byteLength":228384,"byteStride":12,"target":34962},{"buffer":5,"byteOffset":456768,"byteLength":152256,"byteStride":8,"target":34962},{"buffer":5,"byteOffset":609024,"byteLength":38064,"target":34963},{"buffer":6,"byteOffset":0,"byteLength":24336,"byteStride":12,"target":34962},{"buffer":6,"byteOffset":24336,"byteLength":24336,"byteStride":12,"target":34962},{"buffer":6,"byteOffset":48672,"byteLength":16224,"byteStride":8,"target":34962},{"buffer":6,"byteOffset":64896,"byteLength":4056,"target":34963},{"buffer":7,"byteOffset":0,"byteLength":1114560,"byteStride":12,"target":34962},{"buffer":7,"byteOffset":1114560,"byteLength":1114560,"byteStride":12,"target":34962},{"buffer":7,"byteOffset":2229120,"byteLength":743040,"byteStride":8,"target":34962},{"buffer":7,"byteOffset":2972160,"byteLength":185760,"target":34963},{"buffer":8,"byteOffset":0,"byteLength":161568,"byteStride":12,"target":34962},{"buffer":8,"byteOffset":161568,"byteLength":161568,"byteStride":12,"target":34962},{"buffer":8,"byteOffset":323136,"byteLength":107712,"byteStride":8,"target":34962},{"buffer":8,"byteOffset":430848,"byteLength":26928,"target":34963},{"buffer":9,"byteOffset":0,"byteLength":209232,"byteStride":12,"target":34962},{"buffer":9,"byteOffset":209232,"byteLength":209232,"byteStride":12,"target":34962},{"buffer":9,"byteOffset":418464,"byteLength":139488,"byteStride":8,"target":34962},{"buffer":9,"byteOffset":557952,"byteLength":34872,"target":34963},{"buffer":10,"byteOffset":0,"byteLength":43056,"byteStride":12,"target":34962},{"buffer":10,"byteOffset":43056,"byteLength":43056,"byteStride":12,"target":34962},{"buffer":10,"byteOffset":86112,"byteLength":28704,"byteStride":8,"target":34962},{"buffer":10,"byteOffset":114816,"byteLength":7176,"target":34963},{"buffer":11,"byteOffset":0,"byteLength":864792,"byteStride":12,"target":34962},{"buffer":11,"byteOffset":864792,"byteLength":864792,"byteStride":12,"target":34962},{"buffer":11,"byteOffset":1729584,"byteLength":576528,"byteStride":8,"target":34962},{"buffer":11,"byteOffset":2306112,"byteLength":144132,"target":34963},{"buffer":12,"byteOffset":0,"byteLength":185544,"byteStride":12,"target":34962},{"buffer":12,"byteOffset":185544,"byteLength":185544,"byteStride":12,"target":34962},{"buffer":12,"byteOffset":371088,"byteLength":123696,"byteStride":8,"target":34962},{"buffer":12,"byteOffset":494784,"byteLength":30924,"target":34963},{"buffer":13,"byteOffset":0,"byteLength":24336,"byteStride":12,"target":34962},{"buffer":13,"byteOffset":24336,"byteLength":24336,"byteStride":12,"target":34962},{"buffer":13,"byteOffset":48672,"byteLength":16224,"byteStride":8,"target":34962},{"buffer":13,"byteOffset":64896,"byteLength":4056,"target":34963},{"buffer":14,"byteOffset":0,"byteLength":27216,"byteStride":12,"target":34962},{"buffer":14,"byteOffset":27216,"byteLength":27216,"byteStride":12,"target":34962},{"buffer":14,"byteOffset":54432,"byteLength":18144,"byteStride":8,"target":34962},{"buffer":14,"byteOffset":72576,"byteLength":4536,"target":34963}],"buffers":[{"byteLength":457776,"uri":"Ball1-4.bin"},{"byteLength":457776,"uri":"Ball1-6.bin"},{"byteLength":457776,"uri":"Ball1-3.bin"},{"byteLength":457776,"uri":"Ball1-5.bin"},{"byteLength":457776,"uri":"Ball1-2.bin"},{"byteLength":647088,"uri":"Input_shaft1-1.bin"},{"byteLength":68952,"uri":"circlip_for_shafts_normal_din-3.bin"},{"byteLength":3157920,"uri":"Output_shaft1-1.bin"},{"byteLength":457776,"uri":"Ball1-1.bin"},{"byteLength":592824,"uri":"Corsa_interna1-1.bin"},{"byteLength":121992,"uri":"Ring1-1.bin"},{"byteLength":2450244,"uri":"Gasket-1.bin"},{"byteLength":525708,"uri":"Ball_cage1-1.bin"},{"byteLength":68952,"uri":"circlip_for_shafts_normal_din-2.bin"},{"byteLength":77112,"uri":"Ring2-1.bin"}]}