{"asset":{"generator":"SOLIDWORKSGLTF","version":"2.0","extras":{"siteFinish":"matte-v1","siteTone":"tone-v1"}},"extensionsUsed":["KHR_lights_punctual","Solidworks_custom_properties"],"scene":0,"scenes":[{"name":"Default - Stato di visualizzazione-1","nodes":[0,1]}],"nodes":[{"matrix":[0.31387,-0.0376284,-0.94872,0,-0.0675436,0.995798,-0.0618414,0,0.94706,0.0834901,0.31001,0,2.04005,0.192471,0.689461,1],"camera":0,"name":"current"},{"children":[2,3,4,5,6,7,8,9,10,11,12,13,14,15,16,17,18,19,20,21,22,23,24,25,26],"name":"Giunto periflex"},{"matrix":[1,0,0,0,0,1,0,0,0,0,1,0,0,0,-0.009,1],"mesh":0,"name":"Flangia_esterna-1"},{"mesh":1,"name":"Flangia_interna-1"},{"matrix":[0,0,1,0,5.55112e-17,1,0,0,-1,5.55112e-17,0,0,-0.0205061,-0.0205061,-0.018,1],"mesh":2,"name":"socket head cap screw_iso-7"},{"matrix":[-8.21073e-48,-4.93038e-32,1,0,1.66533e-16,1,4.93038e-32,0,-1,1.66533e-16,2.73691e-48,0,0,0.029,-0.018,1],"mesh":3,"name":"socket head cap screw_iso-4"},{"matrix":[-1.62027e-16,-1.91473e-16,-1,0,-2.22045e-16,-1,1.91473e-16,0,-1,2.22045e-16,1.62027e-16,0,0,0.029,0.03,1],"mesh":4,"name":"socket head cap screw_iso-11"},{"matrix":[0,0,1,0,-5.55112e-17,1,0,0,-1,-5.55112e-17,0,0,0.029,-1.04083e-17,-0.018,1],"mesh":5,"name":"socket head cap screw_iso-10"},{"matrix":[1,0,0,0,0,1,0,0,0,0,1,0,0,0,0.006,1],"mesh":6,"name":"Anello elastico-1"},{"matrix":[-1.62027e-16,-1.91473e-16,-1,0,-3.43918e-32,1,-1.91473e-16,0,1,1.41181e-33,-1.62027e-16,0,0,-0.029,0.03,1],"mesh":7,"name":"socket head cap screw_iso-15"},{"matrix":[0,0,1,0,1.66533e-16,1,0,0,-1,1.66533e-16,0,0,-6.93889e-18,-0.029,-0.018,1],"mesh":8,"name":"socket head cap screw_iso-8"},{"matrix":[0,0,1,0,2.22045e-16,1,0,0,-1,2.22045e-16,0,0,-0.0205061,0.0205061,-0.018,1],"mesh":9,"name":"socket head cap screw_iso-5"},{"matrix":[0,0,1,0,1.66533e-16,1,0,0,-1,1.66533e-16,0,0,0.0205061,0.0205061,-0.018,1],"mesh":10,"name":"socket head cap screw_iso-1"},{"matrix":[0,0,1,0,1.66533e-16,1,0,0,-1,1.66533e-16,0,0,-0.029,3.46945e-18,-0.018,1],"mesh":11,"name":"socket head cap screw_iso-6"},{"matrix":[-1,2.77556e-16,8.53654e-18,0,2.77556e-16,1,-8.2828e-17,0,-8.53654e-18,-8.2828e-17,-1,0,-3.41461e-20,-3.31312e-19,0.012,1],"mesh":12,"name":"Flangia_interna-2"},{"matrix":[-1,2.22045e-16,1.62027e-16,0,2.22045e-16,1,-1.91473e-16,0,-1.62027e-16,-1.91473e-16,-1,0,3.49663e-19,6.3143e-19,0.021,1],"mesh":13,"name":"Flangia_esterna-2"},{"matrix":[0,0,1,0,0,1,0,0,-1,0,0,0,0.0205061,-0.0205061,-0.018,1],"mesh":14,"name":"socket head cap screw_iso-9"},{"matrix":[-1.62027e-16,1.49318e-19,-1,0,2.77556e-16,1,1.49318e-19,0,1,-2.77556e-16,-1.62027e-16,0,-0.0205061,0.0205061,0.03,1],"mesh":15,"name":"socket head cap screw_iso-12"},{"matrix":[-1.62027e-16,-1.91473e-16,-1,0,-1.66533e-16,1,-1.91473e-16,0,1,1.66533e-16,-1.62027e-16,0,-0.029,3.46945e-18,0.03,1],"mesh":16,"name":"socket head cap screw_iso-13"},{"matrix":[3.08149e-33,1.49318e-19,-1,0,6.0583e-33,1,1.49318e-19,0,1,6.06193e-33,-1.2326e-32,0,-0.0205061,-0.0205061,0.03,1],"mesh":17,"name":"socket head cap screw_iso-14"},{"matrix":[1.2326e-32,1.49318e-19,-1,0,6.0583e-33,1,1.49318e-19,0,1,-6.0583e-33,1.2326e-32,0,0.029,-1.04083e-17,0.03,1],"mesh":18,"name":"socket head cap screw_iso-17"},{"matrix":[2.46519e-32,1.49318e-19,-1,0,1.11022e-16,1,1.49318e-19,0,1,-1.11022e-16,-6.47112e-32,0,0.0205061,-0.0205061,0.03,1],"mesh":19,"name":"socket head cap screw_iso-16"},{"matrix":[2.46519e-32,1.49318e-19,-1,0,1.66533e-16,1,1.49318e-19,0,1,-1.66533e-16,2.4627e-32,0,0.0205061,0.0205061,0.03,1],"mesh":20,"name":"socket head cap screw_iso-18"},{"matrix":[-1,-6.617e-34,-4.41168e-17,0,7.21279e-33,1,-1.78492e-16,0,4.41168e-17,-1.78492e-16,-1,0,2.86923e-18,-5.40966e-18,0.014,1],"mesh":21,"name":"Albero-3"},{"matrix":[-1.807e-16,-2.33635e-17,1,0,-5.55112e-16,1,2.33635e-17,0,-1,-5.55112e-16,-1.807e-16,0,2.60261e-18,0.013,-0.0135,1],"mesh":22,"name":"Linguetta-1"},{"matrix":[-1.87416e-16,1.83375e-16,1,0,-1.66533e-16,1,-1.78492e-16,0,-1,-1.66533e-16,-1.72164e-16,0,5.08007e-18,0.013,0.0255,1],"mesh":23,"name":"Linguetta-3"},{"matrix":[1,0,0,0,0,1,0,0,0,0,1,0,0,0,-0.002,1],"mesh":24,"name":"Albero-1"}],"cameras":[{"type":"orthographic","orthographic":{"xmag":1,"ymag":1,"zfar":100,"znear":0.01}}],"meshes":[{"primitives":[{"attributes":{"POSITION":1,"NORMAL":2,"TEXCOORD_0":3},"indices":0,"mode":4,"material":1}]},{"primitives":[{"attributes":{"POSITION":5,"NORMAL":6,"TEXCOORD_0":7},"indices":4,"mode":4,"material":2}]},{"primitives":[{"attributes":{"POSITION":9,"NORMAL":10,"TEXCOORD_0":11},"indices":8,"mode":4,"material":3}]},{"primitives":[{"attributes":{"POSITION":13,"NORMAL":14,"TEXCOORD_0":15},"indices":12,"mode":4,"material":3}]},{"primitives":[{"attributes":{"POSITION":17,"NORMAL":18,"TEXCOORD_0":19},"indices":16,"mode":4,"material":3}]},{"primitives":[{"attributes":{"POSITION":21,"NORMAL":22,"TEXCOORD_0":23},"indices":20,"mode":4,"material":3}]},{"primitives":[{"attributes":{"POSITION":25,"NORMAL":26,"TEXCOORD_0":27},"indices":24,"mode":4,"material":4}]},{"primitives":[{"attributes":{"POSITION":29,"NORMAL":30,"TEXCOORD_0":31},"indices":28,"mode":4,"material":3}]},{"primitives":[{"attributes":{"POSITION":33,"NORMAL":34,"TEXCOORD_0":35},"indices":32,"mode":4,"material":3}]},{"primitives":[{"attributes":{"POSITION":37,"NORMAL":38,"TEXCOORD_0":39},"indices":36,"mode":4,"material":3}]},{"primitives":[{"attributes":{"POSITION":41,"NORMAL":42,"TEXCOORD_0":43},"indices":40,"mode":4,"material":3}]},{"primitives":[{"attributes":{"POSITION":45,"NORMAL":46,"TEXCOORD_0":47},"indices":44,"mode":4,"material":3}]},{"primitives":[{"attributes":{"POSITION":49,"NORMAL":50,"TEXCOORD_0":51},"indices":48,"mode":4,"material":2}]},{"primitives":[{"attributes":{"POSITION":53,"NORMAL":54,"TEXCOORD_0":55},"indices":52,"mode":4,"material":1}]},{"primitives":[{"attributes":{"POSITION":57,"NORMAL":58,"TEXCOORD_0":59},"indices":56,"mode":4,"material":3}]},{"primitives":[{"attributes":{"POSITION":61,"NORMAL":62,"TEXCOORD_0":63},"indices":60,"mode":4,"material":3}]},{"primitives":[{"attributes":{"POSITION":65,"NORMAL":66,"TEXCOORD_0":67},"indices":64,"mode":4,"material":3}]},{"primitives":[{"attributes":{"POSITION":69,"NORMAL":70,"TEXCOORD_0":71},"indices":68,"mode":4,"material":3}]},{"primitives":[{"attributes":{"POSITION":73,"NORMAL":74,"TEXCOORD_0":75},"indices":72,"mode":4,"material":3}]},{"primitives":[{"attributes":{"POSITION":77,"NORMAL":78,"TEXCOORD_0":79},"indices":76,"mode":4,"material":3}]},{"primitives":[{"attributes":{"POSITION":81,"NORMAL":82,"TEXCOORD_0":83},"indices":80,"mode":4,"material":3}]},{"primitives":[{"attributes":{"POSITION":85,"NORMAL":86,"TEXCOORD_0":87},"indices":84,"mode":4,"material":5}]},{"primitives":[{"attributes":{"POSITION":89,"NORMAL":90,"TEXCOORD_0":91},"indices":88,"mode":4,"material":0}]},{"primitives":[{"attributes":{"POSITION":93,"NORMAL":94,"TEXCOORD_0":95},"indices":92,"mode":4,"material":0}]},{"primitives":[{"attributes":{"POSITION":97,"NORMAL":98,"TEXCOORD_0":99},"indices":96,"mode":4,"material":5}]}],"accessors":[{"bufferView":3,"byteOffset":0,"componentType":5123,"count":11454,"type":"SCALAR"},{"bufferView":0,"byteOffset":0,"componentType":5126,"count":11454,"type":"VEC3","min":[-0.0399999991,-0.039991226,-0.00300000003],"max":[0.0399999991,0.039991226,0.00200000009]},{"bufferView":1,"byteOffset":0,"componentType":5126,"count":11454,"type":"VEC3"},{"bufferView":2,"byteOffset":0,"componentType":5126,"count":11454,"type":"VEC2"},{"bufferView":7,"byteOffset":0,"componentType":5123,"count":14592,"type":"SCALAR"},{"bufferView":4,"byteOffset":0,"componentType":5126,"count":14592,"type":"VEC3","min":[-0.0399999991,-0.0399824344,-0.0250000004],"max":[0.0399999991,0.0399824344,1.17549435e-38]},{"bufferView":5,"byteOffset":0,"componentType":5126,"count":14592,"type":"VEC3"},{"bufferView":6,"byteOffset":0,"componentType":5126,"count":14592,"type":"VEC2"},{"bufferView":11,"byteOffset":0,"componentType":5123,"count":6420,"type":"SCALAR"},{"bufferView":8,"byteOffset":0,"componentType":5126,"count":6420,"type":"VEC3","min":[-1.73472348e-18,-0.00499854004,-0.00499999989],"max":[0.0160000008,0.00499854004,0.00499999989]},{"bufferView":9,"byteOffset":0,"componentType":5126,"count":6420,"type":"VEC3"},{"bufferView":10,"byteOffset":0,"componentType":5126,"count":6420,"type":"VEC2"},{"bufferView":15,"byteOffset":0,"componentType":5123,"count":6420,"type":"SCALAR"},{"bufferView":12,"byteOffset":0,"componentType":5126,"count":6420,"type":"VEC3","min":[-1.73472348e-18,-0.00499854004,-0.00499999989],"max":[0.0160000008,0.00499854004,0.00499999989]},{"bufferView":13,"byteOffset":0,"componentType":5126,"count":6420,"type":"VEC3"},{"bufferView":14,"byteOffset":0,"componentType":5126,"count":6420,"type":"VEC2"},{"bufferView":19,"byteOffset":0,"componentType":5123,"count":6420,"type":"SCALAR"},{"bufferView":16,"byteOffset":0,"componentType":5126,"count":6420,"type":"VEC3","min":[-1.73472348e-18,-0.00499854004,-0.00499999989],"max":[0.0160000008,0.00499854004,0.00499999989]},{"bufferView":17,"byteOffset":0,"componentType":5126,"count":6420,"type":"VEC3"},{"bufferView":18,"byteOffset":0,"componentType":5126,"count":6420,"type":"VEC2"},{"bufferView":23,"byteOffset":0,"componentType":5123,"count":6420,"type":"SCALAR"},{"bufferView":20,"byteOffset":0,"componentType":5126,"count":6420,"type":"VEC3","min":[-1.73472348e-18,-0.00499854004,-0.00499999989],"max":[0.0160000008,0.00499854004,0.00499999989]},{"bufferView":21,"byteOffset":0,"componentType":5126,"count":6420,"type":"VEC3"},{"bufferView":22,"byteOffset":0,"componentType":5126,"count":6420,"type":"VEC2"},{"bufferView":27,"byteOffset":0,"componentType":5123,"count":21330,"type":"SCALAR"},{"bufferView":24,"byteOffset":0,"componentType":5126,"count":21330,"type":"VEC3","min":[-0.0579771847,-0.0579771847,-0.0149999997],"max":[0.0579999983,0.0579999983,0.0149999997]},{"bufferView":25,"byteOffset":0,"componentType":5126,"count":21330,"type":"VEC3"},{"bufferView":26,"byteOffset":0,"componentType":5126,"count":21330,"type":"VEC2"},{"bufferView":31,"byteOffset":0,"componentType":5123,"count":6420,"type":"SCALAR"},{"bufferView":28,"byteOffset":0,"componentType":5126,"count":6420,"type":"VEC3","min":[-1.73472348e-18,-0.00499854004,-0.00499999989],"max":[0.0160000008,0.00499854004,0.00499999989]},{"bufferView":29,"byteOffset":0,"componentType":5126,"count":6420,"type":"VEC3"},{"bufferView":30,"byteOffset":0,"componentType":5126,"count":6420,"type":"VEC2"},{"bufferView":35,"byteOffset":0,"componentType":5123,"count":6420,"type":"SCALAR"},{"bufferView":32,"byteOffset":0,"componentType":5126,"count":6420,"type":"VEC3","min":[-1.73472348e-18,-0.00499854004,-0.00499999989],"max":[0.0160000008,0.00499854004,0.00499999989]},{"bufferView":33,"byteOffset":0,"componentType":5126,"count":6420,"type":"VEC3"},{"bufferView":34,"byteOffset":0,"componentType":5126,"count":6420,"type":"VEC2"},{"bufferView":39,"byteOffset":0,"componentType":5123,"count":6420,"type":"SCALAR"},{"bufferView":36,"byteOffset":0,"componentType":5126,"count":6420,"type":"VEC3","min":[-1.73472348e-18,-0.00499854004,-0.00499999989],"max":[0.0160000008,0.00499854004,0.00499999989]},{"bufferView":37,"byteOffset":0,"componentType":5126,"count":6420,"type":"VEC3"},{"bufferView":38,"byteOffset":0,"componentType":5126,"count":6420,"type":"VEC2"},{"bufferView":43,"byteOffset":0,"componentType":5123,"count":6420,"type":"SCALAR"},{"bufferView":40,"byteOffset":0,"componentType":5126,"count":6420,"type":"VEC3","min":[-1.73472348e-18,-0.00499854004,-0.00499999989],"max":[0.0160000008,0.00499854004,0.00499999989]},{"bufferView":41,"byteOffset":0,"componentType":5126,"count":6420,"type":"VEC3"},{"bufferView":42,"byteOffset":0,"componentType":5126,"count":6420,"type":"VEC2"},{"bufferView":47,"byteOffset":0,"componentType":5123,"count":6420,"type":"SCALAR"},{"bufferView":44,"byteOffset":0,"componentType":5126,"count":6420,"type":"VEC3","min":[-1.73472348e-18,-0.00499854004,-0.00499999989],"max":[0.0160000008,0.00499854004,0.00499999989]},{"bufferView":45,"byteOffset":0,"componentType":5126,"count":6420,"type":"VEC3"},{"bufferView":46,"byteOffset":0,"componentType":5126,"count":6420,"type":"VEC2"},{"bufferView":51,"byteOffset":0,"componentType":5123,"count":14592,"type":"SCALAR"},{"bufferView":48,"byteOffset":0,"componentType":5126,"count":14592,"type":"VEC3","min":[-0.0399999991,-0.0399824344,-0.0250000004],"max":[0.0399999991,0.0399824344,1.17549435e-38]},{"bufferView":49,"byteOffset":0,"componentType":5126,"count":14592,"type":"VEC3"},{"bufferView":50,"byteOffset":0,"componentType":5126,"count":14592,"type":"VEC2"},{"bufferView":55,"byteOffset":0,"componentType":5123,"count":11454,"type":"SCALAR"},{"bufferView":52,"byteOffset":0,"componentType":5126,"count":11454,"type":"VEC3","min":[-0.0399999991,-0.039991226,-0.00300000003],"max":[0.0399999991,0.039991226,0.00200000009]},{"bufferView":53,"byteOffset":0,"componentType":5126,"count":11454,"type":"VEC3"},{"bufferView":54,"byteOffset":0,"componentType":5126,"count":11454,"type":"VEC2"},{"bufferView":59,"byteOffset":0,"componentType":5123,"count":6420,"type":"SCALAR"},{"bufferView":56,"byteOffset":0,"componentType":5126,"count":6420,"type":"VEC3","min":[-1.73472348e-18,-0.00499854004,-0.00499999989],"max":[0.0160000008,0.00499854004,0.00499999989]},{"bufferView":57,"byteOffset":0,"componentType":5126,"count":6420,"type":"VEC3"},{"bufferView":58,"byteOffset":0,"componentType":5126,"count":6420,"type":"VEC2"},{"bufferView":63,"byteOffset":0,"componentType":5123,"count":6420,"type":"SCALAR"},{"bufferView":60,"byteOffset":0,"componentType":5126,"count":6420,"type":"VEC3","min":[-1.73472348e-18,-0.00499854004,-0.00499999989],"max":[0.0160000008,0.00499854004,0.00499999989]},{"bufferView":61,"byteOffset":0,"componentType":5126,"count":6420,"type":"VEC3"},{"bufferView":62,"byteOffset":0,"componentType":5126,"count":6420,"type":"VEC2"},{"bufferView":67,"byteOffset":0,"componentType":5123,"count":6420,"type":"SCALAR"},{"bufferView":64,"byteOffset":0,"componentType":5126,"count":6420,"type":"VEC3","min":[-1.73472348e-18,-0.00499854004,-0.00499999989],"max":[0.0160000008,0.00499854004,0.00499999989]},{"bufferView":65,"byteOffset":0,"componentType":5126,"count":6420,"type":"VEC3"},{"bufferView":66,"byteOffset":0,"componentType":5126,"count":6420,"type":"VEC2"},{"bufferView":71,"byteOffset":0,"componentType":5123,"count":6420,"type":"SCALAR"},{"bufferView":68,"byteOffset":0,"componentType":5126,"count":6420,"type":"VEC3","min":[-1.73472348e-18,-0.00499854004,-0.00499999989],"max":[0.0160000008,0.00499854004,0.00499999989]},{"bufferView":69,"byteOffset":0,"componentType":5126,"count":6420,"type":"VEC3"},{"bufferView":70,"byteOffset":0,"componentType":5126,"count":6420,"type":"VEC2"},{"bufferView":75,"byteOffset":0,"componentType":5123,"count":6420,"type":"SCALAR"},{"bufferView":72,"byteOffset":0,"componentType":5126,"count":6420,"type":"VEC3","min":[-1.73472348e-18,-0.00499854004,-0.00499999989],"max":[0.0160000008,0.00499854004,0.00499999989]},{"bufferView":73,"byteOffset":0,"componentType":5126,"count":6420,"type":"VEC3"},{"bufferView":74,"byteOffset":0,"componentType":5126,"count":6420,"type":"VEC2"},{"bufferView":79,"byteOffset":0,"componentType":5123,"count":6420,"type":"SCALAR"},{"bufferView":76,"byteOffset":0,"componentType":5126,"count":6420,"type":"VEC3","min":[-1.73472348e-18,-0.00499854004,-0.00499999989],"max":[0.0160000008,0.00499854004,0.00499999989]},{"bufferView":77,"byteOffset":0,"componentType":5126,"count":6420,"type":"VEC3"},{"bufferView":78,"byteOffset":0,"componentType":5126,"count":6420,"type":"VEC2"},{"bufferView":83,"byteOffset":0,"componentType":5123,"count":6420,"type":"SCALAR"},{"bufferView":80,"byteOffset":0,"componentType":5126,"count":6420,"type":"VEC3","min":[-1.73472348e-18,-0.00499854004,-0.00499999989],"max":[0.0160000008,0.00499854004,0.00499999989]},{"bufferView":81,"byteOffset":0,"componentType":5126,"count":6420,"type":"VEC3"},{"bufferView":82,"byteOffset":0,"componentType":5126,"count":6420,"type":"VEC2"},{"bufferView":87,"byteOffset":0,"componentType":5123,"count":3834,"type":"SCALAR"},{"bufferView":84,"byteOffset":0,"componentType":5126,"count":3834,"type":"VEC3","min":[-0.0179999992,-0.0179999992,-0.100000001],"max":[0.0179999992,0.0179999992,1.17549435e-38]},{"bufferView":85,"byteOffset":0,"componentType":5126,"count":3834,"type":"VEC3"},{"bufferView":86,"byteOffset":0,"componentType":5126,"count":3834,"type":"VEC2"},{"bufferView":91,"byteOffset":0,"componentType":5123,"count":468,"type":"SCALAR"},{"bufferView":88,"byteOffset":0,"componentType":5126,"count":468,"type":"VEC3","min":[-0.00948804617,0.0,-0.00350000011],"max":[0.00948804617,0.00400000019,0.00350000011]},{"bufferView":89,"byteOffset":0,"componentType":5126,"count":468,"type":"VEC3"},{"bufferView":90,"byteOffset":0,"componentType":5126,"count":468,"type":"VEC2"},{"bufferView":95,"byteOffset":0,"componentType":5123,"count":468,"type":"SCALAR"},{"bufferView":92,"byteOffset":0,"componentType":5126,"count":468,"type":"VEC3","min":[-0.00948804617,0.0,-0.00350000011],"max":[0.00948804617,0.00400000019,0.00350000011]},{"bufferView":93,"byteOffset":0,"componentType":5126,"count":468,"type":"VEC3"},{"bufferView":94,"byteOffset":0,"componentType":5126,"count":468,"type":"VEC2"},{"bufferView":99,"byteOffset":0,"componentType":5123,"count":3834,"type":"SCALAR"},{"bufferView":96,"byteOffset":0,"componentType":5126,"count":3834,"type":"VEC3","min":[-0.0179999992,-0.0179999992,-0.100000001],"max":[0.0179999992,0.0179999992,1.17549435e-38]},{"bufferView":97,"byteOffset":0,"componentType":5126,"count":3834,"type":"VEC3"},{"bufferView":98,"byteOffset":0,"componentType":5126,"count":3834,"type":"VEC2"}],"materials":[{"pbrMetallicRoughness":{"baseColorFactor":[0.287711,0.287711,0.287711,1],"metallicFactor":0.0,"roughnessFactor":0.9}},{"name":"polished steel-1","pbrMetallicRoughness":{"baseColorFactor":[0.553967,0.539978,0.525989,1],"metallicFactor":0.0,"roughnessFactor":0.9}},{"name":"polished steel","pbrMetallicRoughness":{"baseColorFactor":[0.49303,0.48058,0.46813,1],"metallicFactor":0.0,"roughnessFactor":0.9}},{"name":"satin finish stainless steel","pbrMetallicRoughness":{"baseColorFactor":[0.8008,0.759976,0.728571,1],"metallicFactor":0.0,"roughnessFactor":0.9}},{"name":"glossy rubber","pbrMetallicRoughness":{"baseColorFactor":[0.171842,0.171842,0.171842,1],"metallicFactor":0.0,"roughnessFactor":0.9}},{"name":"polished steel-2","pbrMetallicRoughness":{"baseColorFactor":[0.432094,0.421183,0.410271,1],"metallicFactor":0.0,"roughnessFactor":0.9}}],"textures":[{"sampler":0,"source":0,"name":"n_satinwood_n.dds"}],"images":[{"uri":"n_satinwood_n.png"}],"samplers":[{"magFilter":9729,"minFilter":9729,"wrapS":10497,"wrapT":10497,"name":"DefaultSampler"}],"bufferViews":[{"buffer":0,"byteOffset":0,"byteLength":137448,"byteStride":12,"target":34962},{"buffer":0,"byteOffset":137448,"byteLength":137448,"byteStride":12,"target":34962},{"buffer":0,"byteOffset":274896,"byteLength":91632,"byteStride":8,"target":34962},{"buffer":0,"byteOffset":366528,"byteLength":22908,"target":34963},{"buffer":1,"byteOffset":0,"byteLength":175104,"byteStride":12,"target":34962},{"buffer":1,"byteOffset":175104,"byteLength":175104,"byteStride":12,"target":34962},{"buffer":1,"byteOffset":350208,"byteLength":116736,"byteStride":8,"target":34962},{"buffer":1,"byteOffset":466944,"byteLength":29184,"target":34963},{"buffer":2,"byteOffset":0,"byteLength":77040,"byteStride":12,"target":34962},{"buffer":2,"byteOffset":77040,"byteLength":77040,"byteStride":12,"target":34962},{"buffer":2,"byteOffset":154080,"byteLength":51360,"byteStride":8,"target":34962},{"buffer":2,"byteOffset":205440,"byteLength":12840,"target":34963},{"buffer":3,"byteOffset":0,"byteLength":77040,"byteStride":12,"target":34962},{"buffer":3,"byteOffset":77040,"byteLength":77040,"byteStride":12,"target":34962},{"buffer":3,"byteOffset":154080,"byteLength":51360,"byteStride":8,"target":34962},{"buffer":3,"byteOffset":205440,"byteLength":12840,"target":34963},{"buffer":4,"byteOffset":0,"byteLength":77040,"byteStride":12,"target":34962},{"buffer":4,"byteOffset":77040,"byteLength":77040,"byteStride":12,"target":34962},{"buffer":4,"byteOffset":154080,"byteLength":51360,"byteStride":8,"target":34962},{"buffer":4,"byteOffset":205440,"byteLength":12840,"target":34963},{"buffer":5,"byteOffset":0,"byteLength":77040,"byteStride":12,"target":34962},{"buffer":5,"byteOffset":77040,"byteLength":77040,"byteStride":12,"target":34962},{"buffer":5,"byteOffset":154080,"byteLength":51360,"byteStride":8,"target":34962},{"buffer":5,"byteOffset":205440,"byteLength":12840,"target":34963},{"buffer":6,"byteOffset":0,"byteLength":255960,"byteStride":12,"target":34962},{"buffer":6,"byteOffset":255960,"byteLength":255960,"byteStride":12,"target":34962},{"buffer":6,"byteOffset":511920,"byteLength":170640,"byteStride":8,"target":34962},{"buffer":6,"byteOffset":682560,"byteLength":42660,"target":34963},{"buffer":7,"byteOffset":0,"byteLength":77040,"byteStride":12,"target":34962},{"buffer":7,"byteOffset":77040,"byteLength":77040,"byteStride":12,"target":34962},{"buffer":7,"byteOffset":154080,"byteLength":51360,"byteStride":8,"target":34962},{"buffer":7,"byteOffset":205440,"byteLength":12840,"target":34963},{"buffer":8,"byteOffset":0,"byteLength":77040,"byteStride":12,"target":34962},{"buffer":8,"byteOffset":77040,"byteLength":77040,"byteStride":12,"target":34962},{"buffer":8,"byteOffset":154080,"byteLength":51360,"byteStride":8,"target":34962},{"buffer":8,"byteOffset":205440,"byteLength":12840,"target":34963},{"buffer":9,"byteOffset":0,"byteLength":77040,"byteStride":12,"target":34962},{"buffer":9,"byteOffset":77040,"byteLength":77040,"byteStride":12,"target":34962},{"buffer":9,"byteOffset":154080,"byteLength":51360,"byteStride":8,"target":34962},{"buffer":9,"byteOffset":205440,"byteLength":12840,"target":34963},{"buffer":10,"byteOffset":0,"byteLength":77040,"byteStride":12,"target":34962},{"buffer":10,"byteOffset":77040,"byteLength":77040,"byteStride":12,"target":34962},{"buffer":10,"byteOffset":154080,"byteLength":51360,"byteStride":8,"target":34962},{"buffer":10,"byteOffset":205440,"byteLength":12840,"target":34963},{"buffer":11,"byteOffset":0,"byteLength":77040,"byteStride":12,"target":34962},{"buffer":11,"byteOffset":77040,"byteLength":77040,"byteStride":12,"target":34962},{"buffer":11,"byteOffset":154080,"byteLength":51360,"byteStride":8,"target":34962},{"buffer":11,"byteOffset":205440,"byteLength":12840,"target":34963},{"buffer":12,"byteOffset":0,"byteLength":175104,"byteStride":12,"target":34962},{"buffer":12,"byteOffset":175104,"byteLength":175104,"byteStride":12,"target":34962},{"buffer":12,"byteOffset":350208,"byteLength":116736,"byteStride":8,"target":34962},{"buffer":12,"byteOffset":466944,"byteLength":29184,"target":34963},{"buffer":13,"byteOffset":0,"byteLength":137448,"byteStride":12,"target":34962},{"buffer":13,"byteOffset":137448,"byteLength":137448,"byteStride":12,"target":34962},{"buffer":13,"byteOffset":274896,"byteLength":91632,"byteStride":8,"target":34962},{"buffer":13,"byteOffset":366528,"byteLength":22908,"target":34963},{"buffer":14,"byteOffset":0,"byteLength":77040,"byteStride":12,"target":34962},{"buffer":14,"byteOffset":77040,"byteLength":77040,"byteStride":12,"target":34962},{"buffer":14,"byteOffset":154080,"byteLength":51360,"byteStride":8,"target":34962},{"buffer":14,"byteOffset":205440,"byteLength":12840,"target":34963},{"buffer":15,"byteOffset":0,"byteLength":77040,"byteStride":12,"target":34962},{"buffer":15,"byteOffset":77040,"byteLength":77040,"byteStride":12,"target":34962},{"buffer":15,"byteOffset":154080,"byteLength":51360,"byteStride":8,"target":34962},{"buffer":15,"byteOffset":205440,"byteLength":12840,"target":34963},{"buffer":16,"byteOffset":0,"byteLength":77040,"byteStride":12,"target":34962},{"buffer":16,"byteOffset":77040,"byteLength":77040,"byteStride":12,"target":34962},{"buffer":16,"byteOffset":154080,"byteLength":51360,"byteStride":8,"target":34962},{"buffer":16,"byteOffset":205440,"byteLength":12840,"target":34963},{"buffer":17,"byteOffset":0,"byteLength":77040,"byteStride":12,"target":34962},{"buffer":17,"byteOffset":77040,"byteLength":77040,"byteStride":12,"target":34962},{"buffer":17,"byteOffset":154080,"byteLength":51360,"byteStride":8,"target":34962},{"buffer":17,"byteOffset":205440,"byteLength":12840,"target":34963},{"buffer":18,"byteOffset":0,"byteLength":77040,"byteStride":12,"target":34962},{"buffer":18,"byteOffset":77040,"byteLength":77040,"byteStride":12,"target":34962},{"buffer":18,"byteOffset":154080,"byteLength":51360,"byteStride":8,"target":34962},{"buffer":18,"byteOffset":205440,"byteLength":12840,"target":34963},{"buffer":19,"byteOffset":0,"byteLength":77040,"byteStride":12,"target":34962},{"buffer":19,"byteOffset":77040,"byteLength":77040,"byteStride":12,"target":34962},{"buffer":19,"byteOffset":154080,"byteLength":51360,"byteStride":8,"target":34962},{"buffer":19,"byteOffset":205440,"byteLength":12840,"target":34963},{"buffer":20,"byteOffset":0,"byteLength":77040,"byteStride":12,"target":34962},{"buffer":20,"byteOffset":77040,"byteLength":77040,"byteStride":12,"target":34962},{"buffer":20,"byteOffset":154080,"byteLength":51360,"byteStride":8,"target":34962},{"buffer":20,"byteOffset":205440,"byteLength":12840,"target":34963},{"buffer":21,"byteOffset":0,"byteLength":46008,"byteStride":12,"target":34962},{"buffer":21,"byteOffset":46008,"byteLength":46008,"byteStride":12,"target":34962},{"buffer":21,"byteOffset":92016,"byteLength":30672,"byteStride":8,"target":34962},{"buffer":21,"byteOffset":122688,"byteLength":7668,"target":34963},{"buffer":22,"byteOffset":0,"byteLength":5616,"byteStride":12,"target":34962},{"buffer":22,"byteOffset":5616,"byteLength":5616,"byteStride":12,"target":34962},{"buffer":22,"byteOffset":11232,"byteLength":3744,"byteStride":8,"target":34962},{"buffer":22,"byteOffset":14976,"byteLength":936,"target":34963},{"buffer":23,"byteOffset":0,"byteLength":5616,"byteStride":12,"target":34962},{"buffer":23,"byteOffset":5616,"byteLength":5616,"byteStride":12,"target":34962},{"buffer":23,"byteOffset":11232,"byteLength":3744,"byteStride":8,"target":34962},{"buffer":23,"byteOffset":14976,"byteLength":936,"target":34963},{"buffer":24,"byteOffset":0,"byteLength":46008,"byteStride":12,"target":34962},{"buffer":24,"byteOffset":46008,"byteLength":46008,"byteStride":12,"target":34962},{"buffer":24,"byteOffset":92016,"byteLength":30672,"byteStride":8,"target":34962},{"buffer":24,"byteOffset":122688,"byteLength":7668,"target":34963}],"buffers":[{"byteLength":389436,"uri":"Flangia_esterna-1.bin"},{"byteLength":496128,"uri":"Flangia_interna-1.bin"},{"byteLength":218280,"uri":"socket_head_cap_screw_iso-7.bin"},{"byteLength":218280,"uri":"socket_head_cap_screw_iso-4.bin"},{"byteLength":218280,"uri":"socket_head_cap_screw_iso-11.bin"},{"byteLength":218280,"uri":"socket_head_cap_screw_iso-10.bin"},{"byteLength":725220,"uri":"Anello_elastico-1.bin"},{"byteLength":218280,"uri":"socket_head_cap_screw_iso-15.bin"},{"byteLength":218280,"uri":"socket_head_cap_screw_iso-8.bin"},{"byteLength":218280,"uri":"socket_head_cap_screw_iso-5.bin"},{"byteLength":218280,"uri":"socket_head_cap_screw_iso-1.bin"},{"byteLength":218280,"uri":"socket_head_cap_screw_iso-6.bin"},{"byteLength":496128,"uri":"Flangia_interna-2.bin"},{"byteLength":389436,"uri":"Flangia_esterna-2.bin"},{"byteLength":218280,"uri":"socket_head_cap_screw_iso-9.bin"},{"byteLength":218280,"uri":"socket_head_cap_screw_iso-12.bin"},{"byteLength":218280,"uri":"socket_head_cap_screw_iso-13.bin"},{"byteLength":218280,"uri":"socket_head_cap_screw_iso-14.bin"},{"byteLength":218280,"uri":"socket_head_cap_screw_iso-17.bin"},{"byteLength":218280,"uri":"socket_head_cap_screw_iso-16.bin"},{"byteLength":218280,"uri":"socket_head_cap_screw_iso-18.bin"},{"byteLength":130356,"uri":"Albero-3.bin"},{"byteLength":15912,"uri":"Linguetta-1.bin"},{"byteLength":15912,"uri":"Linguetta-3.bin"},{"byteLength":130356,"uri":"Albero-1.bin"}]}