{"asset":{"generator":"SOLIDWORKSGLTF","version":"2.0","extras":{"siteFinish":"matte-v1","siteTone":"tone-v1"}},"extensionsUsed":["KHR_lights_punctual","Solidworks_custom_properties"],"scene":0,"scenes":[{"name":"Default - <Default>_Stato di visualizzazione 1","nodes":[0,1]}],"nodes":[{"matrix":[-0.988443,-0.0956095,-0.117641,0,0.125943,-0.949844,-0.286242,0,-0.0843734,-0.29775,0.950908,0,-0.314884,-1.17315,3.65581,1],"camera":0,"name":"current"},{"mesh":0,"name":"Wheel.SLDPRT"}],"cameras":[{"type":"orthographic","orthographic":{"xmag":1,"ymag":1,"zfar":100,"znear":0.01}}],"meshes":[{"primitives":[{"attributes":{"POSITION":1,"NORMAL":2,"TEXCOORD_0":3},"indices":0,"mode":4,"material":0},{"attributes":{"POSITION":5,"NORMAL":6,"TEXCOORD_0":7},"indices":4,"mode":4,"material":0},{"attributes":{"POSITION":9,"NORMAL":10,"TEXCOORD_0":11},"indices":8,"mode":4,"material":0}]}],"accessors":[{"bufferView":3,"byteOffset":0,"componentType":5123,"count":64998,"type":"SCALAR"},{"bufferView":0,"byteOffset":0,"componentType":5126,"count":64998,"type":"VEC3","min":[-0.181904554,-0.18197614,-0.0627499968],"max":[0.181999996,0.18197614,0.0627499968]},{"bufferView":1,"byteOffset":0,"componentType":5126,"count":64998,"type":"VEC3"},{"bufferView":2,"byteOffset":0,"componentType":5126,"count":64998,"type":"VEC2"},{"bufferView":3,"byteOffset":129996,"componentType":5123,"count":64998,"type":"SCALAR"},{"bufferView":0,"byteOffset":779976,"componentType":5126,"count":64998,"type":"VEC3","min":[-0.179250002,-0.179250002,-0.0627499968],"max":[0.179250002,0.179250002,0.0615996309]},{"bufferView":1,"byteOffset":779976,"componentType":5126,"count":64998,"type":"VEC3"},{"bufferView":2,"byteOffset":519984,"componentType":5126,"count":64998,"type":"VEC2"},{"bufferView":3,"byteOffset":259992,"componentType":5123,"count":43854,"type":"SCALAR"},{"bufferView":0,"byteOffset":1559952,"componentType":5126,"count":43854,"type":"VEC3","min":[-0.129477665,-0.129477665,0.0295766946],"max":[0.129477665,0.129477665,0.0486159921]},{"bufferView":1,"byteOffset":1559952,"componentType":5126,"count":43854,"type":"VEC3"},{"bufferView":2,"byteOffset":1039968,"componentType":5126,"count":43854,"type":"VEC2"}],"materials":[{"pbrMetallicRoughness":{"baseColorFactor":[0.398829,0.398829,0.398829,1],"metallicFactor":0.0,"roughnessFactor":0.9}}],"bufferViews":[{"buffer":0,"byteOffset":0,"byteLength":2086200,"byteStride":12,"target":34962},{"buffer":0,"byteOffset":2086200,"byteLength":2086200,"byteStride":12,"target":34962},{"buffer":0,"byteOffset":4172400,"byteLength":1390800,"byteStride":8,"target":34962},{"buffer":0,"byteOffset":5563200,"byteLength":347700,"target":34963}],"buffers":[{"byteLength":5910900,"uri":"Wheel.SLDPRT.bin"}]}