{"asset":{"generator":"SOLIDWORKSGLTF","version":"2.0","extras":{"siteFinish":"matte-v1","siteTone":"tone-v1"}},"extensionsUsed":["KHR_lights_punctual","Solidworks_custom_properties"],"scene":0,"scenes":[{"name":"Default - Stato di visualizzazione-1","nodes":[0,1]}],"nodes":[{"matrix":[0.967507,0.0927792,0.235207,0,0.0499117,0.841859,-0.537385,0,-0.247869,0.531664,0.809873,0,-0.237987,0.444821,0.709407,1],"camera":0,"name":"current"},{"children":[2,3,4,5],"name":"Porta_scotch_complessivo"},{"mesh":0,"name":"Porta_scotch-1"},{"matrix":[0.971775,0.23591,0,0,-0.23591,0.971775,0,0,0,0,1,0,6.84042e-18,-6.76616e-18,0.0145,1],"mesh":1,"name":"Scotch-1"},{"matrix":[0.999725,0.0234495,2.2255e-16,0,2.2271e-16,-4.21052e-18,-1,0,-0.0234495,0.999725,-9.4318e-18,0,-2.85559e-18,-5.62551e-21,0.025,1],"mesh":2,"name":"ferma_scotch_assiale-1"},{"matrix":[-1,2.22045e-16,-2.91374e-16,0,1.66533e-16,1,-5.48953e-16,0,-1.97215e-31,-2.77556e-16,-1,0,-0.02255,-0.04632,0.0145,1],"mesh":3,"name":"Coperchio_porta_scotch-1"}],"cameras":[{"type":"orthographic","orthographic":{"xmag":1,"ymag":1,"zfar":100,"znear":0.01}}],"meshes":[{"primitives":[{"attributes":{"POSITION":1,"NORMAL":2,"TEXCOORD_0":3},"indices":0,"mode":4,"material":1}]},{"primitives":[{"attributes":{"POSITION":5,"NORMAL":6,"TEXCOORD_0":7},"indices":4,"mode":4,"material":2},{"attributes":{"POSITION":9,"NORMAL":10,"TEXCOORD_0":11},"indices":8,"mode":4,"material":3}]},{"primitives":[{"attributes":{"POSITION":13,"NORMAL":14,"TEXCOORD_0":15},"indices":12,"mode":4,"material":4},{"attributes":{"POSITION":17,"NORMAL":18,"TEXCOORD_0":19},"indices":16,"mode":4,"material":5}]},{"primitives":[{"attributes":{"POSITION":21,"NORMAL":22,"TEXCOORD_0":23},"indices":20,"mode":4,"material":6}]}],"accessors":[{"bufferView":3,"byteOffset":0,"componentType":5123,"count":2322,"type":"SCALAR"},{"bufferView":0,"byteOffset":0,"componentType":5126,"count":2322,"type":"VEC3","min":[-0.0575499982,-0.0452000014,0.0],"max":[0.0124500003,0.0124358982,0.0289999992]},{"bufferView":1,"byteOffset":0,"componentType":5126,"count":2322,"type":"VEC3"},{"bufferView":2,"byteOffset":0,"componentType":5126,"count":2322,"type":"VEC2"},{"bufferView":7,"byteOffset":0,"componentType":5123,"count":4188,"type":"SCALAR"},{"bufferView":4,"byteOffset":0,"componentType":5126,"count":4188,"type":"VEC3","min":[-0.0540000014,-0.0171000008,-0.00910000037],"max":[0.0171000008,0.0231999997,0.00910000037]},{"bufferView":5,"byteOffset":0,"componentType":5126,"count":4188,"type":"VEC3"},{"bufferView":6,"byteOffset":0,"componentType":5126,"count":4188,"type":"VEC2"},{"bufferView":7,"byteOffset":8376,"componentType":5123,"count":1248,"type":"SCALAR"},{"bufferView":4,"byteOffset":50256,"componentType":5126,"count":1248,"type":"VEC3","min":[-0.0540000014,-0.0231749862,-0.00910000037],"max":[0.0231937449,0.0231999997,0.00910000037]},{"bufferView":5,"byteOffset":50256,"componentType":5126,"count":1248,"type":"VEC3"},{"bufferView":6,"byteOffset":33504,"componentType":5126,"count":1248,"type":"VEC2"},{"bufferView":11,"byteOffset":0,"componentType":5123,"count":2364,"type":"SCALAR"},{"bufferView":8,"byteOffset":0,"componentType":5126,"count":2364,"type":"VEC3","min":[-0.0142437415,0.0,-0.01425],"max":[0.0142437415,0.00899999961,0.01425]},{"bufferView":9,"byteOffset":0,"componentType":5126,"count":2364,"type":"VEC3"},{"bufferView":10,"byteOffset":0,"componentType":5126,"count":2364,"type":"VEC2"},{"bufferView":11,"byteOffset":4728,"componentType":5123,"count":762,"type":"SCALAR"},{"bufferView":8,"byteOffset":28368,"componentType":5126,"count":762,"type":"VEC3","min":[-0.00576834613,0.0,-0.00499380333],"max":[0.00660194224,0.000500000024,0.00501965778]},{"bufferView":9,"byteOffset":28368,"componentType":5126,"count":762,"type":"VEC3"},{"bufferView":10,"byteOffset":18912,"componentType":5126,"count":762,"type":"VEC2"},{"bufferView":15,"byteOffset":0,"componentType":5123,"count":180,"type":"SCALAR"},{"bufferView":12,"byteOffset":0,"componentType":5126,"count":180,"type":"VEC3","min":[-0.0350000001,0.0,-0.0144999996],"max":[0.0350000001,0.00312000001,0.0144999996]},{"bufferView":13,"byteOffset":0,"componentType":5126,"count":180,"type":"VEC3"},{"bufferView":14,"byteOffset":0,"componentType":5126,"count":180,"type":"VEC2"}],"materials":[{"pbrMetallicRoughness":{"baseColorFactor":[0.287157,0.287157,0.287157,1],"metallicFactor":0.0,"roughnessFactor":0.9}},{"name":"color-1","pbrMetallicRoughness":{"baseColorFactor":[0.77135,0.77135,0.0,1],"metallicFactor":0.0,"roughnessFactor":0.9}},{"name":"white high gloss plastic","pbrMetallicRoughness":{"baseColorFactor":[0.8008,0.8008,0.8008,1],"metallicFactor":0.0,"roughnessFactor":0.9}},{"name":"cream soft touch plastic","pbrMetallicRoughness":{"baseColorFactor":[0.610283,0.590413,0.544997,1],"metallicFactor":0.0,"roughnessFactor":0.9}},{"name":"color-2","pbrMetallicRoughness":{"baseColorFactor":[0.601653,0.601653,0.0,1],"metallicFactor":0.0,"roughnessFactor":0.9}},{"name":"color-3","pbrMetallicRoughness":{"baseColorFactor":[0.624624,0.624624,0.624624,1],"metallicFactor":0.0,"roughnessFactor":0.9}},{"name":"color","pbrMetallicRoughness":{"baseColorFactor":[0.144709,0.144709,0.144709,1],"metallicFactor":0.0,"roughnessFactor":0.9}}],"bufferViews":[{"buffer":0,"byteOffset":0,"byteLength":27864,"byteStride":12,"target":34962},{"buffer":0,"byteOffset":27864,"byteLength":27864,"byteStride":12,"target":34962},{"buffer":0,"byteOffset":55728,"byteLength":18576,"byteStride":8,"target":34962},{"buffer":0,"byteOffset":74304,"byteLength":4644,"target":34963},{"buffer":1,"byteOffset":0,"byteLength":65232,"byteStride":12,"target":34962},{"buffer":1,"byteOffset":65232,"byteLength":65232,"byteStride":12,"target":34962},{"buffer":1,"byteOffset":130464,"byteLength":43488,"byteStride":8,"target":34962},{"buffer":1,"byteOffset":173952,"byteLength":10872,"target":34963},{"buffer":2,"byteOffset":0,"byteLength":37512,"byteStride":12,"target":34962},{"buffer":2,"byteOffset":37512,"byteLength":37512,"byteStride":12,"target":34962},{"buffer":2,"byteOffset":75024,"byteLength":25008,"byteStride":8,"target":34962},{"buffer":2,"byteOffset":100032,"byteLength":6252,"target":34963},{"buffer":3,"byteOffset":0,"byteLength":2160,"byteStride":12,"target":34962},{"buffer":3,"byteOffset":2160,"byteLength":2160,"byteStride":12,"target":34962},{"buffer":3,"byteOffset":4320,"byteLength":1440,"byteStride":8,"target":34962},{"buffer":3,"byteOffset":5760,"byteLength":360,"target":34963}],"buffers":[{"byteLength":78948,"uri":"Porta_scotch-1.bin"},{"byteLength":184824,"uri":"Scotch-1.bin"},{"byteLength":106284,"uri":"ferma_scotch_assiale-1.bin"},{"byteLength":6120,"uri":"Coperchio_porta_scotch-1.bin"}]}