{"asset":{"generator":"SOLIDWORKSGLTF","version":"2.0","extras":{"siteFinish":"matte-v1","siteTone":"tone-v1"}},"extensionsUsed":["KHR_lights_punctual","Solidworks_custom_properties"],"scene":0,"scenes":[{"name":"Default - Stato di visualizzazione-1","nodes":[0,1]}],"nodes":[{"matrix":[-0.213008,0.0221151,-0.9768,0,-0.110461,0.992789,0.0465651,0,0.970786,0.117817,-0.20903,0,0.898402,0.181842,-0.157933,1],"camera":0,"name":"current"},{"children":[2,3,4,5,6],"name":"BIdone_complessivo"},{"mesh":0,"name":"BIdone_inf-1"},{"matrix":[2.77556e-17,0.588629,-0.808404,0,1,-7.89299e-17,-2.77556e-17,0,0,-0.808404,-0.588629,0,3.7405e-18,0.01,0.017,1],"mesh":1,"name":"Porta_ruote_bidone-1"},{"matrix":[-1.23328e-16,5.55112e-17,-1,0,3.83458e-16,1,5.55112e-17,0,1,-3.83458e-16,-1.23328e-16,0,-4.38805e-18,0.0832,0.000692622,1],"mesh":2,"name":"BIdone_sup-1"},{"matrix":[0,0.954346,0.298702,0,0,-0.298702,0.954346,0,1,0,0,0,0.01525,0.01,0.017,1],"mesh":3,"name":"Ruota_bidone-1"},{"matrix":[-2.10647e-16,0.302198,-0.953245,0,-7.05269e-17,-0.953245,-0.302198,0,-1,3.57229e-18,2.22112e-16,0,-0.01525,0.01,0.017,1],"mesh":4,"name":"Ruota_bidone-3"}],"cameras":[{"type":"orthographic","orthographic":{"xmag":1,"ymag":1,"zfar":100,"znear":0.01}}],"meshes":[{"primitives":[{"attributes":{"POSITION":1,"NORMAL":2,"TEXCOORD_0":3},"indices":0,"mode":4,"material":1}]},{"primitives":[{"attributes":{"POSITION":5,"NORMAL":6,"TEXCOORD_0":7},"indices":4,"mode":4,"material":2}]},{"primitives":[{"attributes":{"POSITION":9,"NORMAL":10,"TEXCOORD_0":11},"indices":8,"mode":4,"material":3}]},{"primitives":[{"attributes":{"POSITION":13,"NORMAL":14,"TEXCOORD_0":15},"indices":12,"mode":4,"material":4}]},{"primitives":[{"attributes":{"POSITION":17,"NORMAL":18,"TEXCOORD_0":19},"indices":16,"mode":4,"material":4}]}],"accessors":[{"bufferView":3,"byteOffset":0,"componentType":5123,"count":7368,"type":"SCALAR"},{"bufferView":0,"byteOffset":0,"componentType":5126,"count":7368,"type":"VEC3","min":[-0.0270000007,0.0,-0.0261926223],"max":[0.0270000007,0.0882000029,0.0321926214]},{"bufferView":1,"byteOffset":0,"componentType":5126,"count":7368,"type":"VEC3"},{"bufferView":2,"byteOffset":0,"componentType":5126,"count":7368,"type":"VEC2"},{"bufferView":7,"byteOffset":0,"componentType":5123,"count":288,"type":"SCALAR"},{"bufferView":4,"byteOffset":0,"componentType":5126,"count":288,"type":"VEC3","min":[-0.00100000005,-0.0207499992,-0.00100000005],"max":[0.00100000005,0.0207499992,0.00100000005]},{"bufferView":5,"byteOffset":0,"componentType":5126,"count":288,"type":"VEC3"},{"bufferView":6,"byteOffset":0,"componentType":5126,"count":288,"type":"VEC2"},{"bufferView":11,"byteOffset":0,"componentType":5123,"count":9726,"type":"SCALAR"},{"bufferView":8,"byteOffset":0,"componentType":5126,"count":9726,"type":"VEC3","min":[-0.0314940177,0.0,-0.0264999997],"max":[0.0299999993,0.00700000022,0.0264999997]},{"bufferView":9,"byteOffset":0,"componentType":5126,"count":9726,"type":"VEC3"},{"bufferView":10,"byteOffset":0,"componentType":5126,"count":9726,"type":"VEC2"},{"bufferView":15,"byteOffset":0,"componentType":5123,"count":3582,"type":"SCALAR"},{"bufferView":12,"byteOffset":0,"componentType":5126,"count":3582,"type":"VEC3","min":[-0.0104999999,-0.0104953889,0.0],"max":[0.0104999999,0.010482925,0.00600000005]},{"bufferView":13,"byteOffset":0,"componentType":5126,"count":3582,"type":"VEC3"},{"bufferView":14,"byteOffset":0,"componentType":5126,"count":3582,"type":"VEC2"},{"bufferView":19,"byteOffset":0,"componentType":5123,"count":3582,"type":"SCALAR"},{"bufferView":16,"byteOffset":0,"componentType":5126,"count":3582,"type":"VEC3","min":[-0.0104999999,-0.0104953889,0.0],"max":[0.0104999999,0.010482925,0.00600000005]},{"bufferView":17,"byteOffset":0,"componentType":5126,"count":3582,"type":"VEC3"},{"bufferView":18,"byteOffset":0,"componentType":5126,"count":3582,"type":"VEC2"}],"materials":[{"pbrMetallicRoughness":{"baseColorFactor":[0.32215,0.32215,0.32215,1],"metallicFactor":0.0,"roughnessFactor":0.9}},{"name":"color","pbrMetallicRoughness":{"baseColorFactor":[0.766255,0.615517,0.113054,1],"metallicFactor":0.0,"roughnessFactor":0.9}},{"name":"polished steel","pbrMetallicRoughness":{"baseColorFactor":[0.552047,0.538106,0.524165,1],"metallicFactor":0.0,"roughnessFactor":0.9}},{"name":"color-2","pbrMetallicRoughness":{"baseColorFactor":[0.597679,0.480103,0.088182,1],"metallicFactor":0.0,"roughnessFactor":0.9}},{"name":"color-1","pbrMetallicRoughness":{"baseColorFactor":[0.144709,0.144709,0.144709,1],"metallicFactor":0.0,"roughnessFactor":0.9}}],"bufferViews":[{"buffer":0,"byteOffset":0,"byteLength":88416,"byteStride":12,"target":34962},{"buffer":0,"byteOffset":88416,"byteLength":88416,"byteStride":12,"target":34962},{"buffer":0,"byteOffset":176832,"byteLength":58944,"byteStride":8,"target":34962},{"buffer":0,"byteOffset":235776,"byteLength":14736,"target":34963},{"buffer":1,"byteOffset":0,"byteLength":3456,"byteStride":12,"target":34962},{"buffer":1,"byteOffset":3456,"byteLength":3456,"byteStride":12,"target":34962},{"buffer":1,"byteOffset":6912,"byteLength":2304,"byteStride":8,"target":34962},{"buffer":1,"byteOffset":9216,"byteLength":576,"target":34963},{"buffer":2,"byteOffset":0,"byteLength":116712,"byteStride":12,"target":34962},{"buffer":2,"byteOffset":116712,"byteLength":116712,"byteStride":12,"target":34962},{"buffer":2,"byteOffset":233424,"byteLength":77808,"byteStride":8,"target":34962},{"buffer":2,"byteOffset":311232,"byteLength":19452,"target":34963},{"buffer":3,"byteOffset":0,"byteLength":42984,"byteStride":12,"target":34962},{"buffer":3,"byteOffset":42984,"byteLength":42984,"byteStride":12,"target":34962},{"buffer":3,"byteOffset":85968,"byteLength":28656,"byteStride":8,"target":34962},{"buffer":3,"byteOffset":114624,"byteLength":7164,"target":34963},{"buffer":4,"byteOffset":0,"byteLength":42984,"byteStride":12,"target":34962},{"buffer":4,"byteOffset":42984,"byteLength":42984,"byteStride":12,"target":34962},{"buffer":4,"byteOffset":85968,"byteLength":28656,"byteStride":8,"target":34962},{"buffer":4,"byteOffset":114624,"byteLength":7164,"target":34963}],"buffers":[{"byteLength":250512,"uri":"BIdone_inf-1.bin"},{"byteLength":9792,"uri":"Porta_ruote_bidone-1.bin"},{"byteLength":330684,"uri":"BIdone_sup-1.bin"},{"byteLength":121788,"uri":"Ruota_bidone-1.bin"},{"byteLength":121788,"uri":"Ruota_bidone-3.bin"}]}