{"asset":{"generator":"SOLIDWORKSGLTF","version":"2.0","extras":{"siteFinish":"matte-v1","siteTone":"tone-v1"}},"extensionsUsed":["KHR_lights_punctual","Solidworks_custom_properties"],"scene":0,"scenes":[{"name":"Default - Stato di visualizzazione-1","nodes":[0,1]}],"nodes":[{"matrix":[0.967332,-0.162543,0.194544,0,0.25141,0.713683,-0.653797,0,-0.0325726,0.681349,0.731234,0,-0.0231316,0.652114,0.669132,1],"camera":0,"name":"current"},{"children":[2,3],"name":"Lima"},{"matrix":[1,0,0,0,0,1,0,0,0,0,1,0,1.51788e-18,0.0233766,0,1],"mesh":0,"name":"Lima_top-1"},{"mesh":1,"name":"Lima-1"}],"cameras":[{"type":"orthographic","orthographic":{"xmag":1,"ymag":1,"zfar":100,"znear":0.01}}],"meshes":[{"primitives":[{"attributes":{"POSITION":1,"NORMAL":2,"TEXCOORD_0":3},"indices":0,"mode":4,"material":1}]},{"primitives":[{"attributes":{"POSITION":5,"NORMAL":6,"TEXCOORD_0":7},"indices":4,"mode":4,"material":2},{"attributes":{"POSITION":9,"NORMAL":10,"TEXCOORD_0":11},"indices":8,"mode":4,"material":3}]}],"accessors":[{"bufferView":3,"byteOffset":0,"componentType":5123,"count":1584,"type":"SCALAR"},{"bufferView":0,"byteOffset":0,"componentType":5126,"count":1584,"type":"VEC3","min":[-0.0145659084,-3.02199683e-18,-0.0149999997],"max":[0.0145659084,0.00800000038,0.0149999997]},{"bufferView":1,"byteOffset":0,"componentType":5126,"count":1584,"type":"VEC3"},{"bufferView":2,"byteOffset":0,"componentType":5126,"count":1584,"type":"VEC2"},{"bufferView":7,"byteOffset":0,"componentType":5123,"count":1308,"type":"SCALAR"},{"bufferView":4,"byteOffset":0,"componentType":5126,"count":1308,"type":"VEC3","min":[-0.0458013564,-0.00039999999,-0.0144999996],"max":[0.0458013564,0.0304000005,0.0144999996]},{"bufferView":5,"byteOffset":0,"componentType":5126,"count":1308,"type":"VEC3"},{"bufferView":6,"byteOffset":0,"componentType":5126,"count":1308,"type":"VEC2"},{"bufferView":7,"byteOffset":2616,"componentType":5123,"count":2688,"type":"SCALAR"},{"bufferView":4,"byteOffset":15696,"componentType":5126,"count":2688,"type":"VEC3","min":[-0.0454020873,4.33680869e-18,-0.0149999997],"max":[0.0454020873,0.0299999993,0.0149999997]},{"bufferView":5,"byteOffset":15696,"componentType":5126,"count":2688,"type":"VEC3"},{"bufferView":6,"byteOffset":10464,"componentType":5126,"count":2688,"type":"VEC2"}],"materials":[{"pbrMetallicRoughness":{"baseColorFactor":[0.324368,0.324368,0.324368,1],"metallicFactor":0.0,"roughnessFactor":0.9}},{"name":"color-2","pbrMetallicRoughness":{"baseColorFactor":[0.171842,0.171842,0.171842,1],"metallicFactor":0.0,"roughnessFactor":0.9}},{"name":"color-1","pbrMetallicRoughness":{"baseColorFactor":[0.289419,0.0,0.0,1],"metallicFactor":0.0,"roughnessFactor":0.9}},{"name":"color","pbrMetallicRoughness":{"baseColorFactor":[0.602955,0.602955,0.602955,1],"metallicFactor":0.0,"roughnessFactor":0.9}}],"bufferViews":[{"buffer":0,"byteOffset":0,"byteLength":19008,"byteStride":12,"target":34962},{"buffer":0,"byteOffset":19008,"byteLength":19008,"byteStride":12,"target":34962},{"buffer":0,"byteOffset":38016,"byteLength":12672,"byteStride":8,"target":34962},{"buffer":0,"byteOffset":50688,"byteLength":3168,"target":34963},{"buffer":1,"byteOffset":0,"byteLength":47952,"byteStride":12,"target":34962},{"buffer":1,"byteOffset":47952,"byteLength":47952,"byteStride":12,"target":34962},{"buffer":1,"byteOffset":95904,"byteLength":31968,"byteStride":8,"target":34962},{"buffer":1,"byteOffset":127872,"byteLength":7992,"target":34963}],"buffers":[{"byteLength":53856,"uri":"Lima_top-1.bin"},{"byteLength":135864,"uri":"Lima-1.bin"}]}