{"asset":{"generator":"SOLIDWORKSGLTF","version":"2.0","extras":{"siteFinish":"matte-v1","siteTone":"tone-v1"}},"extensionsUsed":["KHR_lights_punctual","Solidworks_custom_properties"],"scene":0,"scenes":[{"name":"Default - Stato di visualizzazione-1","nodes":[0,1]}],"nodes":[{"matrix":[-0.381504,0.0738384,0.921413,0,0.294892,0.954441,0.0456125,0,-0.876067,0.289119,-0.385897,0,-1.91523,0.690221,-0.849833,1],"camera":0,"name":"current"},{"children":[2,3,4,5,6,7,8,9,10,11,12],"name":"Assieme1"},{"matrix":[0,1,0,0,-1,0,0,0,0,0,1,0,-0.04596,-0.0045,-0.04596,1],"mesh":0,"name":"socket head cap screw_iso-1"},{"matrix":[0,1,0,0,-1,0,0,0,0,0,1,0,0.04596,-0.0045,-0.04596,1],"mesh":1,"name":"socket head cap screw_iso-3"},{"matrix":[1,0,0,0,0,1,0,0,0,0,1,0,-2.13236e-18,-0.0015,-1.07284e-19,1],"mesh":2,"name":"Base cover-1"},{"mesh":3,"name":"Base_1-1"},{"matrix":[0,1,0,0,-1,0,0,0,0,0,1,0,-0.04596,-0.0045,0.04596,1],"mesh":4,"name":"socket head cap screw_iso-2"},{"matrix":[0,1,0,0,-1,0,0,0,0,0,1,0,0.04596,-0.0045,0.04596,1],"mesh":5,"name":"socket head cap screw_iso-4"},{"matrix":[1,0,0,0,0,1,0,0,0,0,1,0,0,0.023,0,1],"mesh":6,"name":"Paralume-1"},{"matrix":[8.24428e-17,-2.69772e-18,1,0,-3.39308e-17,-1,-2.69772e-18,0,1,-3.39308e-17,-8.24428e-17,0,-0.048,0.018,3.98504e-18,1],"mesh":7,"name":"Guida USB-1"},{"matrix":[0.347478,0,-0.937688,0,0,1,0,0,0.937688,0,0.347478,0,-2.22092e-17,0.020626,0.055,1],"mesh":8,"name":"Manopola-1"},{"matrix":[1,0,0,0,0,1,0,0,0,0,1,0,-3.66592e-149,0.02,-4.15471e-149,1],"mesh":9,"name":"Porta LED-1"},{"matrix":[1,5.55112e-17,9.82565e-17,0,5.55112e-17,-1,4.63487e-17,0,1.36554e-16,9.43067e-18,-1,0,0.0179494,0.007425,8.12566e-19,1],"name":"Power bank 5000 mAh-1"}],"cameras":[{"type":"orthographic","orthographic":{"xmag":1,"ymag":1,"zfar":100,"znear":0.01}}],"meshes":[{"primitives":[{"attributes":{"POSITION":1,"NORMAL":2,"TEXCOORD_0":3},"indices":0,"mode":4,"material":1}]},{"primitives":[{"attributes":{"POSITION":5,"NORMAL":6,"TEXCOORD_0":7},"indices":4,"mode":4,"material":1}]},{"primitives":[{"attributes":{"POSITION":9,"NORMAL":10,"TEXCOORD_0":11},"indices":8,"mode":4,"material":2}]},{"primitives":[{"attributes":{"POSITION":13,"NORMAL":14,"TEXCOORD_0":15},"indices":12,"mode":4,"material":3}]},{"primitives":[{"attributes":{"POSITION":17,"NORMAL":18,"TEXCOORD_0":19},"indices":16,"mode":4,"material":1}]},{"primitives":[{"attributes":{"POSITION":21,"NORMAL":22,"TEXCOORD_0":23},"indices":20,"mode":4,"material":1}]},{"primitives":[{"attributes":{"POSITION":25,"NORMAL":26,"TEXCOORD_0":27},"indices":24,"mode":4,"material":4}]},{"primitives":[{"attributes":{"POSITION":29,"NORMAL":30,"TEXCOORD_0":31},"indices":28,"mode":4,"material":5}]},{"primitives":[{"attributes":{"POSITION":33,"NORMAL":34,"TEXCOORD_0":35},"indices":32,"mode":4,"material":6}]},{"primitives":[{"attributes":{"POSITION":37,"NORMAL":38,"TEXCOORD_0":39},"indices":36,"mode":4,"material":0}]}],"accessors":[{"bufferView":3,"byteOffset":0,"componentType":5123,"count":5928,"type":"SCALAR"},{"bufferView":0,"byteOffset":0,"componentType":5126,"count":5928,"type":"VEC3","min":[-2.62919027e-18,-0.00274999999,-0.00274999999],"max":[0.0130000003,0.00274999999,0.00274999999]},{"bufferView":1,"byteOffset":0,"componentType":5126,"count":5928,"type":"VEC3"},{"bufferView":2,"byteOffset":0,"componentType":5126,"count":5928,"type":"VEC2"},{"bufferView":7,"byteOffset":0,"componentType":5123,"count":5928,"type":"SCALAR"},{"bufferView":4,"byteOffset":0,"componentType":5126,"count":5928,"type":"VEC3","min":[-2.62919027e-18,-0.00274999999,-0.00274999999],"max":[0.0130000003,0.00274999999,0.00274999999]},{"bufferView":5,"byteOffset":0,"componentType":5126,"count":5928,"type":"VEC3"},{"bufferView":6,"byteOffset":0,"componentType":5126,"count":5928,"type":"VEC2"},{"bufferView":11,"byteOffset":0,"componentType":5123,"count":9060,"type":"SCALAR"},{"bufferView":8,"byteOffset":0,"componentType":5126,"count":9060,"type":"VEC3","min":[-0.0699692592,-0.00300000003,-0.0700000003],"max":[0.0699692592,0.00150000001,0.0700000003]},{"bufferView":9,"byteOffset":0,"componentType":5126,"count":9060,"type":"VEC3"},{"bufferView":10,"byteOffset":0,"componentType":5126,"count":9060,"type":"VEC2"},{"bufferView":15,"byteOffset":0,"componentType":5123,"count":10944,"type":"SCALAR"},{"bufferView":12,"byteOffset":0,"componentType":5126,"count":10944,"type":"VEC3","min":[-0.0710000023,0.0,-0.0700000003],"max":[0.0700000003,0.0199999996,0.0700000003]},{"bufferView":13,"byteOffset":0,"componentType":5126,"count":10944,"type":"VEC3"},{"bufferView":14,"byteOffset":0,"componentType":5126,"count":10944,"type":"VEC2"},{"bufferView":19,"byteOffset":0,"componentType":5123,"count":5928,"type":"SCALAR"},{"bufferView":16,"byteOffset":0,"componentType":5126,"count":5928,"type":"VEC3","min":[-2.62919027e-18,-0.00274999999,-0.00274999999],"max":[0.0130000003,0.00274999999,0.00274999999]},{"bufferView":17,"byteOffset":0,"componentType":5126,"count":5928,"type":"VEC3"},{"bufferView":18,"byteOffset":0,"componentType":5126,"count":5928,"type":"VEC2"},{"bufferView":23,"byteOffset":0,"componentType":5123,"count":5928,"type":"SCALAR"},{"bufferView":20,"byteOffset":0,"componentType":5126,"count":5928,"type":"VEC3","min":[-2.62919027e-18,-0.00274999999,-0.00274999999],"max":[0.0130000003,0.00274999999,0.00274999999]},{"bufferView":21,"byteOffset":0,"componentType":5126,"count":5928,"type":"VEC3"},{"bufferView":22,"byteOffset":0,"componentType":5126,"count":5928,"type":"VEC2"},{"bufferView":27,"byteOffset":0,"componentType":5123,"count":4212,"type":"SCALAR"},{"bufferView":24,"byteOffset":0,"componentType":5126,"count":4212,"type":"VEC3","min":[-0.0425000004,-0.00549999997,-0.0425000004],"max":[0.0425000004,0.0799999982,0.0425000004]},{"bufferView":25,"byteOffset":0,"componentType":5126,"count":4212,"type":"VEC3"},{"bufferView":26,"byteOffset":0,"componentType":5126,"count":4212,"type":"VEC2"},{"bufferView":31,"byteOffset":0,"componentType":5123,"count":3726,"type":"SCALAR"},{"bufferView":28,"byteOffset":0,"componentType":5126,"count":3726,"type":"VEC3","min":[-0.00650000013,-1.30104261e-18,-0.0199999996],"max":[0.00650000013,0.0167799201,0.0199999996]},{"bufferView":29,"byteOffset":0,"componentType":5126,"count":3726,"type":"VEC3"},{"bufferView":30,"byteOffset":0,"componentType":5126,"count":3726,"type":"VEC2"},{"bufferView":35,"byteOffset":0,"componentType":5123,"count":2724,"type":"SCALAR"},{"bufferView":32,"byteOffset":0,"componentType":5126,"count":2724,"type":"VEC3","min":[-0.00999525748,0.0,-0.00999999978],"max":[0.00999525748,0.0125000002,0.00999999978]},{"bufferView":33,"byteOffset":0,"componentType":5126,"count":2724,"type":"VEC3"},{"bufferView":34,"byteOffset":0,"componentType":5126,"count":2724,"type":"VEC2"},{"bufferView":39,"byteOffset":0,"componentType":5123,"count":30792,"type":"SCALAR"},{"bufferView":36,"byteOffset":0,"componentType":5126,"count":30792,"type":"VEC3","min":[-0.019999994,-0.00249999994,-0.0199996959],"max":[0.0199999362,0.075000003,0.0199997891]},{"bufferView":37,"byteOffset":0,"componentType":5126,"count":30792,"type":"VEC3"},{"bufferView":38,"byteOffset":0,"componentType":5126,"count":30792,"type":"VEC2"}],"materials":[{"pbrMetallicRoughness":{"baseColorFactor":[0.287157,0.287157,0.287157,1],"metallicFactor":0.0,"roughnessFactor":0.9}},{"name":"satin finish stainless steel","pbrMetallicRoughness":{"baseColorFactor":[0.783405,0.743467,0.712745,1],"metallicFactor":0.0,"roughnessFactor":0.9}},{"name":"pw-mt11080-1","pbrMetallicRoughness":{"baseColorFactor":[0.144709,0.144709,0.144709,1],"metallicFactor":0.0,"roughnessFactor":0.9}},{"name":"pw-mt11080","pbrMetallicRoughness":{"baseColorFactor":[0.128791,0.128791,0.128791,1],"metallicFactor":0.0,"roughnessFactor":0.9}},{"name":"pw-mt11050","pbrMetallicRoughness":{"baseColorFactor":[0.8008,0.8008,0.8008,1],"metallicFactor":0.0,"roughnessFactor":0.9}},{"name":"pw-mt11080-2","pbrMetallicRoughness":{"baseColorFactor":[0.112873,0.112873,0.112873,1],"metallicFactor":0.0,"roughnessFactor":0.9}},{"name":"pw-mt11050-1","pbrMetallicRoughness":{"baseColorFactor":[0.707119,0.560149,0.005546,1],"metallicFactor":0.0,"roughnessFactor":0.9}}],"textures":[{"sampler":0,"source":0,"name":"n_satinwood_n.png"},{"sampler":1,"source":1,"name":"n_plasticmt11080_normalmap.png"},{"sampler":2,"source":2,"name":"n_plasticmt11050_normalmap.png"}],"images":[{"uri":"n_satinwood_n.png"},{"uri":"n_plasticmt11080_normalmap.png"},{"uri":"n_plasticmt11050_normalmap.png"}],"samplers":[{"magFilter":9729,"minFilter":9729,"wrapS":10497,"wrapT":10497,"name":"DefaultSampler"},{"magFilter":9729,"minFilter":9729,"wrapS":10497,"wrapT":10497,"name":"DefaultSampler"},{"magFilter":9729,"minFilter":9729,"wrapS":10497,"wrapT":10497,"name":"DefaultSampler"}],"bufferViews":[{"buffer":0,"byteOffset":0,"byteLength":71136,"byteStride":12,"target":34962},{"buffer":0,"byteOffset":71136,"byteLength":71136,"byteStride":12,"target":34962},{"buffer":0,"byteOffset":142272,"byteLength":47424,"byteStride":8,"target":34962},{"buffer":0,"byteOffset":189696,"byteLength":11856,"target":34963},{"buffer":1,"byteOffset":0,"byteLength":71136,"byteStride":12,"target":34962},{"buffer":1,"byteOffset":71136,"byteLength":71136,"byteStride":12,"target":34962},{"buffer":1,"byteOffset":142272,"byteLength":47424,"byteStride":8,"target":34962},{"buffer":1,"byteOffset":189696,"byteLength":11856,"target":34963},{"buffer":2,"byteOffset":0,"byteLength":108720,"byteStride":12,"target":34962},{"buffer":2,"byteOffset":108720,"byteLength":108720,"byteStride":12,"target":34962},{"buffer":2,"byteOffset":217440,"byteLength":72480,"byteStride":8,"target":34962},{"buffer":2,"byteOffset":289920,"byteLength":18120,"target":34963},{"buffer":3,"byteOffset":0,"byteLength":131328,"byteStride":12,"target":34962},{"buffer":3,"byteOffset":131328,"byteLength":131328,"byteStride":12,"target":34962},{"buffer":3,"byteOffset":262656,"byteLength":87552,"byteStride":8,"target":34962},{"buffer":3,"byteOffset":350208,"byteLength":21888,"target":34963},{"buffer":4,"byteOffset":0,"byteLength":71136,"byteStride":12,"target":34962},{"buffer":4,"byteOffset":71136,"byteLength":71136,"byteStride":12,"target":34962},{"buffer":4,"byteOffset":142272,"byteLength":47424,"byteStride":8,"target":34962},{"buffer":4,"byteOffset":189696,"byteLength":11856,"target":34963},{"buffer":5,"byteOffset":0,"byteLength":71136,"byteStride":12,"target":34962},{"buffer":5,"byteOffset":71136,"byteLength":71136,"byteStride":12,"target":34962},{"buffer":5,"byteOffset":142272,"byteLength":47424,"byteStride":8,"target":34962},{"buffer":5,"byteOffset":189696,"byteLength":11856,"target":34963},{"buffer":6,"byteOffset":0,"byteLength":50544,"byteStride":12,"target":34962},{"buffer":6,"byteOffset":50544,"byteLength":50544,"byteStride":12,"target":34962},{"buffer":6,"byteOffset":101088,"byteLength":33696,"byteStride":8,"target":34962},{"buffer":6,"byteOffset":134784,"byteLength":8424,"target":34963},{"buffer":7,"byteOffset":0,"byteLength":44712,"byteStride":12,"target":34962},{"buffer":7,"byteOffset":44712,"byteLength":44712,"byteStride":12,"target":34962},{"buffer":7,"byteOffset":89424,"byteLength":29808,"byteStride":8,"target":34962},{"buffer":7,"byteOffset":119232,"byteLength":7452,"target":34963},{"buffer":8,"byteOffset":0,"byteLength":32688,"byteStride":12,"target":34962},{"buffer":8,"byteOffset":32688,"byteLength":32688,"byteStride":12,"target":34962},{"buffer":8,"byteOffset":65376,"byteLength":21792,"byteStride":8,"target":34962},{"buffer":8,"byteOffset":87168,"byteLength":5448,"target":34963},{"buffer":9,"byteOffset":0,"byteLength":369504,"byteStride":12,"target":34962},{"buffer":9,"byteOffset":369504,"byteLength":369504,"byteStride":12,"target":34962},{"buffer":9,"byteOffset":739008,"byteLength":246336,"byteStride":8,"target":34962},{"buffer":9,"byteOffset":985344,"byteLength":61584,"target":34963}],"buffers":[{"byteLength":201552,"uri":"socket_head_cap_screw_iso-1.bin"},{"byteLength":201552,"uri":"socket_head_cap_screw_iso-3.bin"},{"byteLength":308040,"uri":"Base_cover-1.bin"},{"byteLength":372096,"uri":"Base_1-1.bin"},{"byteLength":201552,"uri":"socket_head_cap_screw_iso-2.bin"},{"byteLength":201552,"uri":"socket_head_cap_screw_iso-4.bin"},{"byteLength":143208,"uri":"Paralume-1.bin"},{"byteLength":126684,"uri":"Guida_USB-1.bin"},{"byteLength":92616,"uri":"Manopola-1.bin"},{"byteLength":1046928,"uri":"Porta_LED-1.bin"}]}