{"asset":{"generator":"SOLIDWORKSGLTF","version":"2.0","extras":{"siteFinish":"matte-v1","siteTone":"tone-v1"}},"extensionsUsed":["KHR_lights_punctual","Solidworks_custom_properties"],"scene":0,"scenes":[{"name":"Default - <Default>_Stato di visualizzazione 1","nodes":[0,1]}],"nodes":[{"matrix":[-0.889591,-0.144751,0.433215,0,-0.136894,0.98935,0.0494661,0,-0.435761,-0.0152999,-0.899932,0,-0.516867,-0.0684733,-1.24988,1],"camera":0,"name":"current"},{"mesh":0,"name":"Corpo principale.SLDPRT"}],"cameras":[{"type":"orthographic","orthographic":{"xmag":1,"ymag":1,"zfar":100,"znear":0.01}}],"meshes":[{"primitives":[{"attributes":{"POSITION":1,"NORMAL":2,"TEXCOORD_0":3},"indices":0,"mode":4,"material":1}]}],"accessors":[{"bufferView":3,"byteOffset":0,"componentType":5123,"count":27714,"type":"SCALAR"},{"bufferView":0,"byteOffset":0,"componentType":5126,"count":27714,"type":"VEC3","min":[-8.67361738e-19,-0.112571843,-0.0160000008],"max":[0.138349727,0.0170000009,0.0160000008]},{"bufferView":1,"byteOffset":0,"componentType":5126,"count":27714,"type":"VEC3"},{"bufferView":2,"byteOffset":0,"componentType":5126,"count":27714,"type":"VEC2"}],"materials":[{"pbrMetallicRoughness":{"baseColorFactor":[0.356305,0.356305,0.356305,1],"metallicFactor":0.0,"roughnessFactor":0.9}},{"name":"matte steel","pbrMetallicRoughness":{"baseColorFactor":[0.521304,0.496182,0.471059,1],"metallicFactor":0.0,"roughnessFactor":0.9}}],"bufferViews":[{"buffer":0,"byteOffset":0,"byteLength":332568,"byteStride":12,"target":34962},{"buffer":0,"byteOffset":332568,"byteLength":332568,"byteStride":12,"target":34962},{"buffer":0,"byteOffset":665136,"byteLength":221712,"byteStride":8,"target":34962},{"buffer":0,"byteOffset":886848,"byteLength":55428,"target":34963}],"buffers":[{"byteLength":942276,"uri":"Corpo_principale.SLDPRT.bin"}]}