{"asset":{"generator":"SOLIDWORKSGLTF","version":"2.0","extras":{"siteFinish":"matte-v1","siteTone":"tone-v1"}},"extensionsUsed":["KHR_lights_punctual","Solidworks_custom_properties"],"scene":0,"scenes":[{"name":"Default - Stato di visualizzazione-1","nodes":[0,1]}],"nodes":[{"matrix":[-0.535281,-0.110086,0.83747,0,0.237305,0.93194,0.274181,0,-0.810654,0.345499,-0.472726,0,-1.15742,0.49267,-0.64475,1],"camera":0,"name":"current"},{"children":[2,3,4,5,6,7,8,9,10,11,12,13,14,15,16,17,18,19,20,21],"name":"Cuscinetto"},{"matrix":[1,6.15783e-24,-3.20149e-24,0,-1.64174e-18,-0.732677,-0.680576,0,-1.84451e-18,0.680576,-0.732677,0,0,0,0,1],"mesh":0,"name":"Pista interna-1"},{"matrix":[1,8.67157e-22,-3.95972e-23,0,1.16655e-22,0.0368411,0.999321,0,7.1687e-22,-0.999321,0.0368411,0,1.06259e-18,-0.00165785,-0.0449695,1],"mesh":1,"name":"Sfera-4"},{"matrix":[-1.10284e-17,-0.732677,-0.680576,0,1.84607e-18,0.680576,-0.732677,0,1,-9.33667e-18,-6.15312e-18,0,-0.008,-3.94653e-19,1.13503e-20,1],"mesh":2,"name":"Gabbia-2"},{"matrix":[1,5.89241e-22,-6.37756e-22,0,1.1135e-22,0.732677,0.680576,0,7.17135e-22,-0.680576,0.732677,0,1.06259e-18,-0.0329705,-0.0306259,1],"mesh":3,"name":"Sfera-5"},{"matrix":[1,4.25536e-23,8.57798e-22,0,1.09224e-23,-0.999321,0.0368411,0,8.58783e-22,-0.0368411,-0.999321,0,1.06259e-18,0.0449695,-0.00165785,1],"mesh":4,"name":"Sfera-2"},{"matrix":[1,-3.02379e-23,-8.64201e-22,0,-1.62075e-24,0.999321,-0.0368411,0,8.64728e-22,0.0368411,0.999321,0,1.06259e-18,-0.0449695,0.00165785,1],"mesh":5,"name":"Sfera-6"},{"matrix":[1,6.40712e-22,5.79881e-22,0,1.20219e-22,-0.680576,0.732677,0,7.12932e-22,-0.732677,-0.680576,0,-1.06259e-18,0.0306259,-0.0329705,1],"mesh":6,"name":"Sfera-3"},{"matrix":[1,-6.28396e-22,-5.86284e-22,0,1.07146e-22,0.680576,-0.732677,0,7.08266e-22,0.732677,0.680576,0,1.06259e-18,-0.0306259,0.0329705,1],"mesh":7,"name":"Sfera-7"},{"matrix":[1,-8.54841e-22,3.31943e-23,0,1.1071e-22,-0.0368411,-0.999321,0,7.04327e-22,0.999321,-0.0368411,0,1.06259e-18,0.00165785,0.0449695,1],"mesh":8,"name":"Sfera-8"},{"mesh":9,"name":"Pista esterna-1"},{"matrix":[-1.10284e-17,0.732677,0.680576,0,-1.84607e-18,0.680576,-0.732677,0,-1,-9.33661e-18,-6.15317e-18,0,0.008,-3.94653e-19,1.13503e-20,1],"mesh":10,"name":"Gabbia-1"},{"matrix":[-1,-1.86732e-17,-1.23063e-17,0,-4.24346e-18,-0.381849,0.924225,0,-2.19574e-17,0.924225,0.381849,0,-0.0015,-0.0409119,0.0187407,1],"mesh":11,"name":"rivet 02_din-7"},{"matrix":[1,-5.76925e-22,6.31353e-22,0,1.16015e-22,-0.732677,-0.680576,0,7.04062e-22,0.680576,-0.732677,0,1.04723e-18,0.0329705,0.0306259,1],"mesh":12,"name":"Sfera-1"},{"matrix":[-1,-1.86732e-17,-1.23063e-17,0,-4.24346e-18,-0.381849,0.924225,0,-2.19574e-17,0.924225,0.381849,0,-0.0015,0.0421808,0.0156774,1],"mesh":13,"name":"rivet 02_din-10"},{"matrix":[-1,-1.86732e-17,-1.23063e-17,0,-4.24346e-18,-0.381849,0.924225,0,-2.19574e-17,0.924225,0.381849,0,-0.0015,-0.0187407,-0.0409119,1],"mesh":14,"name":"rivet 02_din-5"},{"matrix":[1,0,0,0,0,1,0,0,0,0,1,0,0.0015,0.0409119,-0.0187407,1],"mesh":15,"name":"rivet 02_din-3"},{"matrix":[-1,-1.86732e-17,-1.23063e-17,0,-4.24346e-18,-0.381849,0.924225,0,-2.19574e-17,0.924225,0.381849,0,-0.0015,-0.0421808,-0.0156774,1],"mesh":16,"name":"rivet 02_din-6"},{"matrix":[-1,-1.86732e-17,-1.23063e-17,0,-4.24346e-18,-0.381849,0.924225,0,-2.19574e-17,0.924225,0.381849,0,-0.0015,0.0156774,-0.0421808,1],"mesh":17,"name":"rivet 02_din-4"},{"matrix":[-1,-1.86732e-17,-1.23063e-17,0,-4.24346e-18,-0.381849,0.924225,0,-2.19574e-17,0.924225,0.381849,0,-0.0015,-0.0156774,0.0421808,1],"mesh":18,"name":"rivet 02_din-8"},{"matrix":[-1,-1.86732e-17,-1.23063e-17,0,-4.24346e-18,-0.381849,0.924225,0,-2.19574e-17,0.924225,0.381849,0,-0.0015,0.0187407,0.0409119,1],"mesh":19,"name":"rivet 02_din-9"}],"cameras":[{"type":"orthographic","orthographic":{"xmag":1,"ymag":1,"zfar":100,"znear":0.01}}],"meshes":[{"primitives":[{"attributes":{"POSITION":1,"NORMAL":2,"TEXCOORD_0":3},"indices":0,"mode":4,"material":0}]},{"primitives":[{"attributes":{"POSITION":5,"NORMAL":6,"TEXCOORD_0":7},"indices":4,"mode":4,"material":1}]},{"primitives":[{"attributes":{"POSITION":9,"NORMAL":10,"TEXCOORD_0":11},"indices":8,"mode":4,"material":3}]},{"primitives":[{"attributes":{"POSITION":13,"NORMAL":14,"TEXCOORD_0":15},"indices":12,"mode":4,"material":1}]},{"primitives":[{"attributes":{"POSITION":17,"NORMAL":18,"TEXCOORD_0":19},"indices":16,"mode":4,"material":1}]},{"primitives":[{"attributes":{"POSITION":21,"NORMAL":22,"TEXCOORD_0":23},"indices":20,"mode":4,"material":1}]},{"primitives":[{"attributes":{"POSITION":25,"NORMAL":26,"TEXCOORD_0":27},"indices":24,"mode":4,"material":1}]},{"primitives":[{"attributes":{"POSITION":29,"NORMAL":30,"TEXCOORD_0":31},"indices":28,"mode":4,"material":1}]},{"primitives":[{"attributes":{"POSITION":33,"NORMAL":34,"TEXCOORD_0":35},"indices":32,"mode":4,"material":1}]},{"primitives":[{"attributes":{"POSITION":37,"NORMAL":38,"TEXCOORD_0":39},"indices":36,"mode":4,"material":0}]},{"primitives":[{"attributes":{"POSITION":41,"NORMAL":42,"TEXCOORD_0":43},"indices":40,"mode":4,"material":3}]},{"primitives":[{"attributes":{"POSITION":45,"NORMAL":46,"TEXCOORD_0":47},"indices":44,"mode":4,"material":2}]},{"primitives":[{"attributes":{"POSITION":49,"NORMAL":50,"TEXCOORD_0":51},"indices":48,"mode":4,"material":1}]},{"primitives":[{"attributes":{"POSITION":53,"NORMAL":54,"TEXCOORD_0":55},"indices":52,"mode":4,"material":2}]},{"primitives":[{"attributes":{"POSITION":57,"NORMAL":58,"TEXCOORD_0":59},"indices":56,"mode":4,"material":2}]},{"primitives":[{"attributes":{"POSITION":61,"NORMAL":62,"TEXCOORD_0":63},"indices":60,"mode":4,"material":2}]},{"primitives":[{"attributes":{"POSITION":65,"NORMAL":66,"TEXCOORD_0":67},"indices":64,"mode":4,"material":2}]},{"primitives":[{"attributes":{"POSITION":69,"NORMAL":70,"TEXCOORD_0":71},"indices":68,"mode":4,"material":2}]},{"primitives":[{"attributes":{"POSITION":73,"NORMAL":74,"TEXCOORD_0":75},"indices":72,"mode":4,"material":2}]},{"primitives":[{"attributes":{"POSITION":77,"NORMAL":78,"TEXCOORD_0":79},"indices":76,"mode":4,"material":2}]}],"accessors":[{"bufferView":3,"byteOffset":0,"componentType":5123,"count":12798,"type":"SCALAR"},{"bufferView":0,"byteOffset":0,"componentType":5126,"count":12798,"type":"VEC3","min":[-0.0154999997,-0.0370000005,-0.0370000005],"max":[0.0154999997,0.0370000005,0.0370000005]},{"bufferView":1,"byteOffset":0,"componentType":5126,"count":12798,"type":"VEC3"},{"bufferView":2,"byteOffset":0,"componentType":5126,"count":12798,"type":"VEC2"},{"bufferView":7,"byteOffset":0,"componentType":5123,"count":13464,"type":"SCALAR"},{"bufferView":4,"byteOffset":0,"componentType":5126,"count":13464,"type":"VEC3","min":[-0.0120000001,-0.0120000001,-0.0120000001],"max":[0.0120000001,0.0120000001,0.0120000001]},{"bufferView":5,"byteOffset":0,"componentType":5126,"count":13464,"type":"VEC3"},{"bufferView":6,"byteOffset":0,"componentType":5126,"count":13464,"type":"VEC2"},{"bufferView":11,"byteOffset":0,"componentType":5123,"count":22440,"type":"SCALAR"},{"bufferView":8,"byteOffset":0,"componentType":5126,"count":22440,"type":"VEC3","min":[-0.0469999984,-0.0469999947,-0.00546129001],"max":[0.0469999984,0.0469999984,0.00800000038]},{"bufferView":9,"byteOffset":0,"componentType":5126,"count":22440,"type":"VEC3"},{"bufferView":10,"byteOffset":0,"componentType":5126,"count":22440,"type":"VEC2"},{"bufferView":15,"byteOffset":0,"componentType":5123,"count":13464,"type":"SCALAR"},{"bufferView":12,"byteOffset":0,"componentType":5126,"count":13464,"type":"VEC3","min":[-0.0120000001,-0.0120000001,-0.0120000001],"max":[0.0120000001,0.0120000001,0.0120000001]},{"bufferView":13,"byteOffset":0,"componentType":5126,"count":13464,"type":"VEC3"},{"bufferView":14,"byteOffset":0,"componentType":5126,"count":13464,"type":"VEC2"},{"bufferView":19,"byteOffset":0,"componentType":5123,"count":13464,"type":"SCALAR"},{"bufferView":16,"byteOffset":0,"componentType":5126,"count":13464,"type":"VEC3","min":[-0.0120000001,-0.0120000001,-0.0120000001],"max":[0.0120000001,0.0120000001,0.0120000001]},{"bufferView":17,"byteOffset":0,"componentType":5126,"count":13464,"type":"VEC3"},{"bufferView":18,"byteOffset":0,"componentType":5126,"count":13464,"type":"VEC2"},{"bufferView":23,"byteOffset":0,"componentType":5123,"count":13464,"type":"SCALAR"},{"bufferView":20,"byteOffset":0,"componentType":5126,"count":13464,"type":"VEC3","min":[-0.0120000001,-0.0120000001,-0.0120000001],"max":[0.0120000001,0.0120000001,0.0120000001]},{"bufferView":21,"byteOffset":0,"componentType":5126,"count":13464,"type":"VEC3"},{"bufferView":22,"byteOffset":0,"componentType":5126,"count":13464,"type":"VEC2"},{"bufferView":27,"byteOffset":0,"componentType":5123,"count":13464,"type":"SCALAR"},{"bufferView":24,"byteOffset":0,"componentType":5126,"count":13464,"type":"VEC3","min":[-0.0120000001,-0.0120000001,-0.0120000001],"max":[0.0120000001,0.0120000001,0.0120000001]},{"bufferView":25,"byteOffset":0,"componentType":5126,"count":13464,"type":"VEC3"},{"bufferView":26,"byteOffset":0,"componentType":5126,"count":13464,"type":"VEC2"},{"bufferView":31,"byteOffset":0,"componentType":5123,"count":13464,"type":"SCALAR"},{"bufferView":28,"byteOffset":0,"componentType":5126,"count":13464,"type":"VEC3","min":[-0.0120000001,-0.0120000001,-0.0120000001],"max":[0.0120000001,0.0120000001,0.0120000001]},{"bufferView":29,"byteOffset":0,"componentType":5126,"count":13464,"type":"VEC3"},{"bufferView":30,"byteOffset":0,"componentType":5126,"count":13464,"type":"VEC2"},{"bufferView":35,"byteOffset":0,"componentType":5123,"count":13464,"type":"SCALAR"},{"bufferView":32,"byteOffset":0,"componentType":5126,"count":13464,"type":"VEC3","min":[-0.0120000001,-0.0120000001,-0.0120000001],"max":[0.0120000001,0.0120000001,0.0120000001]},{"bufferView":33,"byteOffset":0,"componentType":5126,"count":13464,"type":"VEC3"},{"bufferView":34,"byteOffset":0,"componentType":5126,"count":13464,"type":"VEC2"},{"bufferView":39,"byteOffset":0,"componentType":5123,"count":12258,"type":"SCALAR"},{"bufferView":36,"byteOffset":0,"componentType":5126,"count":12258,"type":"VEC3","min":[-0.0154999997,-0.0649857447,-0.0649999976],"max":[0.0154999997,0.0649857447,0.0649999976]},{"bufferView":37,"byteOffset":0,"componentType":5126,"count":12258,"type":"VEC3"},{"bufferView":38,"byteOffset":0,"componentType":5126,"count":12258,"type":"VEC2"},{"bufferView":43,"byteOffset":0,"componentType":5123,"count":22440,"type":"SCALAR"},{"bufferView":40,"byteOffset":0,"componentType":5126,"count":22440,"type":"VEC3","min":[-0.0469999984,-0.0469999947,-0.00546129001],"max":[0.0469999984,0.0469999984,0.00800000038]},{"bufferView":41,"byteOffset":0,"componentType":5126,"count":22440,"type":"VEC3"},{"bufferView":42,"byteOffset":0,"componentType":5126,"count":22440,"type":"VEC2"},{"bufferView":47,"byteOffset":0,"componentType":5123,"count":10566,"type":"SCALAR"},{"bufferView":44,"byteOffset":0,"componentType":5126,"count":10566,"type":"VEC3","min":[-0.00419999985,-0.00174948899,-0.00174795638],"max":[0.00120000006,0.00174948899,0.00175000005]},{"bufferView":45,"byteOffset":0,"componentType":5126,"count":10566,"type":"VEC3"},{"bufferView":46,"byteOffset":0,"componentType":5126,"count":10566,"type":"VEC2"},{"bufferView":51,"byteOffset":0,"componentType":5123,"count":13464,"type":"SCALAR"},{"bufferView":48,"byteOffset":0,"componentType":5126,"count":13464,"type":"VEC3","min":[-0.0120000001,-0.0120000001,-0.0120000001],"max":[0.0120000001,0.0120000001,0.0120000001]},{"bufferView":49,"byteOffset":0,"componentType":5126,"count":13464,"type":"VEC3"},{"bufferView":50,"byteOffset":0,"componentType":5126,"count":13464,"type":"VEC2"},{"bufferView":55,"byteOffset":0,"componentType":5123,"count":10566,"type":"SCALAR"},{"bufferView":52,"byteOffset":0,"componentType":5126,"count":10566,"type":"VEC3","min":[-0.00419999985,-0.00174948899,-0.00174795638],"max":[0.00120000006,0.00174948899,0.00175000005]},{"bufferView":53,"byteOffset":0,"componentType":5126,"count":10566,"type":"VEC3"},{"bufferView":54,"byteOffset":0,"componentType":5126,"count":10566,"type":"VEC2"},{"bufferView":59,"byteOffset":0,"componentType":5123,"count":10566,"type":"SCALAR"},{"bufferView":56,"byteOffset":0,"componentType":5126,"count":10566,"type":"VEC3","min":[-0.00419999985,-0.00174948899,-0.00174795638],"max":[0.00120000006,0.00174948899,0.00175000005]},{"bufferView":57,"byteOffset":0,"componentType":5126,"count":10566,"type":"VEC3"},{"bufferView":58,"byteOffset":0,"componentType":5126,"count":10566,"type":"VEC2"},{"bufferView":63,"byteOffset":0,"componentType":5123,"count":10566,"type":"SCALAR"},{"bufferView":60,"byteOffset":0,"componentType":5126,"count":10566,"type":"VEC3","min":[-0.00419999985,-0.00174948899,-0.00174795638],"max":[0.00120000006,0.00174948899,0.00175000005]},{"bufferView":61,"byteOffset":0,"componentType":5126,"count":10566,"type":"VEC3"},{"bufferView":62,"byteOffset":0,"componentType":5126,"count":10566,"type":"VEC2"},{"bufferView":67,"byteOffset":0,"componentType":5123,"count":10566,"type":"SCALAR"},{"bufferView":64,"byteOffset":0,"componentType":5126,"count":10566,"type":"VEC3","min":[-0.00419999985,-0.00174948899,-0.00174795638],"max":[0.00120000006,0.00174948899,0.00175000005]},{"bufferView":65,"byteOffset":0,"componentType":5126,"count":10566,"type":"VEC3"},{"bufferView":66,"byteOffset":0,"componentType":5126,"count":10566,"type":"VEC2"},{"bufferView":71,"byteOffset":0,"componentType":5123,"count":10566,"type":"SCALAR"},{"bufferView":68,"byteOffset":0,"componentType":5126,"count":10566,"type":"VEC3","min":[-0.00419999985,-0.00174948899,-0.00174795638],"max":[0.00120000006,0.00174948899,0.00175000005]},{"bufferView":69,"byteOffset":0,"componentType":5126,"count":10566,"type":"VEC3"},{"bufferView":70,"byteOffset":0,"componentType":5126,"count":10566,"type":"VEC2"},{"bufferView":75,"byteOffset":0,"componentType":5123,"count":10566,"type":"SCALAR"},{"bufferView":72,"byteOffset":0,"componentType":5126,"count":10566,"type":"VEC3","min":[-0.00419999985,-0.00174948899,-0.00174795638],"max":[0.00120000006,0.00174948899,0.00175000005]},{"bufferView":73,"byteOffset":0,"componentType":5126,"count":10566,"type":"VEC3"},{"bufferView":74,"byteOffset":0,"componentType":5126,"count":10566,"type":"VEC2"},{"bufferView":79,"byteOffset":0,"componentType":5123,"count":10566,"type":"SCALAR"},{"bufferView":76,"byteOffset":0,"componentType":5126,"count":10566,"type":"VEC3","min":[-0.00419999985,-0.00174948899,-0.00174795638],"max":[0.00120000006,0.00174948899,0.00175000005]},{"bufferView":77,"byteOffset":0,"componentType":5126,"count":10566,"type":"VEC3"},{"bufferView":78,"byteOffset":0,"componentType":5126,"count":10566,"type":"VEC2"}],"materials":[{"pbrMetallicRoughness":{"baseColorFactor":[0.34,0.34,0.34,1],"metallicFactor":0.0,"roughnessFactor":0.9}},{"name":"chromium plate","pbrMetallicRoughness":{"baseColorFactor":[0.19,0.19,0.19,1],"metallicFactor":0.0,"roughnessFactor":0.9}},{"name":"satin finish stainless steel","pbrMetallicRoughness":{"baseColorFactor":[0.46,0.27,0.08,1],"metallicFactor":0.0,"roughnessFactor":0.9}},{"pbrMetallicRoughness":{"baseColorFactor":[0.46,0.27,0.08,1],"metallicFactor":0.0,"roughnessFactor":0.9},"name":"material gabbia"}],"textures":[{"sampler":0,"source":0,"name":"n_satinwood_n.png"}],"images":[{"uri":"n_satinwood_n.png"}],"samplers":[{"magFilter":9729,"minFilter":9729,"wrapS":10497,"wrapT":10497,"name":"DefaultSampler"}],"bufferViews":[{"buffer":0,"byteOffset":0,"byteLength":153576,"byteStride":12,"target":34962},{"buffer":0,"byteOffset":153576,"byteLength":153576,"byteStride":12,"target":34962},{"buffer":0,"byteOffset":307152,"byteLength":102384,"byteStride":8,"target":34962},{"buffer":0,"byteOffset":409536,"byteLength":25596,"target":34963},{"buffer":1,"byteOffset":0,"byteLength":161568,"byteStride":12,"target":34962},{"buffer":1,"byteOffset":161568,"byteLength":161568,"byteStride":12,"target":34962},{"buffer":1,"byteOffset":323136,"byteLength":107712,"byteStride":8,"target":34962},{"buffer":1,"byteOffset":430848,"byteLength":26928,"target":34963},{"buffer":2,"byteOffset":0,"byteLength":269280,"byteStride":12,"target":34962},{"buffer":2,"byteOffset":269280,"byteLength":269280,"byteStride":12,"target":34962},{"buffer":2,"byteOffset":538560,"byteLength":179520,"byteStride":8,"target":34962},{"buffer":2,"byteOffset":718080,"byteLength":44880,"target":34963},{"buffer":3,"byteOffset":0,"byteLength":161568,"byteStride":12,"target":34962},{"buffer":3,"byteOffset":161568,"byteLength":161568,"byteStride":12,"target":34962},{"buffer":3,"byteOffset":323136,"byteLength":107712,"byteStride":8,"target":34962},{"buffer":3,"byteOffset":430848,"byteLength":26928,"target":34963},{"buffer":4,"byteOffset":0,"byteLength":161568,"byteStride":12,"target":34962},{"buffer":4,"byteOffset":161568,"byteLength":161568,"byteStride":12,"target":34962},{"buffer":4,"byteOffset":323136,"byteLength":107712,"byteStride":8,"target":34962},{"buffer":4,"byteOffset":430848,"byteLength":26928,"target":34963},{"buffer":5,"byteOffset":0,"byteLength":161568,"byteStride":12,"target":34962},{"buffer":5,"byteOffset":161568,"byteLength":161568,"byteStride":12,"target":34962},{"buffer":5,"byteOffset":323136,"byteLength":107712,"byteStride":8,"target":34962},{"buffer":5,"byteOffset":430848,"byteLength":26928,"target":34963},{"buffer":6,"byteOffset":0,"byteLength":161568,"byteStride":12,"target":34962},{"buffer":6,"byteOffset":161568,"byteLength":161568,"byteStride":12,"target":34962},{"buffer":6,"byteOffset":323136,"byteLength":107712,"byteStride":8,"target":34962},{"buffer":6,"byteOffset":430848,"byteLength":26928,"target":34963},{"buffer":7,"byteOffset":0,"byteLength":161568,"byteStride":12,"target":34962},{"buffer":7,"byteOffset":161568,"byteLength":161568,"byteStride":12,"target":34962},{"buffer":7,"byteOffset":323136,"byteLength":107712,"byteStride":8,"target":34962},{"buffer":7,"byteOffset":430848,"byteLength":26928,"target":34963},{"buffer":8,"byteOffset":0,"byteLength":161568,"byteStride":12,"target":34962},{"buffer":8,"byteOffset":161568,"byteLength":161568,"byteStride":12,"target":34962},{"buffer":8,"byteOffset":323136,"byteLength":107712,"byteStride":8,"target":34962},{"buffer":8,"byteOffset":430848,"byteLength":26928,"target":34963},{"buffer":9,"byteOffset":0,"byteLength":147096,"byteStride":12,"target":34962},{"buffer":9,"byteOffset":147096,"byteLength":147096,"byteStride":12,"target":34962},{"buffer":9,"byteOffset":294192,"byteLength":98064,"byteStride":8,"target":34962},{"buffer":9,"byteOffset":392256,"byteLength":24516,"target":34963},{"buffer":10,"byteOffset":0,"byteLength":269280,"byteStride":12,"target":34962},{"buffer":10,"byteOffset":269280,"byteLength":269280,"byteStride":12,"target":34962},{"buffer":10,"byteOffset":538560,"byteLength":179520,"byteStride":8,"target":34962},{"buffer":10,"byteOffset":718080,"byteLength":44880,"target":34963},{"buffer":11,"byteOffset":0,"byteLength":126792,"byteStride":12,"target":34962},{"buffer":11,"byteOffset":126792,"byteLength":126792,"byteStride":12,"target":34962},{"buffer":11,"byteOffset":253584,"byteLength":84528,"byteStride":8,"target":34962},{"buffer":11,"byteOffset":338112,"byteLength":21132,"target":34963},{"buffer":12,"byteOffset":0,"byteLength":161568,"byteStride":12,"target":34962},{"buffer":12,"byteOffset":161568,"byteLength":161568,"byteStride":12,"target":34962},{"buffer":12,"byteOffset":323136,"byteLength":107712,"byteStride":8,"target":34962},{"buffer":12,"byteOffset":430848,"byteLength":26928,"target":34963},{"buffer":13,"byteOffset":0,"byteLength":126792,"byteStride":12,"target":34962},{"buffer":13,"byteOffset":126792,"byteLength":126792,"byteStride":12,"target":34962},{"buffer":13,"byteOffset":253584,"byteLength":84528,"byteStride":8,"target":34962},{"buffer":13,"byteOffset":338112,"byteLength":21132,"target":34963},{"buffer":14,"byteOffset":0,"byteLength":126792,"byteStride":12,"target":34962},{"buffer":14,"byteOffset":126792,"byteLength":126792,"byteStride":12,"target":34962},{"buffer":14,"byteOffset":253584,"byteLength":84528,"byteStride":8,"target":34962},{"buffer":14,"byteOffset":338112,"byteLength":21132,"target":34963},{"buffer":15,"byteOffset":0,"byteLength":126792,"byteStride":12,"target":34962},{"buffer":15,"byteOffset":126792,"byteLength":126792,"byteStride":12,"target":34962},{"buffer":15,"byteOffset":253584,"byteLength":84528,"byteStride":8,"target":34962},{"buffer":15,"byteOffset":338112,"byteLength":21132,"target":34963},{"buffer":16,"byteOffset":0,"byteLength":126792,"byteStride":12,"target":34962},{"buffer":16,"byteOffset":126792,"byteLength":126792,"byteStride":12,"target":34962},{"buffer":16,"byteOffset":253584,"byteLength":84528,"byteStride":8,"target":34962},{"buffer":16,"byteOffset":338112,"byteLength":21132,"target":34963},{"buffer":17,"byteOffset":0,"byteLength":126792,"byteStride":12,"target":34962},{"buffer":17,"byteOffset":126792,"byteLength":126792,"byteStride":12,"target":34962},{"buffer":17,"byteOffset":253584,"byteLength":84528,"byteStride":8,"target":34962},{"buffer":17,"byteOffset":338112,"byteLength":21132,"target":34963},{"buffer":18,"byteOffset":0,"byteLength":126792,"byteStride":12,"target":34962},{"buffer":18,"byteOffset":126792,"byteLength":126792,"byteStride":12,"target":34962},{"buffer":18,"byteOffset":253584,"byteLength":84528,"byteStride":8,"target":34962},{"buffer":18,"byteOffset":338112,"byteLength":21132,"target":34963},{"buffer":19,"byteOffset":0,"byteLength":126792,"byteStride":12,"target":34962},{"buffer":19,"byteOffset":126792,"byteLength":126792,"byteStride":12,"target":34962},{"buffer":19,"byteOffset":253584,"byteLength":84528,"byteStride":8,"target":34962},{"buffer":19,"byteOffset":338112,"byteLength":21132,"target":34963}],"buffers":[{"byteLength":435132,"uri":"Pista_interna-1.bin"},{"byteLength":457776,"uri":"Sfera-4.bin"},{"byteLength":762960,"uri":"Gabbia-2.bin"},{"byteLength":457776,"uri":"Sfera-5.bin"},{"byteLength":457776,"uri":"Sfera-2.bin"},{"byteLength":457776,"uri":"Sfera-6.bin"},{"byteLength":457776,"uri":"Sfera-3.bin"},{"byteLength":457776,"uri":"Sfera-7.bin"},{"byteLength":457776,"uri":"Sfera-8.bin"},{"byteLength":416772,"uri":"Pista_esterna-1.bin"},{"byteLength":762960,"uri":"Gabbia-1.bin"},{"byteLength":359244,"uri":"rivet_02_din-7.bin"},{"byteLength":457776,"uri":"Sfera-1.bin"},{"byteLength":359244,"uri":"rivet_02_din-10.bin"},{"byteLength":359244,"uri":"rivet_02_din-5.bin"},{"byteLength":359244,"uri":"rivet_02_din-3.bin"},{"byteLength":359244,"uri":"rivet_02_din-6.bin"},{"byteLength":359244,"uri":"rivet_02_din-4.bin"},{"byteLength":359244,"uri":"rivet_02_din-8.bin"},{"byteLength":359244,"uri":"rivet_02_din-9.bin"}]}