{"asset":{"generator":"SOLIDWORKSGLTF","version":"2.0","extras":{"siteFinish":"matte-v1","siteTone":"tone-v1"}},"extensionsUsed":["KHR_lights_punctual","Solidworks_custom_properties"],"scene":0,"scenes":[{"name":"Default - Stato di visualizzazione-1","nodes":[0,1]}],"nodes":[{"matrix":[0.16575,-0.00970644,0.98612,0,0.986158,0.00616963,-0.165695,0,-0.00447569,0.999934,0.0105947,0,0.0220213,2.4095,0.0579527,1],"camera":0,"name":"current"},{"children":[2,3,4,5,6,7,8,9,10,11,12,13,14,15,16,17,18,19,20,21,22,23,24,25,26,27,28,29,30,31],"name":"Three jaw chuck assembly"},{"matrix":[0,1,0,0,0.488481,0,-0.872574,0,-0.872574,0,-0.488481,0,0.03425,-0.0384,-0.0593227,1],"mesh":0,"name":"socket head cap screw_iso-20"},{"matrix":[0,1,0,0,0.642552,0,0.766242,0,0.766242,0,-0.642552,0,-0.03425,-0.0384,-0.0593227,1],"mesh":1,"name":"socket head cap screw_iso-21"},{"matrix":[0,1,0,0,-1,0,0,0,0,0,1,0,-0.0685,-0.0384,4.82253e-16,1],"mesh":2,"name":"socket head cap screw_iso-19"},{"matrix":[0,-1,0,0,1,0,0,0,0,0,1,0,-0.0173553,0.0176,-0.0206832,1],"mesh":3,"name":"socket head cap screw_iso-16"},{"matrix":[0,1,0,0,-1,0,0,0,0,0,1,0,0.03425,-0.0384,0.0593227,1],"mesh":4,"name":"socket head cap screw_iso-17"},{"matrix":[0,1,0,0,-1,0,0,0,0,0,1,0,-0.03425,-0.0384,0.0593227,1],"mesh":5,"name":"socket head cap screw_iso-18"},{"matrix":[0,1,0,0,-1,0,0,0,0,0,1,0,0.0685,-0.0384,0,1],"mesh":6,"name":"socket head cap screw_iso-22"},{"matrix":[0.866025,-7.86408e-17,0.5,0,-7.64554e-17,1,2.89706e-16,0,-0.5,-2.89121e-16,0.866025,0,0.0474149,-5.82483e-17,0.027375,1],"mesh":7,"name":"Jaw base 1-1"},{"matrix":[-0.866025,-1.38778e-16,0.5,0,6.93889e-18,1,-5.55112e-17,0,-0.5,-8.32667e-17,-0.866025,0,-0.0474149,-1.13415e-16,0.027375,1],"mesh":8,"name":"Jaw base 3-1"},{"matrix":[0.883355,-0.468705,-9.08361e-15,0,1.03052e-14,4.16951e-17,1,0,-0.468705,-0.883355,4.86693e-15,0,6.11056e-16,-0.018,0.0585948,1],"mesh":9,"name":"Lock ring-4"},{"matrix":[0.0764819,1.29699e-21,-0.997071,0,-3.2777e-22,-1,-1.32594e-21,0,-0.997071,4.2822e-22,-0.0764819,0,0,0,0,1],"mesh":10,"name":"Scroll plate-1"},{"matrix":[-0.276806,0.832774,-0.479443,0,0.866025,-6.64492e-16,-0.5,0,-0.416387,-0.553613,-0.721204,0,0.0507445,-0.018,-0.0292974,1],"mesh":11,"name":"Lock ring-1"},{"matrix":[0.432984,-0.901401,-2.81306e-15,0,-0.901401,-0.432984,1.07899e-14,0,-1.0944e-14,-2.13616e-15,-1,0,6.33076e-16,-0.018,0.0601303,1],"mesh":12,"name":"Pinion-5"},{"matrix":[0.499206,0.0563473,-0.864649,0,-0.0281736,0.998411,0.0487982,0,0.866025,2.22045e-16,0.5,0,-0.0520744,-0.018,-0.0300652,1],"mesh":13,"name":"Pinion-7"},{"matrix":[-0.349504,0.715114,-0.605358,0,-0.357557,-0.699008,-0.619307,0,-0.866025,2.38698e-15,0.5,0,0.0520744,-0.018,-0.0300652,1],"mesh":14,"name":"Pinion-4"},{"mesh":15,"name":"Chuck housing-1"},{"matrix":[0.139754,-0.960143,-0.242061,0,-0.866025,0,-0.5,0,0.480072,0.279508,-0.831508,0,-0.0507445,-0.018,-0.0292974,1],"mesh":16,"name":"Lock ring-6"},{"matrix":[0.5,0,0.866025,0,0,1,0,0,-0.866025,0,0.5,0,-3.25134e-17,-0.045,0,1],"mesh":17,"name":"Adapter plate-1"},{"matrix":[-6.81417e-15,-2.77556e-17,-1,0,2.09101e-16,1,-2.77556e-17,0,1,-2.09101e-16,-6.81417e-15,0,-1.77139e-16,-7.93482e-18,-0.05475,1],"mesh":18,"name":"Jaw base 2-1"},{"matrix":[5.89806e-17,-1,0,0,1,5.89806e-17,0,0,0,0,1,0,-0.0335585,0.0505,0.019375,1],"mesh":19,"name":"socket head cap screw_iso-6"},{"matrix":[-3.80296e-16,-1,-5.4666e-16,0,1,-3.80296e-16,-5.4666e-16,0,5.4666e-16,-5.4666e-16,1,0,0.0647354,0.042,0.037375,1],"mesh":20,"name":"socket head cap screw_iso-10"},{"matrix":[5.89806e-17,-1,0,0,1,5.89806e-17,0,0,0,0,1,0,-0.0647354,0.042,0.037375,1],"mesh":21,"name":"socket head cap screw_iso-12"},{"matrix":[-2.6988e-16,-1,1.57562e-17,0,1,-2.6988e-16,1.57562e-17,0,-1.57562e-17,1.57562e-17,1,0,-3.04779e-16,0.042,-0.07475,1],"mesh":22,"name":"socket head cap screw_iso-9"},{"matrix":[0.866025,-6.02676e-16,0.5,0,3.80296e-16,1,5.4666e-16,0,-0.5,-2.83274e-16,0.866025,0,0.0491469,0.023,0.028375,1],"mesh":23,"name":"Hard top jaw-1"},{"matrix":[-0.866025,-1.25134e-17,0.5,0,-5.89806e-17,1,0,0,-0.5,-2.2621e-17,-0.866025,0,-0.0491469,0.023,0.028375,1],"mesh":24,"name":"Hard top jaw-4"},{"matrix":[0,-1,0,0,1,0,0,0,0,0,1,0,0.0265898,0.0176,-0.0046885,1],"mesh":25,"name":"socket head cap screw_iso-14"},{"matrix":[0,-1,0,0,1,0,0,0,0,0,1,0,-0.00923454,0.0176,0.0253717,1],"mesh":26,"name":"socket head cap screw_iso-15"},{"matrix":[-6.4948e-15,-1.57562e-17,-1,0,2.6988e-16,1,-1.57562e-17,0,1,-2.6988e-16,-6.4948e-15,0,-1.24238e-16,0.023,-0.05675,1],"mesh":27,"name":"Hard top jaw-2"},{"matrix":[-2.6988e-16,-1,1.57562e-17,0,1,-2.6988e-16,1.57562e-17,0,-1.57562e-17,1.57562e-17,1,0,-3.02485e-16,0.0505,-0.03875,1],"mesh":28,"name":"socket head cap screw_iso-4"},{"matrix":[-3.80296e-16,-1,-5.4666e-16,0,1,-3.80296e-16,-5.4666e-16,0,5.4666e-16,-5.4666e-16,1,0,0.0335585,0.0505,0.019375,1],"mesh":29,"name":"socket head cap screw_iso-5"}],"cameras":[{"type":"orthographic","orthographic":{"xmag":1,"ymag":1,"zfar":100,"znear":0.01}}],"meshes":[{"primitives":[{"attributes":{"POSITION":1,"NORMAL":2,"TEXCOORD_0":3},"indices":0,"mode":4,"material":1}]},{"primitives":[{"attributes":{"POSITION":5,"NORMAL":6,"TEXCOORD_0":7},"indices":4,"mode":4,"material":1}]},{"primitives":[{"attributes":{"POSITION":9,"NORMAL":10,"TEXCOORD_0":11},"indices":8,"mode":4,"material":1}]},{"primitives":[{"attributes":{"POSITION":13,"NORMAL":14,"TEXCOORD_0":15},"indices":12,"mode":4,"material":1}]},{"primitives":[{"attributes":{"POSITION":17,"NORMAL":18,"TEXCOORD_0":19},"indices":16,"mode":4,"material":1}]},{"primitives":[{"attributes":{"POSITION":21,"NORMAL":22,"TEXCOORD_0":23},"indices":20,"mode":4,"material":1}]},{"primitives":[{"attributes":{"POSITION":25,"NORMAL":26,"TEXCOORD_0":27},"indices":24,"mode":4,"material":1}]},{"primitives":[{"attributes":{"POSITION":29,"NORMAL":30,"TEXCOORD_0":31},"indices":28,"mode":4,"material":2}]},{"primitives":[{"attributes":{"POSITION":33,"NORMAL":34,"TEXCOORD_0":35},"indices":32,"mode":4,"material":3}]},{"primitives":[{"attributes":{"POSITION":37,"NORMAL":38,"TEXCOORD_0":39},"indices":36,"mode":4,"material":4}]},{"primitives":[{"attributes":{"POSITION":41,"NORMAL":42,"TEXCOORD_0":43},"indices":40,"mode":4,"material":5}]},{"primitives":[{"attributes":{"POSITION":45,"NORMAL":46,"TEXCOORD_0":47},"indices":44,"mode":4,"material":4}]},{"primitives":[{"attributes":{"POSITION":49,"NORMAL":50,"TEXCOORD_0":51},"indices":48,"mode":4,"material":6}]},{"primitives":[{"attributes":{"POSITION":53,"NORMAL":54,"TEXCOORD_0":55},"indices":52,"mode":4,"material":6}]},{"primitives":[{"attributes":{"POSITION":57,"NORMAL":58,"TEXCOORD_0":59},"indices":56,"mode":4,"material":6}]},{"primitives":[{"attributes":{"POSITION":61,"NORMAL":62,"TEXCOORD_0":63},"indices":60,"mode":4,"material":7}]},{"primitives":[{"attributes":{"POSITION":65,"NORMAL":66,"TEXCOORD_0":67},"indices":64,"mode":4,"material":4}]},{"primitives":[{"attributes":{"POSITION":69,"NORMAL":70,"TEXCOORD_0":71},"indices":68,"mode":4,"material":0},{"attributes":{"POSITION":73,"NORMAL":74,"TEXCOORD_0":75},"indices":72,"mode":4,"material":8},{"attributes":{"POSITION":77,"NORMAL":78,"TEXCOORD_0":79},"indices":76,"mode":4,"material":9}]},{"primitives":[{"attributes":{"POSITION":81,"NORMAL":82,"TEXCOORD_0":83},"indices":80,"mode":4,"material":10}]},{"primitives":[{"attributes":{"POSITION":85,"NORMAL":86,"TEXCOORD_0":87},"indices":84,"mode":4,"material":1}]},{"primitives":[{"attributes":{"POSITION":89,"NORMAL":90,"TEXCOORD_0":91},"indices":88,"mode":4,"material":1}]},{"primitives":[{"attributes":{"POSITION":93,"NORMAL":94,"TEXCOORD_0":95},"indices":92,"mode":4,"material":1}]},{"primitives":[{"attributes":{"POSITION":97,"NORMAL":98,"TEXCOORD_0":99},"indices":96,"mode":4,"material":1}]},{"primitives":[{"attributes":{"POSITION":101,"NORMAL":102,"TEXCOORD_0":103},"indices":100,"mode":4,"material":11}]},{"primitives":[{"attributes":{"POSITION":105,"NORMAL":106,"TEXCOORD_0":107},"indices":104,"mode":4,"material":11}]},{"primitives":[{"attributes":{"POSITION":109,"NORMAL":110,"TEXCOORD_0":111},"indices":108,"mode":4,"material":1}]},{"primitives":[{"attributes":{"POSITION":113,"NORMAL":114,"TEXCOORD_0":115},"indices":112,"mode":4,"material":1}]},{"primitives":[{"attributes":{"POSITION":117,"NORMAL":118,"TEXCOORD_0":119},"indices":116,"mode":4,"material":11}]},{"primitives":[{"attributes":{"POSITION":121,"NORMAL":122,"TEXCOORD_0":123},"indices":120,"mode":4,"material":1}]},{"primitives":[{"attributes":{"POSITION":125,"NORMAL":126,"TEXCOORD_0":127},"indices":124,"mode":4,"material":1}]}],"accessors":[{"bufferView":3,"byteOffset":0,"componentType":5123,"count":19488,"type":"SCALAR"},{"bufferView":0,"byteOffset":0,"componentType":5126,"count":19488,"type":"VEC3","min":[-2.43945489e-18,-0.00650000013,-0.00650000013],"max":[0.0379999988,0.00650000013,0.00650000013]},{"bufferView":1,"byteOffset":0,"componentType":5126,"count":19488,"type":"VEC3"},{"bufferView":2,"byteOffset":0,"componentType":5126,"count":19488,"type":"VEC2"},{"bufferView":7,"byteOffset":0,"componentType":5123,"count":19488,"type":"SCALAR"},{"bufferView":4,"byteOffset":0,"componentType":5126,"count":19488,"type":"VEC3","min":[-2.43945489e-18,-0.00650000013,-0.00650000013],"max":[0.0379999988,0.00650000013,0.00650000013]},{"bufferView":5,"byteOffset":0,"componentType":5126,"count":19488,"type":"VEC3"},{"bufferView":6,"byteOffset":0,"componentType":5126,"count":19488,"type":"VEC2"},{"bufferView":11,"byteOffset":0,"componentType":5123,"count":19488,"type":"SCALAR"},{"bufferView":8,"byteOffset":0,"componentType":5126,"count":19488,"type":"VEC3","min":[-2.43945489e-18,-0.00650000013,-0.00650000013],"max":[0.0379999988,0.00650000013,0.00650000013]},{"bufferView":9,"byteOffset":0,"componentType":5126,"count":19488,"type":"VEC3"},{"bufferView":10,"byteOffset":0,"componentType":5126,"count":19488,"type":"VEC2"},{"bufferView":15,"byteOffset":0,"componentType":5123,"count":24444,"type":"SCALAR"},{"bufferView":12,"byteOffset":0,"componentType":5126,"count":24444,"type":"VEC3","min":[-1.73472348e-18,-0.00499999989,-0.00499999989],"max":[0.0410000011,0.00499999989,0.00499999989]},{"bufferView":13,"byteOffset":0,"componentType":5126,"count":24444,"type":"VEC3"},{"bufferView":14,"byteOffset":0,"componentType":5126,"count":24444,"type":"VEC2"},{"bufferView":19,"byteOffset":0,"componentType":5123,"count":19488,"type":"SCALAR"},{"bufferView":16,"byteOffset":0,"componentType":5126,"count":19488,"type":"VEC3","min":[-2.43945489e-18,-0.00650000013,-0.00650000013],"max":[0.0379999988,0.00650000013,0.00650000013]},{"bufferView":17,"byteOffset":0,"componentType":5126,"count":19488,"type":"VEC3"},{"bufferView":18,"byteOffset":0,"componentType":5126,"count":19488,"type":"VEC2"},{"bufferView":23,"byteOffset":0,"componentType":5123,"count":19488,"type":"SCALAR"},{"bufferView":20,"byteOffset":0,"componentType":5126,"count":19488,"type":"VEC3","min":[-2.43945489e-18,-0.00650000013,-0.00650000013],"max":[0.0379999988,0.00650000013,0.00650000013]},{"bufferView":21,"byteOffset":0,"componentType":5126,"count":19488,"type":"VEC3"},{"bufferView":22,"byteOffset":0,"componentType":5126,"count":19488,"type":"VEC2"},{"bufferView":27,"byteOffset":0,"componentType":5123,"count":19488,"type":"SCALAR"},{"bufferView":24,"byteOffset":0,"componentType":5126,"count":19488,"type":"VEC3","min":[-2.43945489e-18,-0.00650000013,-0.00650000013],"max":[0.0379999988,0.00650000013,0.00650000013]},{"bufferView":25,"byteOffset":0,"componentType":5126,"count":19488,"type":"VEC3"},{"bufferView":26,"byteOffset":0,"componentType":5126,"count":19488,"type":"VEC2"},{"bufferView":31,"byteOffset":0,"componentType":5123,"count":3036,"type":"SCALAR"},{"bufferView":28,"byteOffset":0,"componentType":5126,"count":3036,"type":"VEC3","min":[-0.0315566249,-1.38777878e-17,-0.00899999961],"max":[0.0329999998,0.0260000005,0.00899999961]},{"bufferView":29,"byteOffset":0,"componentType":5126,"count":3036,"type":"VEC3"},{"bufferView":30,"byteOffset":0,"componentType":5126,"count":3036,"type":"VEC2"},{"bufferView":35,"byteOffset":0,"componentType":5123,"count":2952,"type":"SCALAR"},{"bufferView":32,"byteOffset":0,"componentType":5126,"count":2952,"type":"VEC3","min":[-0.0315566249,-5.20417043e-18,-0.00899999961],"max":[0.0329999998,0.0260000005,0.00899999961]},{"bufferView":33,"byteOffset":0,"componentType":5126,"count":2952,"type":"VEC3"},{"bufferView":34,"byteOffset":0,"componentType":5126,"count":2952,"type":"VEC2"},{"bufferView":39,"byteOffset":0,"componentType":5123,"count":1740,"type":"SCALAR"},{"bufferView":36,"byteOffset":0,"componentType":5126,"count":1740,"type":"VEC3","min":[-0.0149999997,0.0,-0.0149999997],"max":[0.0149999997,0.0109999999,0.0149999997]},{"bufferView":37,"byteOffset":0,"componentType":5126,"count":1740,"type":"VEC3"},{"bufferView":38,"byteOffset":0,"componentType":5126,"count":1740,"type":"VEC2"},{"bufferView":43,"byteOffset":0,"componentType":5123,"count":40662,"type":"SCALAR"},{"bufferView":40,"byteOffset":0,"componentType":5126,"count":40662,"type":"VEC3","min":[-0.0599999987,-0.00300000003,-0.0600141883],"max":[0.0599999987,0.0116694272,0.0600141883]},{"bufferView":41,"byteOffset":0,"componentType":5126,"count":40662,"type":"VEC3"},{"bufferView":42,"byteOffset":0,"componentType":5126,"count":40662,"type":"VEC2"},{"bufferView":47,"byteOffset":0,"componentType":5123,"count":1740,"type":"SCALAR"},{"bufferView":44,"byteOffset":0,"componentType":5126,"count":1740,"type":"VEC3","min":[-0.0149999997,0.0,-0.0149999997],"max":[0.0149999997,0.0109999999,0.0149999997]},{"bufferView":45,"byteOffset":0,"componentType":5126,"count":1740,"type":"VEC3"},{"bufferView":46,"byteOffset":0,"componentType":5126,"count":1740,"type":"VEC2"},{"bufferView":51,"byteOffset":0,"componentType":5123,"count":13620,"type":"SCALAR"},{"bufferView":48,"byteOffset":0,"componentType":5126,"count":13620,"type":"VEC3","min":[-0.0135424333,-0.0135424333,-0.0179999992],"max":[0.0135424333,0.0135424333,0.0309999995]},{"bufferView":49,"byteOffset":0,"componentType":5126,"count":13620,"type":"VEC3"},{"bufferView":50,"byteOffset":0,"componentType":5126,"count":13620,"type":"VEC2"},{"bufferView":55,"byteOffset":0,"componentType":5123,"count":13620,"type":"SCALAR"},{"bufferView":52,"byteOffset":0,"componentType":5126,"count":13620,"type":"VEC3","min":[-0.0135424333,-0.0135424333,-0.0179999992],"max":[0.0135424333,0.0135424333,0.0309999995]},{"bufferView":53,"byteOffset":0,"componentType":5126,"count":13620,"type":"VEC3"},{"bufferView":54,"byteOffset":0,"componentType":5126,"count":13620,"type":"VEC2"},{"bufferView":59,"byteOffset":0,"componentType":5123,"count":13620,"type":"SCALAR"},{"bufferView":56,"byteOffset":0,"componentType":5126,"count":13620,"type":"VEC3","min":[-0.0135424333,-0.0135424333,-0.0179999992],"max":[0.0135424333,0.0135424333,0.0309999995]},{"bufferView":57,"byteOffset":0,"componentType":5126,"count":13620,"type":"VEC3"},{"bufferView":58,"byteOffset":0,"componentType":5126,"count":13620,"type":"VEC2"},{"bufferView":63,"byteOffset":0,"componentType":5123,"count":9858,"type":"SCALAR"},{"bufferView":60,"byteOffset":0,"componentType":5126,"count":9858,"type":"VEC3","min":[-0.0774659663,-0.0179999992,-0.0775000006],"max":[0.0774659663,0.0179999992,0.0775000006]},{"bufferView":61,"byteOffset":0,"componentType":5126,"count":9858,"type":"VEC3"},{"bufferView":62,"byteOffset":0,"componentType":5126,"count":9858,"type":"VEC2"},{"bufferView":67,"byteOffset":0,"componentType":5123,"count":1740,"type":"SCALAR"},{"bufferView":64,"byteOffset":0,"componentType":5126,"count":1740,"type":"VEC3","min":[-0.0149999997,0.0,-0.0149999997],"max":[0.0149999997,0.0109999999,0.0149999997]},{"bufferView":65,"byteOffset":0,"componentType":5126,"count":1740,"type":"VEC3"},{"bufferView":66,"byteOffset":0,"componentType":5126,"count":1740,"type":"VEC2"},{"bufferView":71,"byteOffset":0,"componentType":5123,"count":36660,"type":"SCALAR"},{"bufferView":68,"byteOffset":0,"componentType":5126,"count":36660,"type":"VEC3","min":[-0.0774659663,0.0,-0.0775000006],"max":[0.0774659663,0.0335000008,0.0775000006]},{"bufferView":69,"byteOffset":0,"componentType":5126,"count":36660,"type":"VEC3"},{"bufferView":70,"byteOffset":0,"componentType":5126,"count":36660,"type":"VEC2"},{"bufferView":71,"byteOffset":73320,"componentType":5123,"count":144,"type":"SCALAR"},{"bufferView":68,"byteOffset":439920,"componentType":5126,"count":144,"type":"VEC3","min":[0.0148552656,0.0170000009,0.0181831997],"max":[0.0198552646,0.0270000007,0.0231832005]},{"bufferView":69,"byteOffset":439920,"componentType":5126,"count":144,"type":"VEC3"},{"bufferView":70,"byteOffset":293280,"componentType":5126,"count":144,"type":"VEC2"},{"bufferView":71,"byteOffset":73608,"componentType":5123,"count":144,"type":"SCALAR"},{"bufferView":68,"byteOffset":441648,"componentType":5126,"count":144,"type":"VEC3","min":[-0.0290898085,0.0170000009,0.00218850072],"max":[1.17549435e-38,0.0270000007,0.00718850084]},{"bufferView":69,"byteOffset":441648,"componentType":5126,"count":144,"type":"VEC3"},{"bufferView":70,"byteOffset":294432,"componentType":5126,"count":144,"type":"VEC2"},{"bufferView":75,"byteOffset":0,"componentType":5123,"count":3036,"type":"SCALAR"},{"bufferView":72,"byteOffset":0,"componentType":5126,"count":3036,"type":"VEC3","min":[-0.0315566249,-1.38777878e-17,-0.00899999961],"max":[0.0329999998,0.0260000005,0.00899999961]},{"bufferView":73,"byteOffset":0,"componentType":5126,"count":3036,"type":"VEC3"},{"bufferView":74,"byteOffset":0,"componentType":5126,"count":3036,"type":"VEC2"},{"bufferView":79,"byteOffset":0,"componentType":5123,"count":21504,"type":"SCALAR"},{"bufferView":76,"byteOffset":0,"componentType":5126,"count":21504,"type":"VEC3","min":[-2.43945489e-18,-0.00649769651,-0.00650000013],"max":[0.0430000015,0.00649769651,0.00650000013]},{"bufferView":77,"byteOffset":0,"componentType":5126,"count":21504,"type":"VEC3"},{"bufferView":78,"byteOffset":0,"componentType":5126,"count":21504,"type":"VEC2"},{"bufferView":83,"byteOffset":0,"componentType":5123,"count":16902,"type":"SCALAR"},{"bufferView":80,"byteOffset":0,"componentType":5126,"count":16902,"type":"VEC3","min":[-2.43945489e-18,-0.00650000013,-0.00650000013],"max":[0.0329999998,0.00650000013,0.00650000013]},{"bufferView":81,"byteOffset":0,"componentType":5126,"count":16902,"type":"VEC3"},{"bufferView":82,"byteOffset":0,"componentType":5126,"count":16902,"type":"VEC2"},{"bufferView":87,"byteOffset":0,"componentType":5123,"count":16902,"type":"SCALAR"},{"bufferView":84,"byteOffset":0,"componentType":5126,"count":16902,"type":"VEC3","min":[-2.43945489e-18,-0.00650000013,-0.00650000013],"max":[0.0329999998,0.00650000013,0.00650000013]},{"bufferView":85,"byteOffset":0,"componentType":5126,"count":16902,"type":"VEC3"},{"bufferView":86,"byteOffset":0,"componentType":5126,"count":16902,"type":"VEC2"},{"bufferView":91,"byteOffset":0,"componentType":5123,"count":16902,"type":"SCALAR"},{"bufferView":88,"byteOffset":0,"componentType":5126,"count":16902,"type":"VEC3","min":[-2.43945489e-18,-0.00650000013,-0.00650000013],"max":[0.0329999998,0.00650000013,0.00650000013]},{"bufferView":89,"byteOffset":0,"componentType":5126,"count":16902,"type":"VEC3"},{"bufferView":90,"byteOffset":0,"componentType":5126,"count":16902,"type":"VEC2"},{"bufferView":95,"byteOffset":0,"componentType":5123,"count":2658,"type":"SCALAR"},{"bufferView":92,"byteOffset":0,"componentType":5126,"count":2658,"type":"VEC3","min":[-0.0337500013,-0.00300000003,-0.0125000002],"max":[0.0337500013,0.0379999988,0.0125000002]},{"bufferView":93,"byteOffset":0,"componentType":5126,"count":2658,"type":"VEC3"},{"bufferView":94,"byteOffset":0,"componentType":5126,"count":2658,"type":"VEC2"},{"bufferView":99,"byteOffset":0,"componentType":5123,"count":2658,"type":"SCALAR"},{"bufferView":96,"byteOffset":0,"componentType":5126,"count":2658,"type":"VEC3","min":[-0.0337500013,-0.00300000003,-0.0125000002],"max":[0.0337500013,0.0379999988,0.0125000002]},{"bufferView":97,"byteOffset":0,"componentType":5126,"count":2658,"type":"VEC3"},{"bufferView":98,"byteOffset":0,"componentType":5126,"count":2658,"type":"VEC2"},{"bufferView":103,"byteOffset":0,"componentType":5123,"count":24444,"type":"SCALAR"},{"bufferView":100,"byteOffset":0,"componentType":5126,"count":24444,"type":"VEC3","min":[-1.73472348e-18,-0.00499999989,-0.00499999989],"max":[0.0410000011,0.00499999989,0.00499999989]},{"bufferView":101,"byteOffset":0,"componentType":5126,"count":24444,"type":"VEC3"},{"bufferView":102,"byteOffset":0,"componentType":5126,"count":24444,"type":"VEC2"},{"bufferView":107,"byteOffset":0,"componentType":5123,"count":24444,"type":"SCALAR"},{"bufferView":104,"byteOffset":0,"componentType":5126,"count":24444,"type":"VEC3","min":[-1.73472348e-18,-0.00499999989,-0.00499999989],"max":[0.0410000011,0.00499999989,0.00499999989]},{"bufferView":105,"byteOffset":0,"componentType":5126,"count":24444,"type":"VEC3"},{"bufferView":106,"byteOffset":0,"componentType":5126,"count":24444,"type":"VEC2"},{"bufferView":111,"byteOffset":0,"componentType":5123,"count":2658,"type":"SCALAR"},{"bufferView":108,"byteOffset":0,"componentType":5126,"count":2658,"type":"VEC3","min":[-0.0337500013,-0.00300000003,-0.0125000002],"max":[0.0337500013,0.0379999988,0.0125000002]},{"bufferView":109,"byteOffset":0,"componentType":5126,"count":2658,"type":"VEC3"},{"bufferView":110,"byteOffset":0,"componentType":5126,"count":2658,"type":"VEC2"},{"bufferView":115,"byteOffset":0,"componentType":5123,"count":21504,"type":"SCALAR"},{"bufferView":112,"byteOffset":0,"componentType":5126,"count":21504,"type":"VEC3","min":[-2.43945489e-18,-0.00649769651,-0.00650000013],"max":[0.0430000015,0.00649769651,0.00650000013]},{"bufferView":113,"byteOffset":0,"componentType":5126,"count":21504,"type":"VEC3"},{"bufferView":114,"byteOffset":0,"componentType":5126,"count":21504,"type":"VEC2"},{"bufferView":119,"byteOffset":0,"componentType":5123,"count":21504,"type":"SCALAR"},{"bufferView":116,"byteOffset":0,"componentType":5126,"count":21504,"type":"VEC3","min":[-2.43945489e-18,-0.00649769651,-0.00650000013],"max":[0.0430000015,0.00649769651,0.00650000013]},{"bufferView":117,"byteOffset":0,"componentType":5126,"count":21504,"type":"VEC3"},{"bufferView":118,"byteOffset":0,"componentType":5126,"count":21504,"type":"VEC2"}],"materials":[{"pbrMetallicRoughness":{"baseColorFactor":[0.287711,0.287711,0.287711,1],"metallicFactor":0.0,"roughnessFactor":0.9}},{"name":"satin finish stainless steel","pbrMetallicRoughness":{"baseColorFactor":[0.8008,0.759976,0.728571,1],"metallicFactor":0.0,"roughnessFactor":0.9}},{"name":"color","pbrMetallicRoughness":{"baseColorFactor":[0.0,0.0,0.576576,1],"metallicFactor":0.0,"roughnessFactor":0.9}},{"name":"color-2","pbrMetallicRoughness":{"baseColorFactor":[0.0,0.0,0.576576,1],"metallicFactor":0.0,"roughnessFactor":0.9}},{"name":"color-6","pbrMetallicRoughness":{"baseColorFactor":[0.0,0.289419,0.289419,1],"metallicFactor":0.0,"roughnessFactor":0.9}},{"name":"color-5","pbrMetallicRoughness":{"baseColorFactor":[0.576576,0.0,0.576576,1],"metallicFactor":0.0,"roughnessFactor":0.9}},{"name":"color-9","pbrMetallicRoughness":{"baseColorFactor":[0.144709,0.144709,0.144709,1],"metallicFactor":0.0,"roughnessFactor":0.9}},{"name":"color-4","pbrMetallicRoughness":{"baseColorFactor":[0.576576,0.0,0.0,1],"metallicFactor":0.0,"roughnessFactor":0.9}},{"name":"color-7","pbrMetallicRoughness":{"baseColorFactor":[0.587901,0.608274,0.692676,1],"metallicFactor":0.0,"roughnessFactor":0.9}},{"name":"color-8","pbrMetallicRoughness":{"baseColorFactor":[0.587901,0.608274,0.692676,1],"metallicFactor":0.0,"roughnessFactor":0.9}},{"name":"color-3","pbrMetallicRoughness":{"baseColorFactor":[0.0,0.0,0.576576,1],"metallicFactor":0.0,"roughnessFactor":0.9}},{"name":"color-1","pbrMetallicRoughness":{"baseColorFactor":[0.0,0.69227,0.0,1],"metallicFactor":0.0,"roughnessFactor":0.9}}],"textures":[{"sampler":0,"source":0,"name":"n_satinwood_n.png"}],"images":[{"uri":"n_satinwood_n.png"}],"samplers":[{"magFilter":9729,"minFilter":9729,"wrapS":10497,"wrapT":10497,"name":"DefaultSampler"}],"bufferViews":[{"buffer":0,"byteOffset":0,"byteLength":233856,"byteStride":12,"target":34962},{"buffer":0,"byteOffset":233856,"byteLength":233856,"byteStride":12,"target":34962},{"buffer":0,"byteOffset":467712,"byteLength":155904,"byteStride":8,"target":34962},{"buffer":0,"byteOffset":623616,"byteLength":38976,"target":34963},{"buffer":1,"byteOffset":0,"byteLength":233856,"byteStride":12,"target":34962},{"buffer":1,"byteOffset":233856,"byteLength":233856,"byteStride":12,"target":34962},{"buffer":1,"byteOffset":467712,"byteLength":155904,"byteStride":8,"target":34962},{"buffer":1,"byteOffset":623616,"byteLength":38976,"target":34963},{"buffer":2,"byteOffset":0,"byteLength":233856,"byteStride":12,"target":34962},{"buffer":2,"byteOffset":233856,"byteLength":233856,"byteStride":12,"target":34962},{"buffer":2,"byteOffset":467712,"byteLength":155904,"byteStride":8,"target":34962},{"buffer":2,"byteOffset":623616,"byteLength":38976,"target":34963},{"buffer":3,"byteOffset":0,"byteLength":293328,"byteStride":12,"target":34962},{"buffer":3,"byteOffset":293328,"byteLength":293328,"byteStride":12,"target":34962},{"buffer":3,"byteOffset":586656,"byteLength":195552,"byteStride":8,"target":34962},{"buffer":3,"byteOffset":782208,"byteLength":48888,"target":34963},{"buffer":4,"byteOffset":0,"byteLength":233856,"byteStride":12,"target":34962},{"buffer":4,"byteOffset":233856,"byteLength":233856,"byteStride":12,"target":34962},{"buffer":4,"byteOffset":467712,"byteLength":155904,"byteStride":8,"target":34962},{"buffer":4,"byteOffset":623616,"byteLength":38976,"target":34963},{"buffer":5,"byteOffset":0,"byteLength":233856,"byteStride":12,"target":34962},{"buffer":5,"byteOffset":233856,"byteLength":233856,"byteStride":12,"target":34962},{"buffer":5,"byteOffset":467712,"byteLength":155904,"byteStride":8,"target":34962},{"buffer":5,"byteOffset":623616,"byteLength":38976,"target":34963},{"buffer":6,"byteOffset":0,"byteLength":233856,"byteStride":12,"target":34962},{"buffer":6,"byteOffset":233856,"byteLength":233856,"byteStride":12,"target":34962},{"buffer":6,"byteOffset":467712,"byteLength":155904,"byteStride":8,"target":34962},{"buffer":6,"byteOffset":623616,"byteLength":38976,"target":34963},{"buffer":7,"byteOffset":0,"byteLength":36432,"byteStride":12,"target":34962},{"buffer":7,"byteOffset":36432,"byteLength":36432,"byteStride":12,"target":34962},{"buffer":7,"byteOffset":72864,"byteLength":24288,"byteStride":8,"target":34962},{"buffer":7,"byteOffset":97152,"byteLength":6072,"target":34963},{"buffer":8,"byteOffset":0,"byteLength":35424,"byteStride":12,"target":34962},{"buffer":8,"byteOffset":35424,"byteLength":35424,"byteStride":12,"target":34962},{"buffer":8,"byteOffset":70848,"byteLength":23616,"byteStride":8,"target":34962},{"buffer":8,"byteOffset":94464,"byteLength":5904,"target":34963},{"buffer":9,"byteOffset":0,"byteLength":20880,"byteStride":12,"target":34962},{"buffer":9,"byteOffset":20880,"byteLength":20880,"byteStride":12,"target":34962},{"buffer":9,"byteOffset":41760,"byteLength":13920,"byteStride":8,"target":34962},{"buffer":9,"byteOffset":55680,"byteLength":3480,"target":34963},{"buffer":10,"byteOffset":0,"byteLength":487944,"byteStride":12,"target":34962},{"buffer":10,"byteOffset":487944,"byteLength":487944,"byteStride":12,"target":34962},{"buffer":10,"byteOffset":975888,"byteLength":325296,"byteStride":8,"target":34962},{"buffer":10,"byteOffset":1301184,"byteLength":81324,"target":34963},{"buffer":11,"byteOffset":0,"byteLength":20880,"byteStride":12,"target":34962},{"buffer":11,"byteOffset":20880,"byteLength":20880,"byteStride":12,"target":34962},{"buffer":11,"byteOffset":41760,"byteLength":13920,"byteStride":8,"target":34962},{"buffer":11,"byteOffset":55680,"byteLength":3480,"target":34963},{"buffer":12,"byteOffset":0,"byteLength":163440,"byteStride":12,"target":34962},{"buffer":12,"byteOffset":163440,"byteLength":163440,"byteStride":12,"target":34962},{"buffer":12,"byteOffset":326880,"byteLength":108960,"byteStride":8,"target":34962},{"buffer":12,"byteOffset":435840,"byteLength":27240,"target":34963},{"buffer":13,"byteOffset":0,"byteLength":163440,"byteStride":12,"target":34962},{"buffer":13,"byteOffset":163440,"byteLength":163440,"byteStride":12,"target":34962},{"buffer":13,"byteOffset":326880,"byteLength":108960,"byteStride":8,"target":34962},{"buffer":13,"byteOffset":435840,"byteLength":27240,"target":34963},{"buffer":14,"byteOffset":0,"byteLength":163440,"byteStride":12,"target":34962},{"buffer":14,"byteOffset":163440,"byteLength":163440,"byteStride":12,"target":34962},{"buffer":14,"byteOffset":326880,"byteLength":108960,"byteStride":8,"target":34962},{"buffer":14,"byteOffset":435840,"byteLength":27240,"target":34963},{"buffer":15,"byteOffset":0,"byteLength":118296,"byteStride":12,"target":34962},{"buffer":15,"byteOffset":118296,"byteLength":118296,"byteStride":12,"target":34962},{"buffer":15,"byteOffset":236592,"byteLength":78864,"byteStride":8,"target":34962},{"buffer":15,"byteOffset":315456,"byteLength":19716,"target":34963},{"buffer":16,"byteOffset":0,"byteLength":20880,"byteStride":12,"target":34962},{"buffer":16,"byteOffset":20880,"byteLength":20880,"byteStride":12,"target":34962},{"buffer":16,"byteOffset":41760,"byteLength":13920,"byteStride":8,"target":34962},{"buffer":16,"byteOffset":55680,"byteLength":3480,"target":34963},{"buffer":17,"byteOffset":0,"byteLength":443376,"byteStride":12,"target":34962},{"buffer":17,"byteOffset":443376,"byteLength":443376,"byteStride":12,"target":34962},{"buffer":17,"byteOffset":886752,"byteLength":295584,"byteStride":8,"target":34962},{"buffer":17,"byteOffset":1182336,"byteLength":73896,"target":34963},{"buffer":18,"byteOffset":0,"byteLength":36432,"byteStride":12,"target":34962},{"buffer":18,"byteOffset":36432,"byteLength":36432,"byteStride":12,"target":34962},{"buffer":18,"byteOffset":72864,"byteLength":24288,"byteStride":8,"target":34962},{"buffer":18,"byteOffset":97152,"byteLength":6072,"target":34963},{"buffer":19,"byteOffset":0,"byteLength":258048,"byteStride":12,"target":34962},{"buffer":19,"byteOffset":258048,"byteLength":258048,"byteStride":12,"target":34962},{"buffer":19,"byteOffset":516096,"byteLength":172032,"byteStride":8,"target":34962},{"buffer":19,"byteOffset":688128,"byteLength":43008,"target":34963},{"buffer":20,"byteOffset":0,"byteLength":202824,"byteStride":12,"target":34962},{"buffer":20,"byteOffset":202824,"byteLength":202824,"byteStride":12,"target":34962},{"buffer":20,"byteOffset":405648,"byteLength":135216,"byteStride":8,"target":34962},{"buffer":20,"byteOffset":540864,"byteLength":33804,"target":34963},{"buffer":21,"byteOffset":0,"byteLength":202824,"byteStride":12,"target":34962},{"buffer":21,"byteOffset":202824,"byteLength":202824,"byteStride":12,"target":34962},{"buffer":21,"byteOffset":405648,"byteLength":135216,"byteStride":8,"target":34962},{"buffer":21,"byteOffset":540864,"byteLength":33804,"target":34963},{"buffer":22,"byteOffset":0,"byteLength":202824,"byteStride":12,"target":34962},{"buffer":22,"byteOffset":202824,"byteLength":202824,"byteStride":12,"target":34962},{"buffer":22,"byteOffset":405648,"byteLength":135216,"byteStride":8,"target":34962},{"buffer":22,"byteOffset":540864,"byteLength":33804,"target":34963},{"buffer":23,"byteOffset":0,"byteLength":31896,"byteStride":12,"target":34962},{"buffer":23,"byteOffset":31896,"byteLength":31896,"byteStride":12,"target":34962},{"buffer":23,"byteOffset":63792,"byteLength":21264,"byteStride":8,"target":34962},{"buffer":23,"byteOffset":85056,"byteLength":5316,"target":34963},{"buffer":24,"byteOffset":0,"byteLength":31896,"byteStride":12,"target":34962},{"buffer":24,"byteOffset":31896,"byteLength":31896,"byteStride":12,"target":34962},{"buffer":24,"byteOffset":63792,"byteLength":21264,"byteStride":8,"target":34962},{"buffer":24,"byteOffset":85056,"byteLength":5316,"target":34963},{"buffer":25,"byteOffset":0,"byteLength":293328,"byteStride":12,"target":34962},{"buffer":25,"byteOffset":293328,"byteLength":293328,"byteStride":12,"target":34962},{"buffer":25,"byteOffset":586656,"byteLength":195552,"byteStride":8,"target":34962},{"buffer":25,"byteOffset":782208,"byteLength":48888,"target":34963},{"buffer":26,"byteOffset":0,"byteLength":293328,"byteStride":12,"target":34962},{"buffer":26,"byteOffset":293328,"byteLength":293328,"byteStride":12,"target":34962},{"buffer":26,"byteOffset":586656,"byteLength":195552,"byteStride":8,"target":34962},{"buffer":26,"byteOffset":782208,"byteLength":48888,"target":34963},{"buffer":27,"byteOffset":0,"byteLength":31896,"byteStride":12,"target":34962},{"buffer":27,"byteOffset":31896,"byteLength":31896,"byteStride":12,"target":34962},{"buffer":27,"byteOffset":63792,"byteLength":21264,"byteStride":8,"target":34962},{"buffer":27,"byteOffset":85056,"byteLength":5316,"target":34963},{"buffer":28,"byteOffset":0,"byteLength":258048,"byteStride":12,"target":34962},{"buffer":28,"byteOffset":258048,"byteLength":258048,"byteStride":12,"target":34962},{"buffer":28,"byteOffset":516096,"byteLength":172032,"byteStride":8,"target":34962},{"buffer":28,"byteOffset":688128,"byteLength":43008,"target":34963},{"buffer":29,"byteOffset":0,"byteLength":258048,"byteStride":12,"target":34962},{"buffer":29,"byteOffset":258048,"byteLength":258048,"byteStride":12,"target":34962},{"buffer":29,"byteOffset":516096,"byteLength":172032,"byteStride":8,"target":34962},{"buffer":29,"byteOffset":688128,"byteLength":43008,"target":34963}],"buffers":[{"byteLength":662592,"uri":"socket_head_cap_screw_iso-20.bin"},{"byteLength":662592,"uri":"socket_head_cap_screw_iso-21.bin"},{"byteLength":662592,"uri":"socket_head_cap_screw_iso-19.bin"},{"byteLength":831096,"uri":"socket_head_cap_screw_iso-16.bin"},{"byteLength":662592,"uri":"socket_head_cap_screw_iso-17.bin"},{"byteLength":662592,"uri":"socket_head_cap_screw_iso-18.bin"},{"byteLength":662592,"uri":"socket_head_cap_screw_iso-22.bin"},{"byteLength":103224,"uri":"Jaw_base_1-1.bin"},{"byteLength":100368,"uri":"Jaw_base_3-1.bin"},{"byteLength":59160,"uri":"Lock_ring-4.bin"},{"byteLength":1382508,"uri":"Scroll_plate-1.bin"},{"byteLength":59160,"uri":"Lock_ring-1.bin"},{"byteLength":463080,"uri":"Pinion-5.bin"},{"byteLength":463080,"uri":"Pinion-7.bin"},{"byteLength":463080,"uri":"Pinion-4.bin"},{"byteLength":335172,"uri":"Chuck_housing-1.bin"},{"byteLength":59160,"uri":"Lock_ring-6.bin"},{"byteLength":1256232,"uri":"Adapter_plate-1.bin"},{"byteLength":103224,"uri":"Jaw_base_2-1.bin"},{"byteLength":731136,"uri":"socket_head_cap_screw_iso-6.bin"},{"byteLength":574668,"uri":"socket_head_cap_screw_iso-10.bin"},{"byteLength":574668,"uri":"socket_head_cap_screw_iso-12.bin"},{"byteLength":574668,"uri":"socket_head_cap_screw_iso-9.bin"},{"byteLength":90372,"uri":"Hard_top_jaw-1.bin"},{"byteLength":90372,"uri":"Hard_top_jaw-4.bin"},{"byteLength":831096,"uri":"socket_head_cap_screw_iso-14.bin"},{"byteLength":831096,"uri":"socket_head_cap_screw_iso-15.bin"},{"byteLength":90372,"uri":"Hard_top_jaw-2.bin"},{"byteLength":731136,"uri":"socket_head_cap_screw_iso-4.bin"},{"byteLength":731136,"uri":"socket_head_cap_screw_iso-5.bin"}]}