{"asset":{"generator":"SOLIDWORKSGLTF","version":"2.0","extras":{"siteWeld":"weld-v1, keep 0.50","siteFinish":"matte-v1","siteTone":"tone-v1"}},"extensionsUsed":["KHR_lights_punctual","Solidworks_custom_properties"],"scene":0,"scenes":[{"name":"Default - <Default>_Stato di visualizzazione 1","nodes":[0,1]}],"nodes":[{"matrix":[0.871737,-0.486742,0.0561861,0,0.0901738,0.272087,0.958038,0,-0.481605,-0.830091,0.28108,0,-0.538619,-0.931787,0.30603,1],"camera":0,"name":"current"},{"mesh":0,"name":"buddy.SLDPRT","rotation":[-0.70710678,0,0,0.70710678]}],"cameras":[{"type":"orthographic","orthographic":{"xmag":1,"ymag":1,"zfar":100,"znear":0.01}}],"meshes":[{"primitives":[{"attributes":{"POSITION":0,"NORMAL":1},"indices":2,"mode":4,"material":1},{"attributes":{"POSITION":3,"NORMAL":4},"indices":5,"mode":4,"material":2}]}],"accessors":[{"bufferView":0,"componentType":5126,"count":79773,"type":"VEC3","min":[-0.01518479734659195,-0.0292806513607502,0.00016936389147303998],"max":[0.015178279019892216,0.021996377035975456,0.051150884479284286]},{"bufferView":1,"componentType":5126,"count":79773,"type":"VEC3","min":[-0.9999409914016724,-0.9999935030937195,-1.0],"max":[0.9999693632125854,0.999967634677887,0.9997812509536743]},{"bufferView":2,"componentType":5125,"count":478626,"type":"SCALAR"},{"bufferView":3,"componentType":5126,"count":9377,"type":"VEC3","min":[-0.025499999523162842,-0.025499999523162842,-0.061000000685453415],"max":[0.025499999523162842,0.025499999523162842,0.0]},{"bufferView":4,"componentType":5126,"count":9377,"type":"VEC3","min":[-1.0,-1.0,-1.0],"max":[1.0,1.0,1.0]},{"bufferView":5,"componentType":5125,"count":44418,"type":"SCALAR"}],"materials":[{"pbrMetallicRoughness":{"baseColorFactor":[0.310198,0.310198,0.310198,1],"metallicFactor":0.0,"roughnessFactor":0.9}},{"name":"color-1","pbrMetallicRoughness":{"baseColorFactor":[0.144709,0.144709,0.144709,1],"metallicFactor":0.0,"roughnessFactor":0.9}},{"name":"color","pbrMetallicRoughness":{"baseColorFactor":[0.8008,0.602955,0.8008,1],"metallicFactor":0.0,"roughnessFactor":0.9}}],"bufferViews":[{"buffer":0,"byteOffset":0,"byteLength":957276,"target":34962},{"buffer":0,"byteOffset":957276,"byteLength":957276,"target":34962},{"buffer":0,"byteOffset":1914552,"byteLength":1914504,"target":34963},{"buffer":0,"byteOffset":3829056,"byteLength":112524,"target":34962},{"buffer":0,"byteOffset":3941580,"byteLength":112524,"target":34962},{"buffer":0,"byteOffset":4054104,"byteLength":177672,"target":34963}],"buffers":[{"uri":"pug-statue_model.bin","byteLength":4231776}]}