{"asset":{"generator":"SOLIDWORKSGLTF","version":"2.0","extras":{"siteFinish":"matte-v1","siteTone":"tone-v1"}},"extensionsUsed":["KHR_lights_punctual","Solidworks_custom_properties"],"scene":0,"scenes":[{"name":"Default - Stato di visualizzazione-1","nodes":[0,1]}],"nodes":[{"matrix":[-0.951569,-0.00885338,-0.307308,0,-0.0617698,0.984707,0.162899,0,0.301166,0.173992,-0.937564,0,5.10615,2.642,-16.1334,1],"camera":0,"name":"current"},{"children":[2,3,4,5,6,7,8,9,10,11,12,13,14,27,32],"name":"Bike_assembly"},{"matrix":[-2.77467e-17,-4.95298e-19,-1,0,1.19349e-15,1,-4.95298e-19,0,1,-1.19349e-15,-2.77467e-17,0,-0.837299,-0.517798,0.05,1],"mesh":0,"name":"Pignone post-1"},{"matrix":[1,-1.21864e-16,1.24824e-17,0,1.24824e-17,-1.62381e-16,-1,0,1.22298e-16,1,-1.62381e-16,0,-0.449528,-0.565135,-0.0415,1],"mesh":1,"name":"Crankset_1-1"},{"matrix":[-0.177729,0.984079,1.66533e-16,0,0.984079,0.177729,0,0,5.55112e-17,1.11022e-16,-1,0,-0.837299,-0.517798,-0.074,1],"mesh":2,"name":"hex flange nut_din-4"},{"matrix":[-3.18267e-18,-1.38118e-18,-1,0,1,-5.55112e-17,-3.18267e-18,0,-5.55112e-17,-1,1.38118e-18,0,-0.449528,-0.565135,-2.69523e-18,1],"mesh":3,"name":"MC-1"},{"matrix":[1,7.51493e-06,0,0,-7.51493e-06,1,0,0,0,0,1,0,-0.449528,-0.565135,0.0485,1],"mesh":4,"name":"Chain-1"},{"matrix":[-1.38778e-17,0,-1,0,5.55112e-17,1,-8.11835e-17,0,1,-8.32667e-17,6.78165e-18,0,-0.837299,-0.517798,-1.12997e-21,1],"mesh":5,"name":"Rear-1"},{"matrix":[0.923728,0.383049,0,0,0.383049,-0.923728,0,0,0,0,-1,0,0.136426,-0.517798,-0.063,1],"mesh":6,"name":"hex flange nut_din-2"},{"matrix":[0.993008,-0.11805,0,0,0.11805,0.993008,0,0,0,0,1,0,-0.837299,-0.517798,0.074,1],"mesh":7,"name":"hex flange nut_din-3"},{"matrix":[-0.99863,-0.052336,-1.24553e-16,0,-0.052336,0.99863,1.47451e-17,0,1.5125e-16,2.90496e-17,-1,0,-0.483749,0.190054,6.53163e-07,1],"mesh":8,"name":"bike seat-1"},{"mesh":9,"name":"Pista-1"},{"matrix":[2.71155e-18,-3.60687e-17,-1,0,-0.985625,-0.168946,3.42107e-18,0,-0.168946,0.985625,-3.60083e-17,0,0.136426,-0.517798,1.59352e-19,1],"mesh":10,"name":"700c Road Bike Tire-1"},{"matrix":[0.99863,0.052336,6.93889e-17,0,-0.052336,0.99863,-2.77556e-17,0,-2.77556e-17,1.04083e-17,1,0,-0.528798,-0.221781,-2.41222e-17,1],"mesh":11,"name":"Reggisella-1"},{"children":[15,16,17,18,19,20,21,22,23,24,25,26],"matrix":[-1,-4.6585e-37,-1.28052e-17,0,-1.28052e-17,1.62381e-16,1,0,-7.11877e-35,1,-1.62381e-16,0,-0.449528,-0.565135,0.0415,1],"name":"Crankset assembly.SLDPRT-1"},{"matrix":[7.70372e-32,-1,-4.93038e-32,0,-0.309017,0,-0.951057,0,0.951057,0,-0.309017,0,0,0.008,0,1],"mesh":12,"name":"Corona-1"},{"matrix":[0.99933,-7.39557e-32,0.0365946,0,0,1,4.93038e-32,0,-0.0365946,0,0.99933,0,0.0582492,-0.0015,-0.0423205,1],"name":"Boccola_sup-1"},{"matrix":[-0.968242,-1.35507e-17,-0.250015,0,1.96263e-17,-1,-2.18082e-17,0,-0.250015,-2.60225e-17,0.968242,0,0.0582492,0.008,-0.0423205,1],"name":"Boccola_inf-1"},{"matrix":[-0.998009,-5.20417e-18,-0.0630657,0,6.98215e-18,-1,-2.79721e-17,0,-0.0630657,-2.83567e-17,0.998009,0,-0.0222492,0.0095,-0.0684761,1],"name":"Boccola_inf-2"},{"matrix":[-0.924603,1.11022e-16,0.380933,0,-1.07686e-16,-1,3.00722e-17,0,0.380933,-1.32163e-17,0.924603,0,-0.0222492,0.0095,0.0684761,1],"name":"Boccola_inf-6"},{"mesh":13,"name":"Crankset-1"},{"matrix":[0.98832,-3.46945e-18,-0.15239,0,7.34734e-18,1,2.48841e-17,0,0.15239,-2.57131e-17,0.98832,0,-0.0222492,-0.0015,-0.0684761,1],"name":"Boccola_sup-2"},{"matrix":[0.932232,-8.01187e-32,-0.361862,0,-1.59006e-18,1,-4.09633e-18,0,0.361862,4.39411e-18,0.932232,0,-0.072,-0.0015,0,1],"name":"Boccola_sup-4"},{"matrix":[0.821421,-5.55112e-17,-0.570322,0,5.2369e-17,1,-2.19072e-17,0,0.570322,-1.18722e-17,0.821421,0,-0.0222492,-0.0015,0.0684761,1],"name":"Boccola_sup-6"},{"matrix":[0.661468,2.77556e-16,-0.749974,0,-1.51717e-16,1,2.36275e-16,0,0.749974,-4.25046e-17,0.661468,0,0.0582492,-0.0015,0.0423205,1],"name":"Boccola_sup-8"},{"matrix":[-0.988139,-6.93889e-18,0.153561,0,6.69297e-18,-1,-2.11845e-18,0,0.153561,-1.06554e-18,0.988139,0,-0.072,0.0095,0,1],"name":"Boccola_inf-4"},{"matrix":[-0.80689,-1.38778e-16,0.590702,0,1.30312e-16,-1,-5.69331e-17,0,0.590702,3.10368e-17,0.80689,0,0.0582492,0.0095,0.0423205,1],"name":"Boccola_inf-8"},{"children":[28,29,30,31],"matrix":[0.97437,0.224951,5.55112e-17,0,-0.224951,0.97437,1.56302e-17,0,-5.55112e-17,-1.38778e-17,1,0,0.0101228,-0.0438467,3.01554e-19,1],"name":"Gruppo manubrio-1"},{"matrix":[-0.14349,0.120402,-0.9823,0,0.215603,0.972534,0.0877109,0,0.965881,-0.199202,-0.165508,0,0.0813366,0.117675,-0.105692,1],"mesh":14,"name":"Ma-1"},{"mesh":15,"name":"Pipa-1"},{"matrix":[-0.14349,0.120402,0.9823,0,0.265325,0.960915,-0.0790237,0,-0.953422,0.249289,-0.169827,0,0.0813366,0.117675,0.105692,1],"mesh":16,"name":"Ma-2"},{"matrix":[1.69908e-18,-4.2351e-17,-1,0,0.642788,0.766044,-2.1262e-17,0,0.766044,-0.642788,1.78409e-17,0,0.0793775,0.0874859,1.44858e-18,1],"mesh":17,"name":"Riser 25.4-1"},{"matrix":[0.999902,-0.0139837,0,0,0.0139837,0.999902,0,0,0,0,1,0,0.136426,-0.517798,0.063,1],"mesh":18,"name":"hex flange nut_din-1"}],"cameras":[{"type":"orthographic","orthographic":{"xmag":1,"ymag":1,"zfar":100,"znear":0.01}}],"meshes":[{"primitives":[{"attributes":{"POSITION":1,"NORMAL":2,"TEXCOORD_0":3},"indices":0,"mode":4,"material":1}]},{"primitives":[{"attributes":{"POSITION":5,"NORMAL":6,"TEXCOORD_0":7},"indices":4,"mode":4,"material":2}]},{"primitives":[{"attributes":{"POSITION":9,"NORMAL":10,"TEXCOORD_0":11},"indices":8,"mode":4,"material":3}]},{"primitives":[{"attributes":{"POSITION":13,"NORMAL":14,"TEXCOORD_0":15},"indices":12,"mode":4,"material":0}]},{"primitives":[{"attributes":{"POSITION":17,"NORMAL":18,"TEXCOORD_0":19},"indices":16,"mode":4,"material":4}]},{"primitives":[{"attributes":{"POSITION":21,"NORMAL":22,"TEXCOORD_0":23},"indices":20,"mode":4,"material":5},{"attributes":{"POSITION":25,"NORMAL":26,"TEXCOORD_0":27},"indices":24,"mode":4,"material":6},{"attributes":{"POSITION":29,"NORMAL":30,"TEXCOORD_0":31},"indices":28,"mode":4,"material":7},{"attributes":{"POSITION":33,"NORMAL":34,"TEXCOORD_0":35},"indices":32,"mode":4,"material":8},{"attributes":{"POSITION":37,"NORMAL":38,"TEXCOORD_0":39},"indices":36,"mode":4,"material":8}]},{"primitives":[{"attributes":{"POSITION":41,"NORMAL":42,"TEXCOORD_0":43},"indices":40,"mode":4,"material":3}]},{"primitives":[{"attributes":{"POSITION":45,"NORMAL":46,"TEXCOORD_0":47},"indices":44,"mode":4,"material":3}]},{"primitives":[{"attributes":{"POSITION":49,"NORMAL":50,"TEXCOORD_0":51},"indices":48,"mode":4,"material":9},{"attributes":{"POSITION":53,"NORMAL":54,"TEXCOORD_0":55},"indices":52,"mode":4,"material":10},{"attributes":{"POSITION":57,"NORMAL":58,"TEXCOORD_0":59},"indices":56,"mode":4,"material":10}]},{"primitives":[{"attributes":{"POSITION":61,"NORMAL":62,"TEXCOORD_0":63},"indices":60,"mode":4,"material":11},{"attributes":{"POSITION":65,"NORMAL":66,"TEXCOORD_0":67},"indices":64,"mode":4,"material":12},{"attributes":{"POSITION":69,"NORMAL":70,"TEXCOORD_0":71},"indices":68,"mode":4,"material":13},{"attributes":{"POSITION":73,"NORMAL":74,"TEXCOORD_0":75},"indices":72,"mode":4,"material":14},{"attributes":{"POSITION":77,"NORMAL":78,"TEXCOORD_0":79},"indices":76,"mode":4,"material":15}]},{"primitives":[{"attributes":{"POSITION":81,"NORMAL":82,"TEXCOORD_0":83},"indices":80,"mode":4,"material":16},{"attributes":{"POSITION":85,"NORMAL":86,"TEXCOORD_0":87},"indices":84,"mode":4,"material":17},{"attributes":{"POSITION":89,"NORMAL":90,"TEXCOORD_0":91},"indices":88,"mode":4,"material":18},{"attributes":{"POSITION":93,"NORMAL":94,"TEXCOORD_0":95},"indices":92,"mode":4,"material":18}]},{"primitives":[{"attributes":{"POSITION":97,"NORMAL":98,"TEXCOORD_0":99},"indices":96,"mode":4,"material":19}]},{"primitives":[{"attributes":{"POSITION":101,"NORMAL":102,"TEXCOORD_0":103},"indices":100,"mode":4,"material":20},{"attributes":{"POSITION":105,"NORMAL":106,"TEXCOORD_0":107},"indices":104,"mode":4,"material":21}]},{"primitives":[{"attributes":{"POSITION":109,"NORMAL":110,"TEXCOORD_0":111},"indices":108,"mode":4,"material":22}]},{"primitives":[{"attributes":{"POSITION":113,"NORMAL":114,"TEXCOORD_0":115},"indices":112,"mode":4,"material":23}]},{"primitives":[{"attributes":{"POSITION":117,"NORMAL":118,"TEXCOORD_0":119},"indices":116,"mode":4,"material":24}]},{"primitives":[{"attributes":{"POSITION":121,"NORMAL":122,"TEXCOORD_0":123},"indices":120,"mode":4,"material":23}]},{"primitives":[{"attributes":{"POSITION":125,"NORMAL":126,"TEXCOORD_0":127},"indices":124,"mode":4,"material":25}]},{"primitives":[{"attributes":{"POSITION":129,"NORMAL":130,"TEXCOORD_0":131},"indices":128,"mode":4,"material":3}]}],"accessors":[{"bufferView":3,"byteOffset":0,"componentType":5123,"count":5784,"type":"SCALAR"},{"bufferView":0,"byteOffset":0,"componentType":5126,"count":5784,"type":"VEC3","min":[-1.30104261e-18,-0.0324999988,-0.0324462317],"max":[0.00300000003,0.0320731588,0.0324462317]},{"bufferView":1,"byteOffset":0,"componentType":5126,"count":5784,"type":"VEC3"},{"bufferView":2,"byteOffset":0,"componentType":5126,"count":5784,"type":"VEC2"},{"bufferView":7,"byteOffset":0,"componentType":5123,"count":63390,"type":"SCALAR"},{"bufferView":4,"byteOffset":0,"componentType":5126,"count":63390,"type":"VEC3","min":[-0.0189999994,0.0,-0.0189999994],"max":[0.187999994,0.0262642317,0.0189999994]},{"bufferView":5,"byteOffset":0,"componentType":5126,"count":63390,"type":"VEC3"},{"bufferView":6,"byteOffset":0,"componentType":5126,"count":63390,"type":"VEC2"},{"bufferView":11,"byteOffset":0,"componentType":5123,"count":14976,"type":"SCALAR"},{"bufferView":8,"byteOffset":0,"componentType":5126,"count":14976,"type":"VEC3","min":[-0.00894895289,-0.00894895289,-0.00800000038],"max":[0.00894895289,0.00894895289,3.57786717e-18]},{"bufferView":9,"byteOffset":0,"componentType":5126,"count":14976,"type":"VEC3"},{"bufferView":10,"byteOffset":0,"componentType":5126,"count":14976,"type":"VEC2"},{"bufferView":15,"byteOffset":0,"componentType":5123,"count":4434,"type":"SCALAR"},{"bufferView":12,"byteOffset":0,"componentType":5126,"count":4434,"type":"VEC3","min":[-0.056499999,-0.0205000006,-0.0205000006],"max":[0.056499999,0.0205000006,0.0205000006]},{"bufferView":13,"byteOffset":0,"componentType":5126,"count":4434,"type":"VEC3"},{"bufferView":14,"byteOffset":0,"componentType":5126,"count":4434,"type":"VEC2"},{"bufferView":19,"byteOffset":0,"componentType":5123,"count":2760,"type":"SCALAR"},{"bufferView":16,"byteOffset":0,"componentType":5126,"count":2760,"type":"VEC3","min":[-0.424720883,-0.109499782,-0.00300000003],"max":[0.109482065,0.109420151,0.00300000003]},{"bufferView":17,"byteOffset":0,"componentType":5126,"count":2760,"type":"VEC3"},{"bufferView":18,"byteOffset":0,"componentType":5126,"count":2760,"type":"VEC2"},{"bufferView":23,"byteOffset":0,"componentType":5123,"count":2688,"type":"SCALAR"},{"bufferView":20,"byteOffset":0,"componentType":5126,"count":2688,"type":"VEC3","min":[-0.0599999987,-0.00749999983,-0.00749999983],"max":[0.0599984452,0.00749999983,0.00749999983]},{"bufferView":21,"byteOffset":0,"componentType":5126,"count":2688,"type":"VEC3"},{"bufferView":22,"byteOffset":0,"componentType":5126,"count":2688,"type":"VEC2"},{"bufferView":23,"byteOffset":5376,"componentType":5123,"count":14112,"type":"SCALAR"},{"bufferView":20,"byteOffset":32256,"componentType":5126,"count":14112,"type":"VEC3","min":[-0.0115,-0.349820167,-0.349999994],"max":[0.0115,0.349820167,0.349999994]},{"bufferView":21,"byteOffset":32256,"componentType":5126,"count":14112,"type":"VEC3"},{"bufferView":22,"byteOffset":21504,"componentType":5126,"count":14112,"type":"VEC2"},{"bufferView":23,"byteOffset":33600,"componentType":5123,"count":912,"type":"SCALAR"},{"bufferView":20,"byteOffset":201600,"componentType":5126,"count":912,"type":"VEC3","min":[-0.0799999982,-0.00398633815,-0.00400000019],"max":[0.0799999982,0.00398633815,0.00400000019]},{"bufferView":21,"byteOffset":201600,"componentType":5126,"count":912,"type":"VEC3"},{"bufferView":22,"byteOffset":134400,"componentType":5126,"count":912,"type":"VEC2"},{"bufferView":23,"byteOffset":35424,"componentType":5123,"count":64998,"type":"SCALAR"},{"bufferView":20,"byteOffset":212544,"componentType":5126,"count":64998,"type":"VEC3","min":[-0.0299999993,-0.333682537,-0.333854079],"max":[0.041398447,0.333682537,0.333854079]},{"bufferView":21,"byteOffset":212544,"componentType":5126,"count":64998,"type":"VEC3"},{"bufferView":22,"byteOffset":141696,"componentType":5126,"count":64998,"type":"VEC2"},{"bufferView":23,"byteOffset":165420,"componentType":5123,"count":17346,"type":"SCALAR"},{"bufferView":20,"byteOffset":992520,"componentType":5126,"count":17346,"type":"VEC3","min":[-0.0469999984,-0.0219999999,-0.0202692151],"max":[0.041398447,0.0219999999,0.0202493761]},{"bufferView":21,"byteOffset":992520,"componentType":5126,"count":17346,"type":"VEC3"},{"bufferView":22,"byteOffset":661680,"componentType":5126,"count":17346,"type":"VEC2"},{"bufferView":27,"byteOffset":0,"componentType":5123,"count":14976,"type":"SCALAR"},{"bufferView":24,"byteOffset":0,"componentType":5126,"count":14976,"type":"VEC3","min":[-0.00894895289,-0.00894895289,-0.00800000038],"max":[0.00894895289,0.00894895289,3.57786717e-18]},{"bufferView":25,"byteOffset":0,"componentType":5126,"count":14976,"type":"VEC3"},{"bufferView":26,"byteOffset":0,"componentType":5126,"count":14976,"type":"VEC2"},{"bufferView":31,"byteOffset":0,"componentType":5123,"count":14976,"type":"SCALAR"},{"bufferView":28,"byteOffset":0,"componentType":5126,"count":14976,"type":"VEC3","min":[-0.00894895289,-0.00894895289,-0.00800000038],"max":[0.00894895289,0.00894895289,3.57786717e-18]},{"bufferView":29,"byteOffset":0,"componentType":5126,"count":14976,"type":"VEC3"},{"bufferView":30,"byteOffset":0,"componentType":5126,"count":14976,"type":"VEC2"},{"bufferView":35,"byteOffset":0,"componentType":5123,"count":17148,"type":"SCALAR"},{"bufferView":32,"byteOffset":0,"componentType":5126,"count":17148,"type":"VEC3","min":[0.0643836558,-0.00748977391,-0.0336306542],"max":[0.219999999,0.0245102253,0.0336306542]},{"bufferView":33,"byteOffset":0,"componentType":5126,"count":17148,"type":"VEC3"},{"bufferView":34,"byteOffset":0,"componentType":5126,"count":17148,"type":"VEC2"},{"bufferView":35,"byteOffset":34296,"componentType":5123,"count":64998,"type":"SCALAR"},{"bufferView":32,"byteOffset":205776,"componentType":5126,"count":64998,"type":"VEC3","min":[3.50316395e-06,-6.00746989e-06,-0.065517731],"max":[0.282647431,0.055729188,0.065517731]},{"bufferView":33,"byteOffset":205776,"componentType":5126,"count":64998,"type":"VEC3"},{"bufferView":34,"byteOffset":137184,"componentType":5126,"count":64998,"type":"VEC2"},{"bufferView":35,"byteOffset":164292,"componentType":5123,"count":18276,"type":"SCALAR"},{"bufferView":32,"byteOffset":985752,"componentType":5126,"count":18276,"type":"VEC3","min":[0.000242170834,4.23941714e-07,-0.0634711087],"max":[0.282165617,0.0532546639,0.0336306542]},{"bufferView":33,"byteOffset":985752,"componentType":5126,"count":18276,"type":"VEC3"},{"bufferView":34,"byteOffset":657168,"componentType":5126,"count":18276,"type":"VEC2"},{"bufferView":39,"byteOffset":0,"componentType":5123,"count":414,"type":"SCALAR"},{"bufferView":36,"byteOffset":0,"componentType":5126,"count":414,"type":"VEC3","min":[-0.862607956,-0.528797567,-0.0659999996],"max":[1.17549435e-38,1.17549435e-38,0.0659999996]},{"bufferView":37,"byteOffset":0,"componentType":5126,"count":414,"type":"VEC3"},{"bufferView":38,"byteOffset":0,"componentType":5126,"count":414,"type":"VEC2"},{"bufferView":39,"byteOffset":828,"componentType":5123,"count":23628,"type":"SCALAR"},{"bufferView":36,"byteOffset":4968,"componentType":5126,"count":23628,"type":"VEC3","min":[-0.863632202,-0.584634662,-0.0686219707],"max":[0.145408094,0.0328303203,0.0686219707]},{"bufferView":37,"byteOffset":4968,"componentType":5126,"count":23628,"type":"VEC3"},{"bufferView":38,"byteOffset":3312,"componentType":5126,"count":23628,"type":"VEC2"},{"bufferView":39,"byteOffset":48084,"componentType":5123,"count":31770,"type":"SCALAR"},{"bufferView":36,"byteOffset":288504,"componentType":5126,"count":31770,"type":"VEC3","min":[-0.0253311452,-0.163695425,-0.0189974029],"max":[0.0545646809,0.0434309728,0.0189974029]},{"bufferView":37,"byteOffset":288504,"componentType":5126,"count":31770,"type":"VEC3"},{"bufferView":38,"byteOffset":192336,"componentType":5126,"count":31770,"type":"VEC2"},{"bufferView":39,"byteOffset":111624,"componentType":5123,"count":1884,"type":"SCALAR"},{"bufferView":36,"byteOffset":669744,"componentType":5126,"count":1884,"type":"VEC3","min":[-0.70571959,-0.196411327,-0.0126999998],"max":[0.0494914241,0.0369598307,0.0126999998]},{"bufferView":37,"byteOffset":669744,"componentType":5126,"count":1884,"type":"VEC3"},{"bufferView":38,"byteOffset":446496,"componentType":5126,"count":1884,"type":"VEC2"},{"bufferView":39,"byteOffset":115392,"componentType":5123,"count":4332,"type":"SCALAR"},{"bufferView":36,"byteOffset":692352,"componentType":5126,"count":4332,"type":"VEC3","min":[-0.948750556,-0.175449058,-0.0158660263],"max":[1.17549435e-38,1.17549435e-38,0.0158660263]},{"bufferView":37,"byteOffset":692352,"componentType":5126,"count":4332,"type":"VEC3"},{"bufferView":38,"byteOffset":461568,"componentType":5126,"count":4332,"type":"VEC2"},{"bufferView":43,"byteOffset":0,"componentType":5123,"count":14112,"type":"SCALAR"},{"bufferView":40,"byteOffset":0,"componentType":5126,"count":14112,"type":"VEC3","min":[-0.0115,-0.349820167,-0.349999994],"max":[0.0115,0.349820167,0.349999994]},{"bufferView":41,"byteOffset":0,"componentType":5126,"count":14112,"type":"VEC3"},{"bufferView":42,"byteOffset":0,"componentType":5126,"count":14112,"type":"VEC2"},{"bufferView":43,"byteOffset":28224,"componentType":5123,"count":960,"type":"SCALAR"},{"bufferView":40,"byteOffset":169344,"componentType":5126,"count":960,"type":"VEC3","min":[-0.0649999976,-0.00400000019,-0.00400000019],"max":[0.0649999976,0.00400000019,0.00400000019]},{"bufferView":41,"byteOffset":169344,"componentType":5126,"count":960,"type":"VEC3"},{"bufferView":42,"byteOffset":112896,"componentType":5126,"count":960,"type":"VEC2"},{"bufferView":43,"byteOffset":30144,"componentType":5123,"count":64998,"type":"SCALAR"},{"bufferView":40,"byteOffset":180864,"componentType":5126,"count":64998,"type":"VEC3","min":[-0.0386000015,-0.333682537,-0.333854079],"max":[0.0499984436,0.333682537,0.333854079]},{"bufferView":41,"byteOffset":180864,"componentType":5126,"count":64998,"type":"VEC3"},{"bufferView":42,"byteOffset":120576,"componentType":5126,"count":64998,"type":"VEC2"},{"bufferView":43,"byteOffset":160140,"componentType":5123,"count":12264,"type":"SCALAR"},{"bufferView":40,"byteOffset":960840,"componentType":5126,"count":12264,"type":"VEC3","min":[-0.0499984436,-0.0202488042,-0.0202692151],"max":[0.0499984436,0.0202488042,0.0202692151]},{"bufferView":41,"byteOffset":960840,"componentType":5126,"count":12264,"type":"VEC3"},{"bufferView":42,"byteOffset":640560,"componentType":5126,"count":12264,"type":"VEC2"},{"bufferView":47,"byteOffset":0,"componentType":5123,"count":17196,"type":"SCALAR"},{"bufferView":44,"byteOffset":0,"componentType":5126,"count":17196,"type":"VEC3","min":[-0.11945989,0.00513775367,-0.0289999992],"max":[0.0120710442,0.414923102,0.0289999992]},{"bufferView":45,"byteOffset":0,"componentType":5126,"count":17196,"type":"VEC3"},{"bufferView":46,"byteOffset":0,"componentType":5126,"count":17196,"type":"VEC2"},{"bufferView":51,"byteOffset":0,"componentType":5123,"count":18417,"type":"SCALAR"},{"bufferView":48,"byteOffset":0,"componentType":5126,"count":18417,"type":"VEC3","min":[0.0,-0.106871128,-0.106871128],"max":[0.00419999985,0.106871128,0.106871128]},{"bufferView":49,"byteOffset":0,"componentType":5126,"count":18417,"type":"VEC3"},{"bufferView":50,"byteOffset":0,"componentType":5126,"count":18417,"type":"VEC2"},{"bufferView":51,"byteOffset":36834,"componentType":5123,"count":5169,"type":"SCALAR"},{"bufferView":48,"byteOffset":221004,"componentType":5126,"count":5169,"type":"VEC3","min":[-2.71050543e-20,-0.0941625088,-0.0745734423],"max":[4.99999987e-05,0.094135806,0.0799936354]},{"bufferView":49,"byteOffset":221004,"componentType":5126,"count":5169,"type":"VEC3"},{"bufferView":50,"byteOffset":147336,"componentType":5126,"count":5169,"type":"VEC2"},{"bufferView":55,"byteOffset":0,"componentType":5123,"count":50700,"type":"SCALAR"},{"bufferView":52,"byteOffset":0,"componentType":5126,"count":50700,"type":"VEC3","min":[-0.0799999982,-4.87208678e-18,-0.076485239],"max":[0.187999994,0.0262642335,0.076485239]},{"bufferView":53,"byteOffset":0,"componentType":5126,"count":50700,"type":"VEC3"},{"bufferView":54,"byteOffset":0,"componentType":5126,"count":50700,"type":"VEC2"},{"bufferView":59,"byteOffset":0,"componentType":5123,"count":21246,"type":"SCALAR"},{"bufferView":56,"byteOffset":0,"componentType":5126,"count":21246,"type":"VEC3","min":[-1.59204082e-18,-0.015996296,-0.0160000008],"max":[0.150000006,0.015996296,0.0160000008]},{"bufferView":57,"byteOffset":0,"componentType":5126,"count":21246,"type":"VEC3"},{"bufferView":58,"byteOffset":0,"componentType":5126,"count":21246,"type":"VEC2"},{"bufferView":63,"byteOffset":0,"componentType":5123,"count":17640,"type":"SCALAR"},{"bufferView":60,"byteOffset":0,"componentType":5126,"count":17640,"type":"VEC3","min":[-0.0110999998,0.0,-0.0175000001],"max":[0.0993466228,0.150000006,0.0175000001]},{"bufferView":61,"byteOffset":0,"componentType":5126,"count":17640,"type":"VEC3"},{"bufferView":62,"byteOffset":0,"componentType":5126,"count":17640,"type":"VEC2"},{"bufferView":67,"byteOffset":0,"componentType":5123,"count":21246,"type":"SCALAR"},{"bufferView":64,"byteOffset":0,"componentType":5126,"count":21246,"type":"VEC3","min":[-1.59204082e-18,-0.015996296,-0.0160000008],"max":[0.150000006,0.015996296,0.0160000008]},{"bufferView":65,"byteOffset":0,"componentType":5126,"count":21246,"type":"VEC3"},{"bufferView":66,"byteOffset":0,"componentType":5126,"count":21246,"type":"VEC2"},{"bufferView":71,"byteOffset":0,"componentType":5123,"count":27390,"type":"SCALAR"},{"bufferView":68,"byteOffset":0,"componentType":5126,"count":27390,"type":"VEC3","min":[-0.249998778,-0.0126999998,-0.0548874885],"max":[0.249998778,0.0343803763,0.0126999998]},{"bufferView":69,"byteOffset":0,"componentType":5126,"count":27390,"type":"VEC3"},{"bufferView":70,"byteOffset":0,"componentType":5126,"count":27390,"type":"VEC2"},{"bufferView":75,"byteOffset":0,"componentType":5123,"count":14976,"type":"SCALAR"},{"bufferView":72,"byteOffset":0,"componentType":5126,"count":14976,"type":"VEC3","min":[-0.00894895289,-0.00894895289,-0.00800000038],"max":[0.00894895289,0.00894895289,3.57786717e-18]},{"bufferView":73,"byteOffset":0,"componentType":5126,"count":14976,"type":"VEC3"},{"bufferView":74,"byteOffset":0,"componentType":5126,"count":14976,"type":"VEC2"}],"materials":[{"pbrMetallicRoughness":{"baseColorFactor":[0.287157,0.287157,0.287157,1],"metallicFactor":0.0,"roughnessFactor":0.9}},{"name":"black-1","pbrMetallicRoughness":{"baseColorFactor":[0.523197,0.523197,0.523197,1],"metallicFactor":0.0,"roughnessFactor":0.9}},{"name":"color","pbrMetallicRoughness":{"baseColorFactor":[0.686492,0.698483,0.707476,1],"metallicFactor":0.0,"roughnessFactor":0.9}},{"name":"satin finish stainless steel","pbrMetallicRoughness":{"baseColorFactor":[0.783405,0.743467,0.712745,1],"metallicFactor":0.0,"roughnessFactor":0.9}},{"name":"color-4","pbrMetallicRoughness":{"baseColorFactor":[0.375833,0.375833,0.375833,1],"metallicFactor":0.0,"roughnessFactor":0.9}},{"name":"color-1","pbrMetallicRoughness":{"baseColorFactor":[0.686501,0.686501,0.0,1],"metallicFactor":0.0,"roughnessFactor":0.9}},{"name":"tire tread","pbrMetallicRoughness":{"baseColorTexture":{"index":1},"baseColorFactor":[0.0,0.0,0.0,1],"metallicFactor":0.0,"roughnessFactor":0.9}},{"name":"color-2","pbrMetallicRoughness":{"baseColorFactor":[0.144709,0.144709,0.144709,1],"metallicFactor":0.0,"roughnessFactor":0.9}},{"name":"color-3","pbrMetallicRoughness":{"baseColorFactor":[0.065571,0.065571,0.065571,1],"metallicFactor":0.0,"roughnessFactor":0.9}},{"name":"color-17","pbrMetallicRoughness":{"baseColorFactor":[0.8008,0.8008,0.8008,1],"metallicFactor":0.0,"roughnessFactor":0.9}},{"name":"color-14","pbrMetallicRoughness":{"baseColorFactor":[0.134097,0.134097,0.134097,1],"metallicFactor":0.0,"roughnessFactor":0.9}},{"name":"color-8","pbrMetallicRoughness":{"baseColorFactor":[0.742075,0.742075,0.742075,1],"metallicFactor":0.0,"roughnessFactor":0.9}},{"name":"color-9","pbrMetallicRoughness":{"baseColorFactor":[0.0,0.305247,0.576576,1],"metallicFactor":0.0,"roughnessFactor":0.9}},{"name":"color-10","pbrMetallicRoughness":{"baseColorFactor":[0.058358,0.058358,0.058358,1],"metallicFactor":0.0,"roughnessFactor":0.9}},{"name":"color-11","pbrMetallicRoughness":{"baseColorFactor":[0.408094,0.408094,0.408094,1],"metallicFactor":0.0,"roughnessFactor":0.9}},{"name":"color-12","pbrMetallicRoughness":{"baseColorFactor":[0.0,0.677233,0.0,1],"metallicFactor":0.0,"roughnessFactor":0.9}},{"name":"tire tread-1","pbrMetallicRoughness":{"baseColorTexture":{"index":1},"baseColorFactor":[0.0,0.0,0.0,1],"metallicFactor":0.0,"roughnessFactor":0.9}},{"name":"color-5","pbrMetallicRoughness":{"baseColorFactor":[0.123485,0.123485,0.123485,1],"metallicFactor":0.0,"roughnessFactor":0.9}},{"name":"color-6","pbrMetallicRoughness":{"baseColorFactor":[0.051145,0.051145,0.051145,1],"metallicFactor":0.0,"roughnessFactor":0.9}},{"name":"color-13","pbrMetallicRoughness":{"baseColorFactor":[0.112873,0.112873,0.112873,1],"metallicFactor":0.0,"roughnessFactor":0.9}},{"name":"black","pbrMetallicRoughness":{"baseColorFactor":[0.009647,0.009647,0.009647,1],"metallicFactor":0.0,"roughnessFactor":0.9}},{"name":"white","pbrMetallicRoughness":{"baseColorFactor":[0.683349,0.683349,0.683349,1],"metallicFactor":0.0,"roughnessFactor":0.9}},{"name":"satin finish aluminum-1","pbrMetallicRoughness":{"baseColorFactor":[0.515596,0.541259,0.594918,1],"metallicFactor":0.0,"roughnessFactor":0.9}},{"name":"glossy rubber","pbrMetallicRoughness":{"baseColorFactor":[0.624624,0.624624,0.624624,1],"metallicFactor":0.0,"roughnessFactor":0.9}},{"name":"chromium plate","pbrMetallicRoughness":{"baseColorFactor":[0.416386,0.434267,0.44193,1],"metallicFactor":0.0,"roughnessFactor":0.9}},{"name":"satin finish aluminum","pbrMetallicRoughness":{"baseColorFactor":[0.0,0.0,0.0,1],"metallicFactor":0.0,"roughnessFactor":0.9}}],"textures":[{"sampler":0,"source":0,"name":"n_satinwood_n.png"},{"sampler":1,"source":1,"name":"tire_tread.jpg"},{"sampler":2,"source":2,"name":"n_tiretread_n.png"}],"images":[{"uri":"n_satinwood_n.png"},{"uri":"tire_tread.jpg"},{"uri":"n_tiretread_n.png"}],"samplers":[{"magFilter":9729,"minFilter":9729,"wrapS":10497,"wrapT":10497,"name":"DefaultSampler"},{"magFilter":9729,"minFilter":9729,"wrapS":10497,"wrapT":10497,"name":"DefaultSampler"},{"magFilter":9729,"minFilter":9729,"wrapS":10497,"wrapT":10497,"name":"DefaultSampler"}],"bufferViews":[{"buffer":0,"byteOffset":0,"byteLength":69408,"byteStride":12,"target":34962},{"buffer":0,"byteOffset":69408,"byteLength":69408,"byteStride":12,"target":34962},{"buffer":0,"byteOffset":138816,"byteLength":46272,"byteStride":8,"target":34962},{"buffer":0,"byteOffset":185088,"byteLength":11568,"target":34963},{"buffer":1,"byteOffset":0,"byteLength":760680,"byteStride":12,"target":34962},{"buffer":1,"byteOffset":760680,"byteLength":760680,"byteStride":12,"target":34962},{"buffer":1,"byteOffset":1521360,"byteLength":507120,"byteStride":8,"target":34962},{"buffer":1,"byteOffset":2028480,"byteLength":126780,"target":34963},{"buffer":2,"byteOffset":0,"byteLength":179712,"byteStride":12,"target":34962},{"buffer":2,"byteOffset":179712,"byteLength":179712,"byteStride":12,"target":34962},{"buffer":2,"byteOffset":359424,"byteLength":119808,"byteStride":8,"target":34962},{"buffer":2,"byteOffset":479232,"byteLength":29952,"target":34963},{"buffer":3,"byteOffset":0,"byteLength":53208,"byteStride":12,"target":34962},{"buffer":3,"byteOffset":53208,"byteLength":53208,"byteStride":12,"target":34962},{"buffer":3,"byteOffset":106416,"byteLength":35472,"byteStride":8,"target":34962},{"buffer":3,"byteOffset":141888,"byteLength":8868,"target":34963},{"buffer":4,"byteOffset":0,"byteLength":33120,"byteStride":12,"target":34962},{"buffer":4,"byteOffset":33120,"byteLength":33120,"byteStride":12,"target":34962},{"buffer":4,"byteOffset":66240,"byteLength":22080,"byteStride":8,"target":34962},{"buffer":4,"byteOffset":88320,"byteLength":5520,"target":34963},{"buffer":5,"byteOffset":0,"byteLength":1200672,"byteStride":12,"target":34962},{"buffer":5,"byteOffset":1200672,"byteLength":1200672,"byteStride":12,"target":34962},{"buffer":5,"byteOffset":2401344,"byteLength":800448,"byteStride":8,"target":34962},{"buffer":5,"byteOffset":3201792,"byteLength":200112,"target":34963},{"buffer":6,"byteOffset":0,"byteLength":179712,"byteStride":12,"target":34962},{"buffer":6,"byteOffset":179712,"byteLength":179712,"byteStride":12,"target":34962},{"buffer":6,"byteOffset":359424,"byteLength":119808,"byteStride":8,"target":34962},{"buffer":6,"byteOffset":479232,"byteLength":29952,"target":34963},{"buffer":7,"byteOffset":0,"byteLength":179712,"byteStride":12,"target":34962},{"buffer":7,"byteOffset":179712,"byteLength":179712,"byteStride":12,"target":34962},{"buffer":7,"byteOffset":359424,"byteLength":119808,"byteStride":8,"target":34962},{"buffer":7,"byteOffset":479232,"byteLength":29952,"target":34963},{"buffer":8,"byteOffset":0,"byteLength":1205064,"byteStride":12,"target":34962},{"buffer":8,"byteOffset":1205064,"byteLength":1205064,"byteStride":12,"target":34962},{"buffer":8,"byteOffset":2410128,"byteLength":803376,"byteStride":8,"target":34962},{"buffer":8,"byteOffset":3213504,"byteLength":200844,"target":34963},{"buffer":9,"byteOffset":0,"byteLength":744336,"byteStride":12,"target":34962},{"buffer":9,"byteOffset":744336,"byteLength":744336,"byteStride":12,"target":34962},{"buffer":9,"byteOffset":1488672,"byteLength":496224,"byteStride":8,"target":34962},{"buffer":9,"byteOffset":1984896,"byteLength":124056,"target":34963},{"buffer":10,"byteOffset":0,"byteLength":1108008,"byteStride":12,"target":34962},{"buffer":10,"byteOffset":1108008,"byteLength":1108008,"byteStride":12,"target":34962},{"buffer":10,"byteOffset":2216016,"byteLength":738672,"byteStride":8,"target":34962},{"buffer":10,"byteOffset":2954688,"byteLength":184668,"target":34963},{"buffer":11,"byteOffset":0,"byteLength":206352,"byteStride":12,"target":34962},{"buffer":11,"byteOffset":206352,"byteLength":206352,"byteStride":12,"target":34962},{"buffer":11,"byteOffset":412704,"byteLength":137568,"byteStride":8,"target":34962},{"buffer":11,"byteOffset":550272,"byteLength":34392,"target":34963},{"buffer":12,"byteOffset":0,"byteLength":283032,"byteStride":12,"target":34962},{"buffer":12,"byteOffset":283032,"byteLength":283032,"byteStride":12,"target":34962},{"buffer":12,"byteOffset":566064,"byteLength":188688,"byteStride":8,"target":34962},{"buffer":12,"byteOffset":754752,"byteLength":47172,"target":34963},{"buffer":13,"byteOffset":0,"byteLength":608400,"byteStride":12,"target":34962},{"buffer":13,"byteOffset":608400,"byteLength":608400,"byteStride":12,"target":34962},{"buffer":13,"byteOffset":1216800,"byteLength":405600,"byteStride":8,"target":34962},{"buffer":13,"byteOffset":1622400,"byteLength":101400,"target":34963},{"buffer":14,"byteOffset":0,"byteLength":254952,"byteStride":12,"target":34962},{"buffer":14,"byteOffset":254952,"byteLength":254952,"byteStride":12,"target":34962},{"buffer":14,"byteOffset":509904,"byteLength":169968,"byteStride":8,"target":34962},{"buffer":14,"byteOffset":679872,"byteLength":42492,"target":34963},{"buffer":15,"byteOffset":0,"byteLength":211680,"byteStride":12,"target":34962},{"buffer":15,"byteOffset":211680,"byteLength":211680,"byteStride":12,"target":34962},{"buffer":15,"byteOffset":423360,"byteLength":141120,"byteStride":8,"target":34962},{"buffer":15,"byteOffset":564480,"byteLength":35280,"target":34963},{"buffer":16,"byteOffset":0,"byteLength":254952,"byteStride":12,"target":34962},{"buffer":16,"byteOffset":254952,"byteLength":254952,"byteStride":12,"target":34962},{"buffer":16,"byteOffset":509904,"byteLength":169968,"byteStride":8,"target":34962},{"buffer":16,"byteOffset":679872,"byteLength":42492,"target":34963},{"buffer":17,"byteOffset":0,"byteLength":328680,"byteStride":12,"target":34962},{"buffer":17,"byteOffset":328680,"byteLength":328680,"byteStride":12,"target":34962},{"buffer":17,"byteOffset":657360,"byteLength":219120,"byteStride":8,"target":34962},{"buffer":17,"byteOffset":876480,"byteLength":54780,"target":34963},{"buffer":18,"byteOffset":0,"byteLength":179712,"byteStride":12,"target":34962},{"buffer":18,"byteOffset":179712,"byteLength":179712,"byteStride":12,"target":34962},{"buffer":18,"byteOffset":359424,"byteLength":119808,"byteStride":8,"target":34962},{"buffer":18,"byteOffset":479232,"byteLength":29952,"target":34963}],"buffers":[{"byteLength":196656,"uri":"Pignone_post-1.bin"},{"byteLength":2155260,"uri":"Crankset_1-1.bin"},{"byteLength":509184,"uri":"hex_flange_nut_din-4.bin"},{"byteLength":150756,"uri":"MC-1.bin"},{"byteLength":93840,"uri":"Chain-1.bin"},{"byteLength":3401904,"uri":"Rear-1.bin"},{"byteLength":509184,"uri":"hex_flange_nut_din-2.bin"},{"byteLength":509184,"uri":"hex_flange_nut_din-3.bin"},{"byteLength":3414348,"uri":"bike_seat-1.bin"},{"byteLength":2108952,"uri":"Pista-1.bin"},{"byteLength":3139356,"uri":"700c_Road_Bike_Tire-1.bin"},{"byteLength":584664,"uri":"Reggisella-1.bin"},{"byteLength":801924,"uri":"Corona-1.bin"},{"byteLength":1723800,"uri":"Crankset-1.bin"},{"byteLength":722364,"uri":"Ma-1.bin"},{"byteLength":599760,"uri":"Pipa-1.bin"},{"byteLength":722364,"uri":"Ma-2.bin"},{"byteLength":931260,"uri":"Riser_25.4-1.bin"},{"byteLength":509184,"uri":"hex_flange_nut_din-1.bin"}]}