{"asset":{"generator":"SOLIDWORKSGLTF","version":"2.0","extras":{"siteFinish":"matte-v1","siteTone":"tone-v1"}},"extensionsUsed":["KHR_lights_punctual","Solidworks_custom_properties"],"scene":0,"scenes":[{"name":"Default - Stato di visualizzazione-1","nodes":[0,1]}],"nodes":[{"matrix":[0.0462304,-0.992163,-0.116085,0,0.578728,-0.0681182,0.812671,0,-0.81421,-0.104752,0.571043,0,-1.05004,-0.135252,0.752657,1],"camera":0,"name":"current"},{"children":[2,3,4,5,6,7,8,9,10,11,12,13,14,15,16,17],"name":"Manipolatotr","rotation":[-0.70710678,0,0,0.70710678]},{"matrix":[-6.62478e-23,-0.992502,-0.122228,0,1,-1.34164e-22,5.47423e-22,0,-5.59717e-22,-0.122228,0.992502,0,-1.84247e-19,0.0397388,0.0489223,1],"mesh":0,"name":"Braccio-1"},{"matrix":[-0.831161,0.479871,-0.280881,0,-0.24325,0.14044,0.959743,0,0.5,0.866025,8.40352e-16,0,0.0173294,-0.0100051,-0.0507283,1],"mesh":1,"name":"GripperFinger-2"},{"matrix":[0.831841,0.480263,-0.278187,0,0.240917,0.139093,0.960527,0,0.5,-0.866025,-3.747e-16,0,-0.0171964,-0.00992835,-0.0507028,1],"mesh":2,"name":"GripperFinger-3"},{"matrix":[-0.955683,0.294399,5.15677e-17,0,-6.17668e-17,-2.5346e-17,-1,0,-0.294399,-0.955683,4.24068e-17,0,1.05264e-18,3.02892e-18,0.0512,1],"mesh":3,"name":"Tavola rotante-1"},{"mesh":4,"name":"GripperHexBase-1"},{"matrix":[-1,1.38778e-16,1.41965e-16,0,8.32667e-17,1,-6.17933e-17,0,-5.71045e-17,-2.39578e-17,-1,0,1.08807e-18,-0.01025,0.038,1],"mesh":5,"name":"TZT MG 996R Servo Motor-1"},{"matrix":[-3.50697e-22,-0.958544,-0.284945,0,-5.47504e-22,-0.284945,0.958544,0,-1,4.92167e-22,-4.24877e-22,0,1.51512e-19,0.0202422,-0.0507659,1],"mesh":6,"name":"GripperFinger-1"},{"matrix":[-0.993595,-0.112996,5.94459e-17,0,5.71045e-17,2.39578e-17,1,0,-0.112996,0.993595,-1.73517e-17,0,0.0203503,-0.0117493,0.0527,1],"mesh":7,"name":"Braccio2-2"},{"matrix":[-7.24421e-15,-1,7.69298e-17,0,2.51211e-17,1.36793e-16,1,0,-1,7.10543e-15,8.69856e-18,0,-7.446e-17,-0.00949419,-0.003,1],"mesh":8,"name":"Servo case-1"},{"matrix":[-0.860012,0.496528,-0.117637,0,-0.5,-0.866025,-6.63409e-16,0,-0.101877,0.0588186,0.993057,0,0.0345796,-0.0199645,0.0488764,1],"mesh":9,"name":"Braccio-4"},{"matrix":[0.860324,0.496709,-0.114553,0,-0.5,0.866025,-6.90155e-17,0,0.0992057,0.0572765,0.993417,0,-0.0346886,-0.0200275,0.0488455,1],"mesh":10,"name":"Braccio-2"},{"matrix":[0.40998,0.912094,-4.57233e-17,0,5.85533e-17,2.38107e-17,1,0,0.912094,-0.40998,-4.36443e-17,0,-0.0204562,-0.0118104,0.0527,1],"mesh":11,"name":"Braccio2-4"},{"matrix":[1,4.07398e-16,-3.45323e-16,0,-8.10199e-17,9.61491e-17,-1,0,-7.81638e-16,1,3.88563e-16,0,1.11647e-17,0.0268138,0.0477,1],"mesh":12,"name":"Braccio1-1"},{"matrix":[-0.591711,0.80615,1.3526e-17,0,6.24594e-17,2.90665e-17,1,0,0.80615,0.591711,-6.75506e-17,0,0.0147928,0.00316007,0.0527,1],"mesh":13,"name":"Braccio2-1"},{"matrix":[-0.5,-0.866025,1.59624e-16,0,-1.42127e-16,-1.02261e-16,-1,0,0.866025,-0.5,-7.19552e-17,0,0.0233814,-0.0134993,0.0477,1],"mesh":14,"name":"Braccio1-4"},{"matrix":[-0.5,0.866025,9.61619e-16,0,-5.43515e-16,8.4529e-16,-1,0,-0.866025,-0.5,1.96414e-17,0,-0.0234873,-0.0135604,0.0477,1],"mesh":15,"name":"Braccio1-6"}],"cameras":[{"type":"orthographic","orthographic":{"xmag":1,"ymag":1,"zfar":100,"znear":0.01}}],"meshes":[{"primitives":[{"attributes":{"POSITION":1,"NORMAL":2,"TEXCOORD_0":3},"indices":0,"mode":4,"material":2}]},{"primitives":[{"attributes":{"POSITION":5,"NORMAL":6,"TEXCOORD_0":7},"indices":4,"mode":4,"material":3}]},{"primitives":[{"attributes":{"POSITION":9,"NORMAL":10,"TEXCOORD_0":11},"indices":8,"mode":4,"material":3}]},{"primitives":[{"attributes":{"POSITION":13,"NORMAL":14,"TEXCOORD_0":15},"indices":12,"mode":4,"material":4}]},{"primitives":[{"attributes":{"POSITION":17,"NORMAL":18,"TEXCOORD_0":19},"indices":16,"mode":4,"material":5}]},{"primitives":[{"attributes":{"POSITION":21,"NORMAL":22,"TEXCOORD_0":23},"indices":20,"mode":4,"material":6},{"attributes":{"POSITION":25,"NORMAL":26,"TEXCOORD_0":27},"indices":24,"mode":4,"material":7},{"attributes":{"POSITION":29,"NORMAL":30,"TEXCOORD_0":31},"indices":28,"mode":4,"material":8},{"attributes":{"POSITION":33,"NORMAL":34,"TEXCOORD_0":35},"indices":32,"mode":4,"material":9}]},{"primitives":[{"attributes":{"POSITION":37,"NORMAL":38,"TEXCOORD_0":39},"indices":36,"mode":4,"material":3}]},{"primitives":[{"attributes":{"POSITION":41,"NORMAL":42,"TEXCOORD_0":43},"indices":40,"mode":4,"material":10}]},{"primitives":[{"attributes":{"POSITION":45,"NORMAL":46,"TEXCOORD_0":47},"indices":44,"mode":4,"material":11}]},{"primitives":[{"attributes":{"POSITION":49,"NORMAL":50,"TEXCOORD_0":51},"indices":48,"mode":4,"material":2}]},{"primitives":[{"attributes":{"POSITION":53,"NORMAL":54,"TEXCOORD_0":55},"indices":52,"mode":4,"material":2}]},{"primitives":[{"attributes":{"POSITION":57,"NORMAL":58,"TEXCOORD_0":59},"indices":56,"mode":4,"material":10}]},{"primitives":[{"attributes":{"POSITION":61,"NORMAL":62,"TEXCOORD_0":63},"indices":60,"mode":4,"material":12}]},{"primitives":[{"attributes":{"POSITION":65,"NORMAL":66,"TEXCOORD_0":67},"indices":64,"mode":4,"material":10}]},{"primitives":[{"attributes":{"POSITION":69,"NORMAL":70,"TEXCOORD_0":71},"indices":68,"mode":4,"material":12}]},{"primitives":[{"attributes":{"POSITION":73,"NORMAL":74,"TEXCOORD_0":75},"indices":72,"mode":4,"material":12}]}],"accessors":[{"bufferView":3,"byteOffset":0,"componentType":5123,"count":1164,"type":"SCALAR"},{"bufferView":0,"byteOffset":0,"componentType":5126,"count":1164,"type":"VEC3","min":[-0.00298975338,-0.0022499999,-0.00300000003],"max":[0.0129897539,0.0022499999,0.00300000003]},{"bufferView":1,"byteOffset":0,"componentType":5126,"count":1164,"type":"VEC3"},{"bufferView":2,"byteOffset":0,"componentType":5126,"count":1164,"type":"VEC2"},{"bufferView":7,"byteOffset":0,"componentType":5123,"count":1932,"type":"SCALAR"},{"bufferView":4,"byteOffset":0,"componentType":5126,"count":1932,"type":"VEC3","min":[-0.0505730957,-0.00150000001,-0.00499999989],"max":[4.33680869e-19,0.0934752673,0.00499999989]},{"bufferView":5,"byteOffset":0,"componentType":5126,"count":1932,"type":"VEC3"},{"bufferView":6,"byteOffset":0,"componentType":5126,"count":1932,"type":"VEC2"},{"bufferView":11,"byteOffset":0,"componentType":5123,"count":1932,"type":"SCALAR"},{"bufferView":8,"byteOffset":0,"componentType":5126,"count":1932,"type":"VEC3","min":[-0.0505730957,-0.00150000001,-0.00499999989],"max":[4.33680869e-19,0.0934752673,0.00499999989]},{"bufferView":9,"byteOffset":0,"componentType":5126,"count":1932,"type":"VEC3"},{"bufferView":10,"byteOffset":0,"componentType":5126,"count":1932,"type":"VEC2"},{"bufferView":15,"byteOffset":0,"componentType":5123,"count":2010,"type":"SCALAR"},{"bufferView":12,"byteOffset":0,"componentType":5126,"count":2010,"type":"VEC3","min":[-0.0199912172,0.0,-0.0199999996],"max":[0.0199912172,0.00400000019,0.0199999996]},{"bufferView":13,"byteOffset":0,"componentType":5126,"count":2010,"type":"VEC3"},{"bufferView":14,"byteOffset":0,"componentType":5126,"count":2010,"type":"VEC2"},{"bufferView":19,"byteOffset":0,"componentType":5123,"count":2328,"type":"SCALAR"},{"bufferView":16,"byteOffset":0,"componentType":5126,"count":2328,"type":"VEC3","min":[-0.0327038392,-0.02364471,-1.30104261e-18],"max":[0.0327038392,0.0329999998,0.00800000038]},{"bufferView":17,"byteOffset":0,"componentType":5126,"count":2328,"type":"VEC3"},{"bufferView":18,"byteOffset":0,"componentType":5126,"count":2328,"type":"VEC2"},{"bufferView":23,"byteOffset":0,"componentType":5123,"count":21480,"type":"SCALAR"},{"bufferView":20,"byteOffset":0,"componentType":5126,"count":21480,"type":"VEC3","min":[-0.00982493255,-0.0202150755,0.0309999995],"max":[0.00982493255,0.020099178,0.0340000018]},{"bufferView":21,"byteOffset":0,"componentType":5126,"count":21480,"type":"VEC3"},{"bufferView":22,"byteOffset":0,"componentType":5126,"count":21480,"type":"VEC2"},{"bufferView":23,"byteOffset":42960,"componentType":5123,"count":132,"type":"SCALAR"},{"bufferView":20,"byteOffset":257760,"componentType":5126,"count":132,"type":"VEC3","min":[-0.00350000011,0.0199999996,0.0267267767],"max":[0.00350000011,0.0250000004,0.0307267774]},{"bufferView":21,"byteOffset":257760,"componentType":5126,"count":132,"type":"VEC3"},{"bufferView":22,"byteOffset":171840,"componentType":5126,"count":132,"type":"VEC2"},{"bufferView":23,"byteOffset":43224,"componentType":5123,"count":19674,"type":"SCALAR"},{"bufferView":20,"byteOffset":259344,"componentType":5126,"count":19674,"type":"VEC3","min":[-0.0097500002,-0.0253965724,-0.00374999992],"max":[0.0097500002,0.0253965724,0.0340000018]},{"bufferView":21,"byteOffset":259344,"componentType":5126,"count":19674,"type":"VEC3"},{"bufferView":22,"byteOffset":172896,"componentType":5126,"count":19674,"type":"VEC2"},{"bufferView":23,"byteOffset":82572,"componentType":5123,"count":17160,"type":"SCALAR"},{"bufferView":20,"byteOffset":495432,"componentType":5126,"count":17160,"type":"VEC3","min":[-0.00299989572,0.0072501041,-0.00774999987],"max":[0.00299989572,0.0132498955,1.17549435e-38]},{"bufferView":21,"byteOffset":495432,"componentType":5126,"count":17160,"type":"VEC3"},{"bufferView":22,"byteOffset":330288,"componentType":5126,"count":17160,"type":"VEC2"},{"bufferView":27,"byteOffset":0,"componentType":5123,"count":1932,"type":"SCALAR"},{"bufferView":24,"byteOffset":0,"componentType":5126,"count":1932,"type":"VEC3","min":[-0.0505730957,-0.00150000001,-0.00499999989],"max":[4.33680869e-19,0.0934752673,0.00499999989]},{"bufferView":25,"byteOffset":0,"componentType":5126,"count":1932,"type":"VEC3"},{"bufferView":26,"byteOffset":0,"componentType":5126,"count":1932,"type":"VEC2"},{"bufferView":31,"byteOffset":0,"componentType":5123,"count":948,"type":"SCALAR"},{"bufferView":28,"byteOffset":0,"componentType":5126,"count":948,"type":"VEC3","min":[-0.00300000003,-0.00150000001,-0.00300000003],"max":[0.0280000009,0.00150000001,0.00300000003]},{"bufferView":29,"byteOffset":0,"componentType":5126,"count":948,"type":"VEC3"},{"bufferView":30,"byteOffset":0,"componentType":5126,"count":948,"type":"VEC2"},{"bufferView":35,"byteOffset":0,"componentType":5123,"count":2160,"type":"SCALAR"},{"bufferView":32,"byteOffset":0,"componentType":5126,"count":2160,"type":"VEC3","min":[-0.0276500005,0.0,-0.0130000003],"max":[0.041650001,0.0350000001,0.023]},{"bufferView":33,"byteOffset":0,"componentType":5126,"count":2160,"type":"VEC3"},{"bufferView":34,"byteOffset":0,"componentType":5126,"count":2160,"type":"VEC2"},{"bufferView":39,"byteOffset":0,"componentType":5123,"count":1164,"type":"SCALAR"},{"bufferView":36,"byteOffset":0,"componentType":5126,"count":1164,"type":"VEC3","min":[-0.00298975338,-0.0022499999,-0.00300000003],"max":[0.0129897539,0.0022499999,0.00300000003]},{"bufferView":37,"byteOffset":0,"componentType":5126,"count":1164,"type":"VEC3"},{"bufferView":38,"byteOffset":0,"componentType":5126,"count":1164,"type":"VEC2"},{"bufferView":43,"byteOffset":0,"componentType":5123,"count":1164,"type":"SCALAR"},{"bufferView":40,"byteOffset":0,"componentType":5126,"count":1164,"type":"VEC3","min":[-0.00298975338,-0.0022499999,-0.00300000003],"max":[0.0129897539,0.0022499999,0.00300000003]},{"bufferView":41,"byteOffset":0,"componentType":5126,"count":1164,"type":"VEC3"},{"bufferView":42,"byteOffset":0,"componentType":5126,"count":1164,"type":"VEC2"},{"bufferView":47,"byteOffset":0,"componentType":5123,"count":948,"type":"SCALAR"},{"bufferView":44,"byteOffset":0,"componentType":5126,"count":948,"type":"VEC3","min":[-0.00300000003,-0.00150000001,-0.00300000003],"max":[0.0280000009,0.00150000001,0.00300000003]},{"bufferView":45,"byteOffset":0,"componentType":5126,"count":948,"type":"VEC3"},{"bufferView":46,"byteOffset":0,"componentType":5126,"count":948,"type":"VEC2"},{"bufferView":51,"byteOffset":0,"componentType":5123,"count":1176,"type":"SCALAR"},{"bufferView":48,"byteOffset":0,"componentType":5126,"count":1176,"type":"VEC3","min":[-0.00499999989,-0.00350000011,-0.00700000022],"max":[0.00499999989,0.00350000011,0.00700000022]},{"bufferView":49,"byteOffset":0,"componentType":5126,"count":1176,"type":"VEC3"},{"bufferView":50,"byteOffset":0,"componentType":5126,"count":1176,"type":"VEC2"},{"bufferView":55,"byteOffset":0,"componentType":5123,"count":948,"type":"SCALAR"},{"bufferView":52,"byteOffset":0,"componentType":5126,"count":948,"type":"VEC3","min":[-0.00300000003,-0.00150000001,-0.00300000003],"max":[0.0280000009,0.00150000001,0.00300000003]},{"bufferView":53,"byteOffset":0,"componentType":5126,"count":948,"type":"VEC3"},{"bufferView":54,"byteOffset":0,"componentType":5126,"count":948,"type":"VEC2"},{"bufferView":59,"byteOffset":0,"componentType":5123,"count":1176,"type":"SCALAR"},{"bufferView":56,"byteOffset":0,"componentType":5126,"count":1176,"type":"VEC3","min":[-0.00499999989,-0.00350000011,-0.00700000022],"max":[0.00499999989,0.00350000011,0.00700000022]},{"bufferView":57,"byteOffset":0,"componentType":5126,"count":1176,"type":"VEC3"},{"bufferView":58,"byteOffset":0,"componentType":5126,"count":1176,"type":"VEC2"},{"bufferView":63,"byteOffset":0,"componentType":5123,"count":1176,"type":"SCALAR"},{"bufferView":60,"byteOffset":0,"componentType":5126,"count":1176,"type":"VEC3","min":[-0.00499999989,-0.00350000011,-0.00700000022],"max":[0.00499999989,0.00350000011,0.00700000022]},{"bufferView":61,"byteOffset":0,"componentType":5126,"count":1176,"type":"VEC3"},{"bufferView":62,"byteOffset":0,"componentType":5126,"count":1176,"type":"VEC2"}],"materials":[{"pbrMetallicRoughness":{"baseColorFactor":[0.287157,0.287157,0.287157,1],"metallicFactor":0.0,"roughnessFactor":0.9}},{"name":"warning","pbrMetallicRoughness":{"baseColorFactor":[0.8008,0.8008,0.8008,1],"metallicFactor":0.0,"roughnessFactor":0.9}},{"name":"color-3","pbrMetallicRoughness":{"baseColorFactor":[0.372373,0.741836,0.372373,1],"metallicFactor":0.0,"roughnessFactor":0.9}},{"name":"color-6","pbrMetallicRoughness":{"baseColorFactor":[0.624339,0.313394,0.313394,1],"metallicFactor":0.0,"roughnessFactor":0.9}},{"name":"color-4","pbrMetallicRoughness":{"baseColorFactor":[0.8008,0.8008,0.8008,1],"metallicFactor":0.0,"roughnessFactor":0.9}},{"name":"color-1","pbrMetallicRoughness":{"baseColorFactor":[0.78627,0.78627,0.394677,1],"metallicFactor":0.0,"roughnessFactor":0.9}},{"name":"chromium plate","pbrMetallicRoughness":{"baseColorFactor":[0.416386,0.434267,0.44193,1],"metallicFactor":0.0,"roughnessFactor":0.9}},{"name":"black soft touch plastic","pbrMetallicRoughness":{"baseColorFactor":[0.058788,0.058788,0.058788,1],"metallicFactor":0.0,"roughnessFactor":0.9}},{"name":"black low gloss plastic","pbrMetallicRoughness":{"baseColorFactor":[0.289419,0.289419,0.289419,1],"metallicFactor":0.0,"roughnessFactor":0.9}},{"name":"matte brass","pbrMetallicRoughness":{"baseColorFactor":[0.662051,0.530735,0.125844,1],"metallicFactor":0.0,"roughnessFactor":0.9}},{"name":"color-7","pbrMetallicRoughness":{"baseColorFactor":[0.294817,0.294817,0.587331,1],"metallicFactor":0.0,"roughnessFactor":0.9}},{"name":"color-5","pbrMetallicRoughness":{"baseColorFactor":[0.501182,0.251574,0.501182,1],"metallicFactor":0.0,"roughnessFactor":0.9}},{"name":"color","pbrMetallicRoughness":{"baseColorFactor":[0.380094,0.757219,0.757219,1],"metallicFactor":0.0,"roughnessFactor":0.9}}],"bufferViews":[{"buffer":0,"byteOffset":0,"byteLength":13968,"byteStride":12,"target":34962},{"buffer":0,"byteOffset":13968,"byteLength":13968,"byteStride":12,"target":34962},{"buffer":0,"byteOffset":27936,"byteLength":9312,"byteStride":8,"target":34962},{"buffer":0,"byteOffset":37248,"byteLength":2328,"target":34963},{"buffer":1,"byteOffset":0,"byteLength":23184,"byteStride":12,"target":34962},{"buffer":1,"byteOffset":23184,"byteLength":23184,"byteStride":12,"target":34962},{"buffer":1,"byteOffset":46368,"byteLength":15456,"byteStride":8,"target":34962},{"buffer":1,"byteOffset":61824,"byteLength":3864,"target":34963},{"buffer":2,"byteOffset":0,"byteLength":23184,"byteStride":12,"target":34962},{"buffer":2,"byteOffset":23184,"byteLength":23184,"byteStride":12,"target":34962},{"buffer":2,"byteOffset":46368,"byteLength":15456,"byteStride":8,"target":34962},{"buffer":2,"byteOffset":61824,"byteLength":3864,"target":34963},{"buffer":3,"byteOffset":0,"byteLength":24120,"byteStride":12,"target":34962},{"buffer":3,"byteOffset":24120,"byteLength":24120,"byteStride":12,"target":34962},{"buffer":3,"byteOffset":48240,"byteLength":16080,"byteStride":8,"target":34962},{"buffer":3,"byteOffset":64320,"byteLength":4020,"target":34963},{"buffer":4,"byteOffset":0,"byteLength":27936,"byteStride":12,"target":34962},{"buffer":4,"byteOffset":27936,"byteLength":27936,"byteStride":12,"target":34962},{"buffer":4,"byteOffset":55872,"byteLength":18624,"byteStride":8,"target":34962},{"buffer":4,"byteOffset":74496,"byteLength":4656,"target":34963},{"buffer":5,"byteOffset":0,"byteLength":701352,"byteStride":12,"target":34962},{"buffer":5,"byteOffset":701352,"byteLength":701352,"byteStride":12,"target":34962},{"buffer":5,"byteOffset":1402704,"byteLength":467568,"byteStride":8,"target":34962},{"buffer":5,"byteOffset":1870272,"byteLength":116892,"target":34963},{"buffer":6,"byteOffset":0,"byteLength":23184,"byteStride":12,"target":34962},{"buffer":6,"byteOffset":23184,"byteLength":23184,"byteStride":12,"target":34962},{"buffer":6,"byteOffset":46368,"byteLength":15456,"byteStride":8,"target":34962},{"buffer":6,"byteOffset":61824,"byteLength":3864,"target":34963},{"buffer":7,"byteOffset":0,"byteLength":11376,"byteStride":12,"target":34962},{"buffer":7,"byteOffset":11376,"byteLength":11376,"byteStride":12,"target":34962},{"buffer":7,"byteOffset":22752,"byteLength":7584,"byteStride":8,"target":34962},{"buffer":7,"byteOffset":30336,"byteLength":1896,"target":34963},{"buffer":8,"byteOffset":0,"byteLength":25920,"byteStride":12,"target":34962},{"buffer":8,"byteOffset":25920,"byteLength":25920,"byteStride":12,"target":34962},{"buffer":8,"byteOffset":51840,"byteLength":17280,"byteStride":8,"target":34962},{"buffer":8,"byteOffset":69120,"byteLength":4320,"target":34963},{"buffer":9,"byteOffset":0,"byteLength":13968,"byteStride":12,"target":34962},{"buffer":9,"byteOffset":13968,"byteLength":13968,"byteStride":12,"target":34962},{"buffer":9,"byteOffset":27936,"byteLength":9312,"byteStride":8,"target":34962},{"buffer":9,"byteOffset":37248,"byteLength":2328,"target":34963},{"buffer":10,"byteOffset":0,"byteLength":13968,"byteStride":12,"target":34962},{"buffer":10,"byteOffset":13968,"byteLength":13968,"byteStride":12,"target":34962},{"buffer":10,"byteOffset":27936,"byteLength":9312,"byteStride":8,"target":34962},{"buffer":10,"byteOffset":37248,"byteLength":2328,"target":34963},{"buffer":11,"byteOffset":0,"byteLength":11376,"byteStride":12,"target":34962},{"buffer":11,"byteOffset":11376,"byteLength":11376,"byteStride":12,"target":34962},{"buffer":11,"byteOffset":22752,"byteLength":7584,"byteStride":8,"target":34962},{"buffer":11,"byteOffset":30336,"byteLength":1896,"target":34963},{"buffer":12,"byteOffset":0,"byteLength":14112,"byteStride":12,"target":34962},{"buffer":12,"byteOffset":14112,"byteLength":14112,"byteStride":12,"target":34962},{"buffer":12,"byteOffset":28224,"byteLength":9408,"byteStride":8,"target":34962},{"buffer":12,"byteOffset":37632,"byteLength":2352,"target":34963},{"buffer":13,"byteOffset":0,"byteLength":11376,"byteStride":12,"target":34962},{"buffer":13,"byteOffset":11376,"byteLength":11376,"byteStride":12,"target":34962},{"buffer":13,"byteOffset":22752,"byteLength":7584,"byteStride":8,"target":34962},{"buffer":13,"byteOffset":30336,"byteLength":1896,"target":34963},{"buffer":14,"byteOffset":0,"byteLength":14112,"byteStride":12,"target":34962},{"buffer":14,"byteOffset":14112,"byteLength":14112,"byteStride":12,"target":34962},{"buffer":14,"byteOffset":28224,"byteLength":9408,"byteStride":8,"target":34962},{"buffer":14,"byteOffset":37632,"byteLength":2352,"target":34963},{"buffer":15,"byteOffset":0,"byteLength":14112,"byteStride":12,"target":34962},{"buffer":15,"byteOffset":14112,"byteLength":14112,"byteStride":12,"target":34962},{"buffer":15,"byteOffset":28224,"byteLength":9408,"byteStride":8,"target":34962},{"buffer":15,"byteOffset":37632,"byteLength":2352,"target":34963}],"buffers":[{"byteLength":39576,"uri":"Braccio-1.bin"},{"byteLength":65688,"uri":"GripperFinger-2.bin"},{"byteLength":65688,"uri":"GripperFinger-3.bin"},{"byteLength":68340,"uri":"Tavola_rotante-1.bin"},{"byteLength":79152,"uri":"GripperHexBase-1.bin"},{"byteLength":1987164,"uri":"TZT_MG_996R_Servo_Motor-1.bin"},{"byteLength":65688,"uri":"GripperFinger-1.bin"},{"byteLength":32232,"uri":"Braccio2-2.bin"},{"byteLength":73440,"uri":"Servo_case-1.bin"},{"byteLength":39576,"uri":"Braccio-4.bin"},{"byteLength":39576,"uri":"Braccio-2.bin"},{"byteLength":32232,"uri":"Braccio2-4.bin"},{"byteLength":39984,"uri":"Braccio1-1.bin"},{"byteLength":32232,"uri":"Braccio2-1.bin"},{"byteLength":39984,"uri":"Braccio1-4.bin"},{"byteLength":39984,"uri":"Braccio1-6.bin"}]}