{"asset":{"generator":"SOLIDWORKSGLTF","version":"2.0","extras":{"siteFinish":"matte-v1","siteTone":"tone-v1"}},"extensionsUsed":["KHR_lights_punctual","Solidworks_custom_properties"],"scene":0,"scenes":[{"name":"Default - Stato di visualizzazione-1","nodes":[0,1]}],"nodes":[{"matrix":[-0.271413,-0.137959,0.952524,0,-0.0585276,0.990208,0.12674,0,-0.960682,-0.0213503,-0.276829,0,-1.97116,-0.0483436,-0.57659,1],"camera":0,"name":"current"},{"children":[2,3],"name":"Assieme1"},{"mesh":0,"name":"Corpo principale-1"},{"matrix":[1,0,0,0,0,1,0,0,0,0,1,0,0,0.0184785,-0.028702,1],"mesh":1,"name":"Carrello-1"}],"cameras":[{"type":"orthographic","orthographic":{"xmag":1,"ymag":1,"zfar":100,"znear":0.01}}],"meshes":[{"primitives":[{"attributes":{"POSITION":1,"NORMAL":2,"TEXCOORD_0":3},"indices":0,"mode":4,"material":1}]},{"primitives":[{"attributes":{"POSITION":5,"NORMAL":6,"TEXCOORD_0":7},"indices":4,"mode":4,"material":2}]}],"accessors":[{"bufferView":3,"byteOffset":0,"componentType":5123,"count":23649,"type":"SCALAR"},{"bufferView":0,"byteOffset":0,"componentType":5126,"count":23649,"type":"VEC3","min":[-0.00967739988,-0.100739166,-0.104234174],"max":[0.00967739988,0.01143,0.0675640032]},{"bufferView":1,"byteOffset":0,"componentType":5126,"count":23649,"type":"VEC3"},{"bufferView":2,"byteOffset":0,"componentType":5126,"count":23649,"type":"VEC2"},{"bufferView":7,"byteOffset":0,"componentType":5123,"count":9366,"type":"SCALAR"},{"bufferView":4,"byteOffset":0,"componentType":5126,"count":9366,"type":"VEC3","min":[-0.0116331996,-0.0242223274,-0.050167989],"max":[0.0116331996,0.0138818081,0.139395207]},{"bufferView":5,"byteOffset":0,"componentType":5126,"count":9366,"type":"VEC3"},{"bufferView":6,"byteOffset":0,"componentType":5126,"count":9366,"type":"VEC2"}],"materials":[{"pbrMetallicRoughness":{"baseColorFactor":[0.356305,0.356305,0.356305,1],"metallicFactor":0.0,"roughnessFactor":0.9}},{"name":"matte steel","pbrMetallicRoughness":{"baseColorFactor":[0.521304,0.496182,0.471059,1],"metallicFactor":0.0,"roughnessFactor":0.9}},{"name":"matte steel-1","pbrMetallicRoughness":{"baseColorFactor":[0.406617,0.387022,0.367426,1],"metallicFactor":0.0,"roughnessFactor":0.9}}],"bufferViews":[{"buffer":0,"byteOffset":0,"byteLength":283788,"byteStride":12,"target":34962},{"buffer":0,"byteOffset":283788,"byteLength":283788,"byteStride":12,"target":34962},{"buffer":0,"byteOffset":567576,"byteLength":189192,"byteStride":8,"target":34962},{"buffer":0,"byteOffset":756768,"byteLength":47298,"target":34963},{"buffer":1,"byteOffset":0,"byteLength":112392,"byteStride":12,"target":34962},{"buffer":1,"byteOffset":112392,"byteLength":112392,"byteStride":12,"target":34962},{"buffer":1,"byteOffset":224784,"byteLength":74928,"byteStride":8,"target":34962},{"buffer":1,"byteOffset":299712,"byteLength":18732,"target":34963}],"buffers":[{"byteLength":804068,"uri":"Corpo_principale-1.bin"},{"byteLength":318444,"uri":"Carrello-1.bin"}]}