{"asset":{"generator":"SOLIDWORKSGLTF","version":"2.0","extras":{"siteFinish":"matte-v1","siteTone":"tone-v1"}},"extensionsUsed":["KHR_lights_punctual","Solidworks_custom_properties"],"scene":0,"scenes":[{"name":"Default - <Default>_Stato di visualizzazione 1","nodes":[0,1]}],"nodes":[{"matrix":[0.92809,0.344711,0.140792,0,0.220112,-0.202921,-0.954135,0,-0.300332,0.916514,-0.264204,0,-0.459501,1.41944,-0.429792,1],"camera":0,"name":"current"},{"mesh":0,"rotation":[0.70710678,0,0,0.70710678],"name":"Cutter.SLDPRT"}],"cameras":[{"type":"orthographic","orthographic":{"xmag":1,"ymag":1,"zfar":100,"znear":0.01}}],"meshes":[{"primitives":[{"attributes":{"POSITION":1,"NORMAL":2,"TEXCOORD_0":3},"indices":0,"mode":4,"material":1},{"attributes":{"POSITION":5,"NORMAL":6,"TEXCOORD_0":7},"indices":4,"mode":4,"material":2}]}],"accessors":[{"bufferView":3,"byteOffset":0,"componentType":5123,"count":48,"type":"SCALAR"},{"bufferView":0,"byteOffset":0,"componentType":5126,"count":48,"type":"VEC3","min":[-0.0577999987,-0.000159999996,-0.01774],"max":[0.00966999959,0.000159999996,1.73472348e-17]},{"bufferView":1,"byteOffset":0,"componentType":5126,"count":48,"type":"VEC3"},{"bufferView":2,"byteOffset":0,"componentType":5126,"count":48,"type":"VEC2"},{"bufferView":3,"byteOffset":96,"componentType":5123,"count":264,"type":"SCALAR"},{"bufferView":0,"byteOffset":576,"componentType":5126,"count":264,"type":"VEC3","min":[-0.0523490421,-0.00300000003,-0.0299999993],"max":[0.0976509601,0.00300000003,1.17549435e-38]},{"bufferView":1,"byteOffset":576,"componentType":5126,"count":264,"type":"VEC3"},{"bufferView":2,"byteOffset":384,"componentType":5126,"count":264,"type":"VEC2"}],"materials":[{"pbrMetallicRoughness":{"baseColorFactor":[0.324368,0.324368,0.324368,1],"metallicFactor":0.0,"roughnessFactor":0.9}},{"name":"color","pbrMetallicRoughness":{"baseColorFactor":[0.602955,0.602955,0.602955,1],"metallicFactor":0.0,"roughnessFactor":0.9}},{"name":"color-1","pbrMetallicRoughness":{"baseColorFactor":[0.576576,0.0,0.0,1],"metallicFactor":0.0,"roughnessFactor":0.9}}],"bufferViews":[{"buffer":0,"byteOffset":0,"byteLength":3744,"byteStride":12,"target":34962},{"buffer":0,"byteOffset":3744,"byteLength":3744,"byteStride":12,"target":34962},{"buffer":0,"byteOffset":7488,"byteLength":2496,"byteStride":8,"target":34962},{"buffer":0,"byteOffset":9984,"byteLength":624,"target":34963}],"buffers":[{"byteLength":10608,"uri":"Cutter.SLDPRT.bin"}]}