{"asset":{"generator":"SOLIDWORKSGLTF","version":"2.0","extras":{"siteFinish":"matte-v1","siteTone":"tone-v1","siteTriad":"triad-v1"}},"extensionsUsed":["KHR_lights_punctual","Solidworks_custom_properties"],"scene":0,"scenes":[{"name":"Default - Stato di visualizzazione-1","nodes":[0,1]}],"nodes":[{"matrix":[0.897721,0.0608616,0.43634,0,0.228659,0.782205,-0.579544,0,-0.376579,0.620042,0.688285,0,-1.27718,2.12794,2.29257,1],"camera":0,"name":"current"},{"children":[2,3,4,5,6,7,8,9,10,11,12,13,14],"name":"Complessivo_scena_tracking"},{"matrix":[0.423469,-1.3687e-15,0.905911,0,-8.99647e-17,1,1.55291e-15,0,-0.905911,-7.39108e-16,0.423469,0,-2.85711e-18,0.0204914,-2.98309e-17,1],"mesh":0,"name":"Vite_legno-7"},{"matrix":[-4.42205e-17,-9.03678e-17,1,0,-8.32667e-17,1,6.59195e-17,0,-1,-1.11022e-16,-2.46519e-32,0,-3.46945e-18,0.027,-1.9745e-17,1],"mesh":1,"name":"Artefact_2_unione_corpi-1"},{"matrix":[0.982082,4.68375e-16,-0.188455,0,-1.68268e-16,1,1.66533e-15,0,0.188455,-1.60982e-15,0.982082,0,0.093,0.0204914,-0.093,1],"mesh":2,"name":"Vite_legno-2"},{"matrix":[1,0,0,0,0,1,0,0,0,0,1,0,0.093,0.0204914,0.093,1],"mesh":3,"name":"Vite_legno-1"},{"matrix":[-0.146566,-1.82415e-15,0.989201,0,-2.28788e-16,1,1.81016e-15,0,-0.989201,3.89901e-17,-0.146566,0,-0.093,0.0204914,0.093,1],"mesh":4,"name":"Vite_legno-4"},{"matrix":[0.8,9.99201e-16,-0.6,0,-1.38778e-16,1,1.44329e-15,0,0.6,-1.11022e-15,0.8,0,-0.099,0.0204914,-0.099,1],"mesh":5,"name":"Vite_legno-6"},{"mesh":6,"name":"Artefact_0_base-1"},{"matrix":[-1.38778e-16,0.707107,-0.707107,0,-1,7.32921e-17,2.498e-16,0,1.94289e-16,0.707107,0.707107,0,-0.075,0.077,-0.052,1],"mesh":7,"name":"Adattatore_ArUco_femmina-1"},{"matrix":[2.91434e-16,-0.996195,0.0871557,0,-1,-3.01427e-16,-1.01502e-16,0,1.27387e-16,-0.0871557,-0.996195,0,-0.077,0.077,-0.052,1],"mesh":8,"name":"Adattatore_ArUco-1"},{"name":"triad-x","mesh":9},{"name":"triad-y","mesh":10},{"name":"triad-z","mesh":11},{"name":"triad-o","mesh":12}],"cameras":[{"type":"orthographic","orthographic":{"xmag":1,"ymag":1,"zfar":100,"znear":0.01}}],"meshes":[{"primitives":[{"attributes":{"POSITION":1,"NORMAL":2,"TEXCOORD_0":3},"indices":0,"mode":4,"material":1}]},{"primitives":[{"attributes":{"POSITION":5,"NORMAL":6,"TEXCOORD_0":7},"indices":4,"mode":4,"material":2},{"attributes":{"POSITION":9,"NORMAL":10,"TEXCOORD_0":11},"indices":8,"mode":4,"material":3},{"attributes":{"POSITION":13,"NORMAL":14,"TEXCOORD_0":15},"indices":12,"mode":4,"material":4},{"attributes":{"POSITION":17,"NORMAL":18,"TEXCOORD_0":19},"indices":16,"mode":4,"material":5},{"attributes":{"POSITION":21,"NORMAL":22,"TEXCOORD_0":23},"indices":20,"mode":4,"material":6}]},{"primitives":[{"attributes":{"POSITION":25,"NORMAL":26,"TEXCOORD_0":27},"indices":24,"mode":4,"material":1}]},{"primitives":[{"attributes":{"POSITION":29,"NORMAL":30,"TEXCOORD_0":31},"indices":28,"mode":4,"material":1}]},{"primitives":[{"attributes":{"POSITION":33,"NORMAL":34,"TEXCOORD_0":35},"indices":32,"mode":4,"material":1}]},{"primitives":[{"attributes":{"POSITION":37,"NORMAL":38,"TEXCOORD_0":39},"indices":36,"mode":4,"material":1}]},{"primitives":[{"attributes":{"POSITION":41,"NORMAL":42,"TEXCOORD_0":43},"indices":40,"mode":4,"material":7}]},{"primitives":[{"attributes":{"POSITION":45,"NORMAL":46,"TEXCOORD_0":47},"indices":44,"mode":4,"material":8}]},{"primitives":[{"attributes":{"POSITION":49,"NORMAL":50,"TEXCOORD_0":51},"indices":48,"mode":4,"material":9}]},{"name":"triad-x","primitives":[{"attributes":{"POSITION":52,"NORMAL":53},"indices":54,"material":10}]},{"name":"triad-y","primitives":[{"attributes":{"POSITION":55,"NORMAL":56},"indices":57,"material":11}]},{"name":"triad-z","primitives":[{"attributes":{"POSITION":58,"NORMAL":59},"indices":60,"material":12}]},{"name":"triad-o","primitives":[{"attributes":{"POSITION":61,"NORMAL":62},"indices":63,"material":13}]}],"accessors":[{"bufferView":3,"byteOffset":0,"componentType":5123,"count":1302,"type":"SCALAR"},{"bufferView":0,"byteOffset":0,"componentType":5126,"count":1302,"type":"VEC3","min":[-0.00299893692,4.33680869e-19,-0.00300000003],"max":[0.00299893692,0.0120000001,0.00300000003]},{"bufferView":1,"byteOffset":0,"componentType":5126,"count":1302,"type":"VEC3"},{"bufferView":2,"byteOffset":0,"componentType":5126,"count":1302,"type":"VEC2"},{"bufferView":7,"byteOffset":0,"componentType":5123,"count":8337,"type":"SCALAR"},{"bufferView":4,"byteOffset":0,"componentType":5126,"count":8337,"type":"VEC3","min":[-0.094721362,0.00200000009,-0.094721362],"max":[1.17549435e-38,0.0419305563,1.17549435e-38]},{"bufferView":5,"byteOffset":0,"componentType":5126,"count":8337,"type":"VEC3"},{"bufferView":6,"byteOffset":0,"componentType":5126,"count":8337,"type":"VEC2"},{"bufferView":7,"byteOffset":16674,"componentType":5123,"count":1641,"type":"SCALAR"},{"bufferView":4,"byteOffset":100044,"componentType":5126,"count":1641,"type":"VEC3","min":[-0.0949999988,0.00200000009,0.00499999989],"max":[1.17549435e-38,0.118666664,0.0949999988]},{"bufferView":5,"byteOffset":100044,"componentType":5126,"count":1641,"type":"VEC3"},{"bufferView":6,"byteOffset":66696,"componentType":5126,"count":1641,"type":"VEC2"},{"bufferView":7,"byteOffset":19956,"componentType":5123,"count":7986,"type":"SCALAR"},{"bufferView":4,"byteOffset":119736,"componentType":5126,"count":7986,"type":"VEC3","min":[0.00554777868,0.00406944426,0.00554777868],"max":[0.0944522247,0.0419999994,0.0944522247]},{"bufferView":5,"byteOffset":119736,"componentType":5126,"count":7986,"type":"VEC3"},{"bufferView":6,"byteOffset":79824,"componentType":5126,"count":7986,"type":"VEC2"},{"bufferView":7,"byteOffset":35928,"componentType":5123,"count":1503,"type":"SCALAR"},{"bufferView":4,"byteOffset":215568,"componentType":5126,"count":1503,"type":"VEC3","min":[0.00499999989,0.0120000001,-0.0949999988],"max":[0.0949999988,0.0120000001,1.17549435e-38]},{"bufferView":5,"byteOffset":215568,"componentType":5126,"count":1503,"type":"VEC3"},{"bufferView":6,"byteOffset":143712,"componentType":5126,"count":1503,"type":"VEC2"},{"bufferView":7,"byteOffset":38934,"componentType":5123,"count":47871,"type":"SCALAR"},{"bufferView":4,"byteOffset":233604,"componentType":5126,"count":47871,"type":"VEC3","min":[-0.104000002,-4.49871745e-16,-0.104000002],"max":[0.104000002,0.118666664,0.104000002]},{"bufferView":5,"byteOffset":233604,"componentType":5126,"count":47871,"type":"VEC3"},{"bufferView":6,"byteOffset":155736,"componentType":5126,"count":47871,"type":"VEC2"},{"bufferView":11,"byteOffset":0,"componentType":5123,"count":1302,"type":"SCALAR"},{"bufferView":8,"byteOffset":0,"componentType":5126,"count":1302,"type":"VEC3","min":[-0.00299893692,4.33680869e-19,-0.00300000003],"max":[0.00299893692,0.0120000001,0.00300000003]},{"bufferView":9,"byteOffset":0,"componentType":5126,"count":1302,"type":"VEC3"},{"bufferView":10,"byteOffset":0,"componentType":5126,"count":1302,"type":"VEC2"},{"bufferView":15,"byteOffset":0,"componentType":5123,"count":1302,"type":"SCALAR"},{"bufferView":12,"byteOffset":0,"componentType":5126,"count":1302,"type":"VEC3","min":[-0.00299893692,4.33680869e-19,-0.00300000003],"max":[0.00299893692,0.0120000001,0.00300000003]},{"bufferView":13,"byteOffset":0,"componentType":5126,"count":1302,"type":"VEC3"},{"bufferView":14,"byteOffset":0,"componentType":5126,"count":1302,"type":"VEC2"},{"bufferView":19,"byteOffset":0,"componentType":5123,"count":1302,"type":"SCALAR"},{"bufferView":16,"byteOffset":0,"componentType":5126,"count":1302,"type":"VEC3","min":[-0.00299893692,4.33680869e-19,-0.00300000003],"max":[0.00299893692,0.0120000001,0.00300000003]},{"bufferView":17,"byteOffset":0,"componentType":5126,"count":1302,"type":"VEC3"},{"bufferView":18,"byteOffset":0,"componentType":5126,"count":1302,"type":"VEC2"},{"bufferView":23,"byteOffset":0,"componentType":5123,"count":1302,"type":"SCALAR"},{"bufferView":20,"byteOffset":0,"componentType":5126,"count":1302,"type":"VEC3","min":[-0.00299893692,4.33680869e-19,-0.00300000003],"max":[0.00299893692,0.0120000001,0.00300000003]},{"bufferView":21,"byteOffset":0,"componentType":5126,"count":1302,"type":"VEC3"},{"bufferView":22,"byteOffset":0,"componentType":5126,"count":1302,"type":"VEC2"},{"bufferView":27,"byteOffset":0,"componentType":5123,"count":36,"type":"SCALAR"},{"bufferView":24,"byteOffset":0,"componentType":5126,"count":36,"type":"VEC3","min":[-0.150000006,0.0,-0.125],"max":[0.150000006,0.0270000007,0.125]},{"bufferView":25,"byteOffset":0,"componentType":5126,"count":36,"type":"VEC3"},{"bufferView":26,"byteOffset":0,"componentType":5126,"count":36,"type":"VEC2"},{"bufferView":31,"byteOffset":0,"componentType":5123,"count":1044,"type":"SCALAR"},{"bufferView":28,"byteOffset":0,"componentType":5126,"count":1044,"type":"VEC3","min":[-0.0149830105,0.0,-0.0149999997],"max":[0.0149830105,0.0219999999,0.0149999997]},{"bufferView":29,"byteOffset":0,"componentType":5126,"count":1044,"type":"VEC3"},{"bufferView":30,"byteOffset":0,"componentType":5126,"count":1044,"type":"VEC2"},{"bufferView":35,"byteOffset":0,"componentType":5123,"count":264,"type":"SCALAR"},{"bufferView":32,"byteOffset":0,"componentType":5126,"count":264,"type":"VEC3","min":[-0.00841496978,-6.9388939e-18,-0.00854478404],"max":[0.00841496978,0.0199999996,0.00854478404]},{"bufferView":33,"byteOffset":0,"componentType":5126,"count":264,"type":"VEC3"},{"bufferView":34,"byteOffset":0,"componentType":5126,"count":264,"type":"VEC2"},{"bufferView":36,"componentType":5126,"count":290,"type":"VEC3","min":[0.09200000017881393,0.027000000700354576,0.0],"max":[0.10599999874830246,0.04100000113248825,0.0989999994635582]},{"bufferView":37,"componentType":5126,"count":290,"type":"VEC3"},{"bufferView":38,"componentType":5125,"count":720,"type":"SCALAR"},{"bufferView":39,"componentType":5126,"count":290,"type":"VEC3","min":[0.0,0.027000000700354576,0.09200000017881393],"max":[0.0989999994635582,0.04100000113248825,0.10599999874830246]},{"bufferView":40,"componentType":5126,"count":290,"type":"VEC3"},{"bufferView":41,"componentType":5125,"count":720,"type":"SCALAR"},{"bufferView":42,"componentType":5126,"count":290,"type":"VEC3","min":[0.09200000017881393,0.03400000184774399,0.09200000017881393],"max":[0.10599999874830246,0.13300000131130219,0.10599999874830246]},{"bufferView":43,"componentType":5126,"count":290,"type":"VEC3"},{"bufferView":44,"componentType":5125,"count":720,"type":"SCALAR"},{"bufferView":45,"componentType":5126,"count":642,"type":"VEC3","min":[0.09399999678134918,0.028999999165534973,0.09399999678134918],"max":[0.10400000214576721,0.039000000804662704,0.10400000214576721]},{"bufferView":46,"componentType":5126,"count":642,"type":"VEC3"},{"bufferView":47,"componentType":5125,"count":3840,"type":"SCALAR"}],"materials":[{"pbrMetallicRoughness":{"baseColorFactor":[0.438274,0.438274,0.438274,1],"metallicFactor":0.0,"roughnessFactor":0.9}},{"name":"color-7","pbrMetallicRoughness":{"baseColorFactor":[0.17,0.16,0.15,1],"metallicFactor":0.0,"roughnessFactor":0.9}},{"name":"color-2","pbrMetallicRoughness":{"baseColorFactor":[0.116405,0.291769,0.154199,1],"metallicFactor":0.0,"roughnessFactor":0.9}},{"name":"color-1","pbrMetallicRoughness":{"baseColorFactor":[0.296017,0.155581,0.145943,1],"metallicFactor":0.0,"roughnessFactor":0.9}},{"name":"color-4","pbrMetallicRoughness":{"baseColorFactor":[0.0453,0.215517,0.267681,1],"metallicFactor":0.0,"roughnessFactor":0.9}},{"name":"color-3","pbrMetallicRoughness":{"baseColorFactor":[0.445895,0.424492,0.044589,1],"metallicFactor":0.0,"roughnessFactor":0.9}},{"name":"color","pbrMetallicRoughness":{"baseColorFactor":[0.484,0.484,0.484,1],"metallicFactor":0.0,"roughnessFactor":0.9}},{"name":"satin finished teak 2d","pbrMetallicRoughness":{"baseColorTexture":{"index":0},"baseColorFactor":[0.8,0.78,0.74,1],"metallicFactor":0.0,"roughnessFactor":0.9}},{"name":"color-6","pbrMetallicRoughness":{"baseColorFactor":[0.13,0.125,0.12,1],"metallicFactor":0.0,"roughnessFactor":0.9}},{"name":"color-5","pbrMetallicRoughness":{"baseColorFactor":[0.22,0.21,0.2,1],"metallicFactor":0.0,"roughnessFactor":0.9}},{"name":"triad-x","doubleSided":false,"alphaMode":"BLEND","emissiveFactor":[0.3,0.015,0.012],"pbrMetallicRoughness":{"baseColorFactor":[0.86,0.08,0.07,1.0],"metallicFactor":0.0,"roughnessFactor":0.45}},{"name":"triad-y","doubleSided":false,"alphaMode":"BLEND","emissiveFactor":[0.02,0.24,0.05],"pbrMetallicRoughness":{"baseColorFactor":[0.09,0.7,0.16,1.0],"metallicFactor":0.0,"roughnessFactor":0.45}},{"name":"triad-z","doubleSided":false,"alphaMode":"BLEND","emissiveFactor":[0.03,0.08,0.32],"pbrMetallicRoughness":{"baseColorFactor":[0.13,0.34,0.95,1.0],"metallicFactor":0.0,"roughnessFactor":0.45}},{"name":"triad-o","doubleSided":false,"alphaMode":"BLEND","emissiveFactor":[0.33,0.25,0.03],"pbrMetallicRoughness":{"baseColorFactor":[0.96,0.75,0.09,1.0],"metallicFactor":0.0,"roughnessFactor":0.45}}],"textures":[{"sampler":0,"source":0,"name":"satin_finished_teak.jpg"},{"sampler":1,"source":1,"name":"n_satinwood_n.png"}],"images":[{"uri":"satin_finished_teak.jpg"},{"uri":"n_satinwood_n.png"}],"samplers":[{"magFilter":9729,"minFilter":9729,"wrapS":10497,"wrapT":10497,"name":"DefaultSampler"},{"magFilter":9729,"minFilter":9729,"wrapS":10497,"wrapT":10497,"name":"DefaultSampler"}],"bufferViews":[{"buffer":0,"byteOffset":0,"byteLength":15624,"byteStride":12,"target":34962},{"buffer":0,"byteOffset":15624,"byteLength":15624,"byteStride":12,"target":34962},{"buffer":0,"byteOffset":31248,"byteLength":10416,"byteStride":8,"target":34962},{"buffer":0,"byteOffset":41664,"byteLength":2604,"target":34963},{"buffer":1,"byteOffset":0,"byteLength":808056,"byteStride":12,"target":34962},{"buffer":1,"byteOffset":808056,"byteLength":808056,"byteStride":12,"target":34962},{"buffer":1,"byteOffset":1616112,"byteLength":538704,"byteStride":8,"target":34962},{"buffer":1,"byteOffset":2154816,"byteLength":134676,"target":34963},{"buffer":2,"byteOffset":0,"byteLength":15624,"byteStride":12,"target":34962},{"buffer":2,"byteOffset":15624,"byteLength":15624,"byteStride":12,"target":34962},{"buffer":2,"byteOffset":31248,"byteLength":10416,"byteStride":8,"target":34962},{"buffer":2,"byteOffset":41664,"byteLength":2604,"target":34963},{"buffer":3,"byteOffset":0,"byteLength":15624,"byteStride":12,"target":34962},{"buffer":3,"byteOffset":15624,"byteLength":15624,"byteStride":12,"target":34962},{"buffer":3,"byteOffset":31248,"byteLength":10416,"byteStride":8,"target":34962},{"buffer":3,"byteOffset":41664,"byteLength":2604,"target":34963},{"buffer":4,"byteOffset":0,"byteLength":15624,"byteStride":12,"target":34962},{"buffer":4,"byteOffset":15624,"byteLength":15624,"byteStride":12,"target":34962},{"buffer":4,"byteOffset":31248,"byteLength":10416,"byteStride":8,"target":34962},{"buffer":4,"byteOffset":41664,"byteLength":2604,"target":34963},{"buffer":5,"byteOffset":0,"byteLength":15624,"byteStride":12,"target":34962},{"buffer":5,"byteOffset":15624,"byteLength":15624,"byteStride":12,"target":34962},{"buffer":5,"byteOffset":31248,"byteLength":10416,"byteStride":8,"target":34962},{"buffer":5,"byteOffset":41664,"byteLength":2604,"target":34963},{"buffer":6,"byteOffset":0,"byteLength":432,"byteStride":12,"target":34962},{"buffer":6,"byteOffset":432,"byteLength":432,"byteStride":12,"target":34962},{"buffer":6,"byteOffset":864,"byteLength":288,"byteStride":8,"target":34962},{"buffer":6,"byteOffset":1152,"byteLength":72,"target":34963},{"buffer":7,"byteOffset":0,"byteLength":12528,"byteStride":12,"target":34962},{"buffer":7,"byteOffset":12528,"byteLength":12528,"byteStride":12,"target":34962},{"buffer":7,"byteOffset":25056,"byteLength":8352,"byteStride":8,"target":34962},{"buffer":7,"byteOffset":33408,"byteLength":2088,"target":34963},{"buffer":8,"byteOffset":0,"byteLength":3168,"byteStride":12,"target":34962},{"buffer":8,"byteOffset":3168,"byteLength":3168,"byteStride":12,"target":34962},{"buffer":8,"byteOffset":6336,"byteLength":2112,"byteStride":8,"target":34962},{"buffer":8,"byteOffset":8448,"byteLength":528,"target":34963},{"buffer":9,"byteOffset":0,"byteLength":3480,"target":34962},{"buffer":9,"byteOffset":3480,"byteLength":3480,"target":34962},{"buffer":9,"byteOffset":6960,"byteLength":2880,"target":34963},{"buffer":9,"byteOffset":9840,"byteLength":3480,"target":34962},{"buffer":9,"byteOffset":13320,"byteLength":3480,"target":34962},{"buffer":9,"byteOffset":16800,"byteLength":2880,"target":34963},{"buffer":9,"byteOffset":19680,"byteLength":3480,"target":34962},{"buffer":9,"byteOffset":23160,"byteLength":3480,"target":34962},{"buffer":9,"byteOffset":26640,"byteLength":2880,"target":34963},{"buffer":9,"byteOffset":29520,"byteLength":7704,"target":34962},{"buffer":9,"byteOffset":37224,"byteLength":7704,"target":34962},{"buffer":9,"byteOffset":44928,"byteLength":15360,"target":34963}],"buffers":[{"byteLength":44268,"uri":"Vite_legno-7.bin"},{"byteLength":2289492,"uri":"Artefact_2_unione_corpi-1.bin"},{"byteLength":44268,"uri":"Vite_legno-2.bin"},{"byteLength":44268,"uri":"Vite_legno-1.bin"},{"byteLength":44268,"uri":"Vite_legno-4.bin"},{"byteLength":44268,"uri":"Vite_legno-6.bin"},{"byteLength":1224,"uri":"Artefact_0_base-1.bin"},{"byteLength":35496,"uri":"Adattatore_ArUco_femmina-1.bin"},{"byteLength":8976,"uri":"Adattatore_ArUco-1.bin"},{"uri":"triad.bin","byteLength":60288}]}