{"asset":{"generator":"SOLIDWORKSGLTF","version":"2.0","extras":{"siteFinish":"matte-v1","siteTone":"tone-v1"}},"extensionsUsed":["KHR_lights_punctual","Solidworks_custom_properties"],"scene":0,"scenes":[{"name":"Default - <Default>_Stato di visualizzazione 1","nodes":[0,1]}],"nodes":[{"matrix":[0.857129,-0.114971,0.502107,0,0.391918,0.77811,-0.490862,0,-0.334259,0.617517,0.712,0,-0.670958,1.29388,1.41591,1],"camera":0,"name":"current"},{"mesh":0,"name":"Artefact_2_unione_corpi.SLDPRT"}],"cameras":[{"type":"orthographic","orthographic":{"xmag":1,"ymag":1,"zfar":100,"znear":0.01}}],"meshes":[{"primitives":[{"attributes":{"POSITION":1,"NORMAL":2,"TEXCOORD_0":3},"indices":0,"mode":4,"material":1}]}],"accessors":[{"bufferView":3,"byteOffset":0,"componentType":5123,"count":64554,"type":"SCALAR"},{"bufferView":0,"byteOffset":0,"componentType":5126,"count":64554,"type":"VEC3","min":[-0.104000002,-4.49871745e-16,-0.104000002],"max":[0.104000002,0.118666664,0.104000002]},{"bufferView":1,"byteOffset":0,"componentType":5126,"count":64554,"type":"VEC3"},{"bufferView":2,"byteOffset":0,"componentType":5126,"count":64554,"type":"VEC2"}],"materials":[{"pbrMetallicRoughness":{"baseColorFactor":[0.173557,0.173557,0.173557,1],"metallicFactor":0.0,"roughnessFactor":0.9}},{"name":"color","pbrMetallicRoughness":{"baseColorFactor":[0.484,0.484,0.484,1],"metallicFactor":0.0,"roughnessFactor":0.9}}],"bufferViews":[{"buffer":0,"byteOffset":0,"byteLength":774648,"byteStride":12,"target":34962},{"buffer":0,"byteOffset":774648,"byteLength":774648,"byteStride":12,"target":34962},{"buffer":0,"byteOffset":1549296,"byteLength":516432,"byteStride":8,"target":34962},{"buffer":0,"byteOffset":2065728,"byteLength":129108,"target":34963}],"buffers":[{"byteLength":2194836,"uri":"Artefact_2_unione_corpi.SLDPRT.bin"}]}